<?xml version="1.0" encoding="utf-8"?>
<!-- Generator: Adobe Illustrator 14.0.0, SVG Export Plug-In . SVG Version: 6.00 Build 43363)  -->
<!DOCTYPE svg PUBLIC "-//W3C//DTD SVG 1.1//EN" "http://www.w3.org/Graphics/SVG/1.1/DTD/svg11.dtd" [
	<!ENTITY ns_flows "http://ns.adobe.com/Flows/1.0/">
	<!ENTITY ns_extend "http://ns.adobe.com/Extensibility/1.0/">
	<!ENTITY ns_ai "http://ns.adobe.com/AdobeIllustrator/10.0/">
	<!ENTITY ns_graphs "http://ns.adobe.com/Graphs/1.0/">
]>
<svg version="1.1" id="Vrstva_1" xmlns:x="&ns_extend;" xmlns:i="&ns_ai;" xmlns:graph="&ns_graphs;"
	 xmlns="http://www.w3.org/2000/svg" xmlns:xlink="http://www.w3.org/1999/xlink" xmlns:a="http://ns.adobe.com/AdobeSVGViewerExtensions/3.0/"
	 x="0px" y="0px" width="201.361px" height="371.014px" viewBox="0 0 201.361 371.014"
	 style="enable-background:new 0 0 201.361 371.014;" xml:space="preserve">
<g>
	<path style="fill:#FFFFFF;fill-opacity:0.25;stroke:#FFFFFF;stroke-width:1.718;stroke-miterlimit:10;" d="M174.716,112.027
		c0,0,1.234-15.295-70.346-17.568c0,0-73.93,0-77.727,17.568L53.388,348.29c0,12.549,21.174,22.724,47.291,22.724
		c26.121,0,47.293-10.174,47.293-22.724L174.716,112.027z"/>
	<g>
		<g>
			<g style="opacity:0.29;">
				<g>
					<g>
						<path style="fill:#FFFFFF;" d="M100.56,179.238c5.252,0,10.355-0.138,15.258-0.388l-5.762-28.808
							c-3.104-0.097-6.27-0.149-9.496-0.149c-37.002,0-67,6.568-67,14.672S63.558,179.238,100.56,179.238 M148.722,154.372
							c-7.592-1.718-17.076-3.034-27.729-3.78l4.801,27.566c7.098-0.634,13.584-1.525,19.223-2.621
							C145.937,170.397,147.999,158.857,148.722,154.372 M167.56,164.565c0-2.711-3.367-5.249-9.225-7.428
							c-0.529,3.248-1.895,10.734-2.828,15.819C163.099,170.58,167.56,167.688,167.56,164.565"/>
					</g>
				</g>
			</g>
			<g>
				<path style="fill:#FFFFFF;" d="M100.681,370.013c-26.355,0-47.807-10.54-47.869-23.508L26.427,112.951
					c-0.078-0.368-0.119-0.74-0.119-1.118c0-11.547,37.814-18.447,74.373-18.447s74.373,6.9,74.373,18.447
					c0,0.378-0.041,0.75-0.121,1.118L148.55,346.506C148.486,359.473,127.038,370.013,100.681,370.013L100.681,370.013z
					 M100.681,324.883c-25.293,0-45.869,9.675-45.869,21.565s20.576,21.564,45.869,21.564s45.869-9.675,45.869-21.564
					C146.55,334.557,125.974,324.883,100.681,324.883L100.681,324.883z M28.882,116.853l25.301,223.981
					c5.129-10.293,24.031-17.952,46.498-17.952s41.369,7.659,46.498,17.952l25.301-223.981c-2.695,2.517-7.381,4.72-13.443,6.574
					c3.33,2.819,4.461,6.965,3.867,13.707c-0.688,7.815-14.219,72.57-16.414,81.147c-2.098,8.192-4.486,15.584-10.635,16.059
					c-0.354,0.027-0.693,0.032-1.02,0.016c-7.225-0.026-9.189-7.356-11.465-15.841c-2.143-7.986-10.215-49.121-13.66-66.688
					l-1.064-5.41c-1.219-6.174-3.645-11.305-4.98-13.813c-0.213-0.401-0.326-0.854-0.326-1.306v-1.029
					c-0.887,0.008-1.771,0.012-2.656,0.012C69.781,130.28,37.984,125.351,28.882,116.853L28.882,116.853z M106.814,130.216
					c1.402,2.448,4.365,8.227,5.807,15.513l0.938,4.756c3.27,16.63,11.951,60.808,14.107,68.843
					c2.545,9.495,3.971,13.327,8.035,13.02c4.373-0.338,6.557-5.595,8.852-14.562c2.363-9.232,15.734-73.739,16.359-80.827
					c0.598-6.795-0.607-10.438-4.287-12.831c-1.533,0.422-3.141,0.824-4.812,1.205c3.334,2.606,4.727,7.351,2.59,18.702
					c-1.947,10.349-5.143,27.031-7.459,39.131c-1.15,6.018-2.088,10.901-2.543,13.31c-1.318,6.948-3.191,9.752-6.916,10.342
					c-1.824,0.288-7.908,0.605-9.334-7.471c-1.203-6.818-8.67-49.483-9.521-54.439c-0.861-5-2.879-11.825-4.975-14.914
					C111.384,130.094,109.101,130.168,106.814,130.216L106.814,130.216z M109.087,140.24c0.586,1.791,1.115,3.732,1.52,5.79
					l1.064,5.413c2.957,15.066,10.514,53.583,13.18,64.752c-3.051-13.394-10.326-50.416-13.258-65.325l-0.936-4.754
					C110.243,144.018,109.691,142.041,109.087,140.24L109.087,140.24z M115.933,129.884c2.238,3.979,3.982,10.721,4.666,14.685
					c0.854,4.955,8.316,47.613,9.521,54.432c0.529,3.008,1.756,4.592,3.191,5.35c5.438-0.062,5.914-2.648,6.57-6.205l1.77-9.326
					c2.359-12.415,6.289-33.077,8.506-44.856c2.037-10.83,0.812-14.125-1.652-15.742c-0.674-0.44-1.094-1.161-1.143-1.949
					C138.083,128.07,127.214,129.298,115.933,129.884L115.933,129.884z M149.357,126.113L149.357,126.113
					c0,0.172,0.092,0.334,0.242,0.433c3.76,2.465,4.467,7.452,2.521,17.786c-2.217,11.781-6.145,32.444-8.506,44.86l-1.768,9.313
					c-0.047,0.252-0.094,0.51-0.145,0.769c0.254-0.899,0.498-1.948,0.729-3.172c0.457-2.408,1.393-7.293,2.545-13.312
					c2.316-12.098,5.51-28.777,7.457-39.125C154.861,130.777,152.47,127.783,149.357,126.113L149.357,126.113z M55.445,124.583
					c11.973,2.253,27.396,3.697,45.236,3.697c17.838,0,33.262-1.444,45.234-3.697c-13.072,2.267-29.381,3.438-45.234,3.438
					S68.519,126.849,55.445,124.583L55.445,124.583z M100.681,97.644c-41.225,0-69.953,7.478-69.953,14.188
					s28.73,14.188,69.953,14.188c41.225,0,69.953-7.479,69.953-14.188C170.634,105.122,141.904,97.644,100.681,97.644
					L100.681,97.644z M170.835,107.975c1.17,1.201,1.799,2.489,1.799,3.857c0,1.369-0.629,2.657-1.799,3.859
					c1.158-1.013,1.875-2.041,2.121-3.064l0.096-0.848C173.032,110.513,172.273,109.233,170.835,107.975L170.835,107.975z
					 M28.404,112.628c0.246,1.024,0.965,2.052,2.123,3.064c-1.17-1.203-1.799-2.49-1.799-3.859c0-1.368,0.627-2.655,1.797-3.857
					c-1.438,1.258-2.195,2.538-2.217,3.805L28.404,112.628L28.404,112.628z M100.681,95.644c15.834,0,32.117,1.169,45.182,3.429
					c-11.965-2.248-27.369-3.688-45.182-3.688c-17.811,0-33.217,1.439-45.182,3.688C68.562,96.812,84.849,95.644,100.681,95.644
					L100.681,95.644z"/>
			</g>
			<g style="opacity:0.29;">
				<g>
					<g>
						<path style="fill:#FFFFFF;" d="M148.98,154.427c-7.66-1.754-17.279-3.093-28.096-3.846c-0.219-0.016-0.275,1.156-0.23,3.086
							l5.906,32.897l3,15l3,3l4,1l3-4l1-3L148.98,154.427z"/>
					</g>
				</g>
			</g>
		</g>
		<g style="opacity:0.29;">
			<g>
				<g>
					<path style="fill:#FFFFFF;" d="M167.56,164.565c0-2.696-3.322-5.225-9.119-7.396c-0.061-0.021-0.129-0.043-0.188-0.065
						l-6.691,33.461l-8,35l-3,6.135l-5.75,1.865l-3.25-1l-2-2l-6-14l-13-63v-3.506c-3.264-0.107-6.6-0.166-10-0.166
						c-37.004,0-67,6.568-67,14.672l21,184l3,7l9,7l17,5l20,1l17-2l11-3l12-8l3-5l1-5L167.56,164.565z"/>
				</g>
			</g>
		</g>
	</g>
</g>
</svg>
