<?xml version="1.0" encoding="utf-8"?>
<!-- Generator: Adobe Illustrator 14.0.0, SVG Export Plug-In . SVG Version: 6.00 Build 43363)  -->
<!DOCTYPE svg PUBLIC "-//W3C//DTD SVG 1.1//EN" "http://www.w3.org/Graphics/SVG/1.1/DTD/svg11.dtd" [
	<!ENTITY ns_flows "http://ns.adobe.com/Flows/1.0/">
	<!ENTITY ns_extend "http://ns.adobe.com/Extensibility/1.0/">
	<!ENTITY ns_ai "http://ns.adobe.com/AdobeIllustrator/10.0/">
	<!ENTITY ns_graphs "http://ns.adobe.com/Graphs/1.0/">
]>
<svg version="1.1" id="Vrstva_1" xmlns:x="&ns_extend;" xmlns:i="&ns_ai;" xmlns:graph="&ns_graphs;"
	 xmlns="http://www.w3.org/2000/svg" xmlns:xlink="http://www.w3.org/1999/xlink" xmlns:a="http://ns.adobe.com/AdobeSVGViewerExtensions/3.0/"
	 x="0px" y="0px" width="201.361px" height="371.014px" viewBox="0 0 201.361 371.014"
	 style="enable-background:new 0 0 201.361 371.014;" xml:space="preserve">
<g>
	<linearGradient id="SVGID_1_" gradientUnits="userSpaceOnUse" x1="9.5588" y1="309.6482" x2="191.8102" y2="127.3969">
		<stop  offset="0" style="stop-color:#00FF13"/>
		<stop  offset="0.2454" style="stop-color:#F6FF17"/>
		<stop  offset="0.2877" style="stop-color:#F6FB1A"/>
		<stop  offset="0.3301" style="stop-color:#F7EF24"/>
		<stop  offset="0.3725" style="stop-color:#F7DB34"/>
		<stop  offset="0.4149" style="stop-color:#F8BF4B"/>
		<stop  offset="0.4574" style="stop-color:#FA9A69"/>
		<stop  offset="0.5" style="stop-color:#FB6E8D"/>
		<stop  offset="0.5418" style="stop-color:#FD3AB7"/>
		<stop  offset="0.5828" style="stop-color:#FF00E7"/>
		<stop  offset="0.908" style="stop-color:#00F7FF"/>
		<a:midPointStop  offset="0" style="stop-color:#00FF13"/>
		<a:midPointStop  offset="0.5" style="stop-color:#00FF13"/>
		<a:midPointStop  offset="0.2454" style="stop-color:#F6FF17"/>
		<a:midPointStop  offset="0.7073" style="stop-color:#F6FF17"/>
		<a:midPointStop  offset="0.5828" style="stop-color:#FF00E7"/>
		<a:midPointStop  offset="0.5" style="stop-color:#FF00E7"/>
		<a:midPointStop  offset="0.908" style="stop-color:#00F7FF"/>
	</linearGradient>
	<path style="fill:url(#SVGID_1_);fill-opacity:0.65;" d="M174.716,112.027c0,0,1.234-15.295-70.346-17.568
		c0,0-73.93,0-77.726,17.568L53.387,348.29c0,12.549,21.174,22.724,47.292,22.724c26.121,0,47.292-10.174,47.292-22.724
		L174.716,112.027z"/>
	<g>
		<g>
			<g>
				<path style="fill:#FFFFFF;" d="M100.681,370.013c-26.356,0-47.808-10.54-47.87-23.508L26.427,112.951
					c-0.079-0.368-0.119-0.74-0.119-1.118c0-11.547,37.814-18.447,74.373-18.447c36.558,0,74.373,6.9,74.373,18.447
					c0,0.378-0.041,0.75-0.121,1.118L148.55,346.506C148.486,359.473,127.038,370.013,100.681,370.013L100.681,370.013z
					 M100.681,324.883c-25.293,0-45.87,9.675-45.87,21.565s20.577,21.564,45.87,21.564c25.292,0,45.869-9.675,45.869-21.564
					C146.55,334.557,125.974,324.883,100.681,324.883L100.681,324.883z M28.882,116.853l25.302,223.981
					c5.128-10.293,24.03-17.952,46.498-17.952c22.466,0,41.369,7.659,46.498,17.952l25.301-223.981
					c-2.695,2.517-7.381,4.72-13.443,6.574c3.33,2.819,4.461,6.965,3.867,13.707c-0.688,7.815-14.219,72.57-16.414,81.147
					c-2.098,8.192-4.486,15.584-10.635,16.059c-0.354,0.027-0.693,0.032-1.02,0.016c-7.225-0.026-9.189-7.356-11.465-15.841
					c-2.143-7.986-10.215-49.121-13.66-66.688l-1.064-5.41c-1.219-6.174-3.645-11.305-4.98-13.813
					c-0.213-0.401-0.326-0.854-0.326-1.306v-1.029c-0.887,0.008-1.771,0.012-2.657,0.012
					C69.78,130.28,37.984,125.351,28.882,116.853L28.882,116.853z M106.814,130.216c1.402,2.448,4.365,8.227,5.807,15.513
					l0.938,4.756c3.27,16.63,11.951,60.808,14.107,68.843c2.545,9.495,3.971,13.327,8.035,13.02
					c4.373-0.338,6.557-5.595,8.852-14.562c2.363-9.232,15.734-73.739,16.359-80.827c0.598-6.795-0.607-10.438-4.287-12.831
					c-1.533,0.422-3.141,0.824-4.812,1.205c3.334,2.606,4.727,7.351,2.59,18.702c-1.947,10.349-5.143,27.031-7.459,39.131
					c-1.15,6.018-2.088,10.901-2.543,13.31c-1.318,6.948-3.191,9.752-6.916,10.342c-1.824,0.288-7.908,0.605-9.334-7.471
					c-1.203-6.818-8.67-49.483-9.521-54.439c-0.861-5-2.879-11.825-4.975-14.914C111.384,130.094,109.101,130.168,106.814,130.216
					L106.814,130.216z M109.087,140.24c0.586,1.791,1.115,3.732,1.52,5.79l1.064,5.413c2.957,15.066,10.514,53.583,13.18,64.752
					c-3.051-13.394-10.326-50.416-13.258-65.325l-0.936-4.754C110.243,144.018,109.691,142.041,109.087,140.24L109.087,140.24z
					 M115.933,129.884c2.238,3.979,3.982,10.721,4.666,14.685c0.854,4.955,8.316,47.613,9.521,54.432
					c0.529,3.008,1.756,4.592,3.191,5.35c5.438-0.062,5.914-2.648,6.57-6.205l1.77-9.326c2.359-12.415,6.289-33.077,8.506-44.856
					c2.037-10.83,0.812-14.125-1.652-15.742c-0.674-0.44-1.094-1.161-1.143-1.949C138.083,128.07,127.214,129.298,115.933,129.884
					L115.933,129.884z M149.357,126.113L149.357,126.113c0,0.172,0.092,0.334,0.242,0.433c3.76,2.465,4.467,7.452,2.521,17.786
					c-2.217,11.781-6.145,32.444-8.506,44.86l-1.768,9.313c-0.047,0.252-0.094,0.51-0.145,0.769
					c0.254-0.899,0.498-1.948,0.729-3.172c0.457-2.408,1.393-7.293,2.545-13.312c2.316-12.098,5.51-28.777,7.457-39.125
					C154.861,130.777,152.47,127.783,149.357,126.113L149.357,126.113z M55.444,124.583c11.974,2.253,27.397,3.697,45.236,3.697
					c17.838,0,33.262-1.444,45.235-3.697c-13.072,2.267-29.381,3.438-45.235,3.438C84.827,128.021,68.518,126.849,55.444,124.583
					L55.444,124.583z M100.681,97.644c-41.225,0-69.953,7.478-69.953,14.188s28.729,14.188,69.953,14.188
					c41.224,0,69.953-7.479,69.953-14.188C170.634,105.122,141.904,97.644,100.681,97.644L100.681,97.644z M170.835,107.975
					c1.17,1.201,1.799,2.489,1.799,3.857c0,1.369-0.629,2.657-1.799,3.859c1.158-1.013,1.875-2.041,2.121-3.064l0.096-0.848
					C173.032,110.513,172.273,109.233,170.835,107.975L170.835,107.975z M28.403,112.628c0.247,1.024,0.965,2.052,2.123,3.064
					c-1.17-1.203-1.799-2.49-1.799-3.859c0-1.368,0.628-2.655,1.797-3.857c-1.438,1.258-2.195,2.538-2.217,3.805L28.403,112.628
					L28.403,112.628z M100.681,95.644c15.833,0,32.117,1.169,45.181,3.429c-11.965-2.248-27.369-3.688-45.181-3.688
					c-17.812,0-33.217,1.439-45.182,3.688C68.562,96.812,84.848,95.644,100.681,95.644L100.681,95.644z"/>
			</g>
		</g>
	</g>
</g>
</svg>
