<?xml version="1.0" encoding="utf-8"?>
<!-- Generator: Adobe Illustrator 14.0.0, SVG Export Plug-In . SVG Version: 6.00 Build 43363)  -->
<!DOCTYPE svg PUBLIC "-//W3C//DTD SVG 1.1//EN" "http://www.w3.org/Graphics/SVG/1.1/DTD/svg11.dtd" [
	<!ENTITY ns_flows "http://ns.adobe.com/Flows/1.0/">
	<!ENTITY ns_extend "http://ns.adobe.com/Extensibility/1.0/">
	<!ENTITY ns_ai "http://ns.adobe.com/AdobeIllustrator/10.0/">
	<!ENTITY ns_graphs "http://ns.adobe.com/Graphs/1.0/">
]>
<svg version="1.1" id="Vrstva_1" xmlns:x="&ns_extend;" xmlns:i="&ns_ai;" xmlns:graph="&ns_graphs;"
	 xmlns="http://www.w3.org/2000/svg" xmlns:xlink="http://www.w3.org/1999/xlink" xmlns:a="http://ns.adobe.com/AdobeSVGViewerExtensions/3.0/"
	 x="0px" y="0px" width="201.361px" height="223.006px" viewBox="0 148.006 201.361 223.006"
	 enable-background="new 0 148.006 201.361 223.006" xml:space="preserve">
<g>
	<path fill="#000000" d="M51.141,350.913c0.118,1.004,0.636,1.93,1.422,2.768c1.382,1.469,3.612,2.758,6.561,3.932
		c8.835,3.502,24.226,5.883,41.956,5.889c13.503-0.002,25.728-1.338,34.628-3.514c4.451-1.092,8.07-2.387,10.637-3.871
		c1.283-0.742,2.309-1.533,3.039-2.406c0.729-0.867,1.166-1.846,1.164-2.883h-1.5c0,0.609-0.244,1.236-0.814,1.922
		c-0.99,1.195-2.98,2.447-5.77,3.564c-4.182,1.686-10.139,3.117-17.238,4.115c-7.102,0.998-15.35,1.572-24.146,1.572
		c-13.4,0-25.467-1.385-34.228-3.551c-4.378-1.08-7.932-2.359-10.384-3.727c-1.227-0.682-2.174-1.385-2.811-2.066
		c-0.64-0.686-0.958-1.328-1.026-1.918L51.141,350.913z"/>
	<path fill="#000000" d="M150.542,351.528l15.943-121.205l-0.742-0.098l0.707,0.247c0.008-0.026,0.201-0.566,0.289-1.194
		l0.002-0.023l2.494-33.873c0.029-0.412-0.281-0.772-0.693-0.803c-0.414-0.03-0.773,0.279-0.803,0.693l-2.492,33.848l0.748,0.056
		l-0.742-0.103c-0.029,0.219-0.086,0.454-0.135,0.629l-0.061,0.208l-0.02,0.056l-0.004,0.014l-0.025,0.072l-15.955,121.281
		c-0.053,0.41,0.236,0.787,0.646,0.84C150.111,352.227,150.488,351.938,150.542,351.528L150.542,351.528z"/>
	<path fill="#000000" d="M173.241,176.385c1.396,1.022,2.404,2.556,3.053,4.153c0.648,1.593,0.932,3.247,0.93,4.412
		c0,1.257-0.463,2.505-1.418,3.777c-1.668,2.224-4.871,4.433-9.328,6.419c-6.682,2.986-16.154,5.506-27.439,7.266
		c-11.285,1.762-24.387,2.771-38.358,2.771c-21.289,0-40.563-2.346-54.459-6.12c-6.946-1.884-12.548-4.131-16.355-6.577
		c-1.903-1.221-3.354-2.49-4.31-3.759c-0.956-1.272-1.418-2.521-1.419-3.777c-0.001-1.118,0.167-2.826,0.65-4.466
		c0.479-1.646,1.282-3.206,2.44-4.116l-0.932-1.176c-1.527,1.219-2.412,3.056-2.948,4.869c-0.533,1.818-0.71,3.631-0.711,4.889
		c-0.001,1.64,0.618,3.22,1.722,4.681c1.936,2.557,5.33,4.832,9.911,6.885c6.874,3.068,16.444,5.602,27.819,7.379
		c11.374,1.775,24.547,2.789,38.591,2.789c21.401-0.002,40.774-2.352,54.852-6.172c7.041-1.914,12.758-4.188,16.773-6.764
		c2.006-1.289,3.592-2.654,4.697-4.117c1.104-1.461,1.723-3.041,1.721-4.681c-0.002-1.393-0.318-3.191-1.041-4.977
		c-0.725-1.781-1.861-3.553-3.555-4.798L173.241,176.385z"/>
	<path fill="#000000" d="M173.685,175.781h-0.75c0,0.896-0.4,1.818-1.295,2.8c-1.559,1.714-4.611,3.453-8.85,5.004
		c-6.357,2.338-15.369,4.309-26.1,5.686c-10.732,1.379-23.189,2.168-36.472,2.168c-20.237,0.002-38.562-1.834-51.777-4.787
		c-6.605-1.474-11.937-3.234-15.556-5.147c-1.81-0.954-3.186-1.948-4.077-2.923c-0.896-0.981-1.295-1.903-1.296-2.8
		c0.001-0.896,0.399-1.818,1.296-2.8c1.559-1.714,4.61-3.453,8.848-5.004c6.356-2.338,15.366-4.31,26.096-5.687
		c10.73-1.379,23.186-2.168,36.467-2.168c20.24-0.001,38.566,1.835,51.785,4.789c6.607,1.474,11.939,3.234,15.559,5.147
		c1.809,0.955,3.186,1.948,4.078,2.924c0.895,0.981,1.295,1.903,1.295,2.8H173.685h0.75c0.002-1.369-0.627-2.659-1.689-3.813
		c-1.867-2.024-5.086-3.792-9.438-5.399c-6.527-2.398-15.619-4.377-26.426-5.767c-10.807-1.388-23.32-2.181-36.664-2.181
		c-20.33,0.001-38.734,1.839-52.104,4.825c-6.688,1.495-12.113,3.271-15.929,5.285c-1.908,1.009-3.418,2.076-4.483,3.236
		c-1.062,1.155-1.69,2.445-1.689,3.813c-0.001,1.369,0.628,2.659,1.689,3.813c1.866,2.024,5.085,3.792,9.437,5.398
		c6.526,2.398,15.616,4.377,26.422,5.766c10.804,1.388,23.317,2.18,36.658,2.18c20.333,0,38.74-1.838,52.111-4.823
		c6.689-1.495,12.115-3.271,15.932-5.284c1.908-1.009,3.42-2.076,4.484-3.236c1.062-1.155,1.691-2.445,1.689-3.813H173.685z"/>
	<path fill="#000000" d="M80.458,184.916c-9.062-0.929-16.751-2.46-22.117-4.353c-2.682-0.943-4.781-1.982-6.157-3.036
		c-0.689-0.526-1.194-1.052-1.515-1.552c-0.321-0.501-0.462-0.962-0.463-1.421c0.001-0.613,0.257-1.25,0.862-1.949
		c1.053-1.221,3.164-2.496,6.118-3.633c4.431-1.716,10.736-3.17,18.25-4.185c7.515-1.016,16.243-1.599,25.551-1.599
		c14.18-0.001,27.022,1.354,36.266,3.529c4.619,1.085,8.344,2.381,10.85,3.777c1.254,0.696,2.199,1.417,2.803,2.111
		c0.605,0.7,0.861,1.336,0.861,1.949c0,0.534-0.193,1.078-0.639,1.674c-0.777,1.042-2.352,2.155-4.602,3.178
		c-3.373,1.543-8.234,2.917-14.133,3.991c-5.9,1.075-12.844,1.856-20.414,2.244l0.076,1.499c11.623-0.598,21.789-2.108,29.104-4.217
		c3.658-1.057,6.605-2.258,8.693-3.61c1.045-0.678,1.879-1.396,2.473-2.183c0.594-0.784,0.943-1.66,0.941-2.577
		c0.002-1.06-0.463-2.056-1.23-2.934c-1.352-1.54-3.637-2.854-6.709-4.048c-4.605-1.781-10.996-3.245-18.59-4.272
		c-7.592-1.026-16.381-1.612-25.75-1.612c-14.28,0.001-27.205,1.358-36.611,3.569c-4.704,1.108-8.527,2.423-11.235,3.926
		c-1.354,0.754-2.434,1.554-3.203,2.438c-0.768,0.877-1.232,1.874-1.231,2.934c-0.001,0.783,0.256,1.542,0.701,2.232
		c0.784,1.21,2.118,2.258,3.906,3.233c2.684,1.457,6.424,2.735,11.002,3.816c4.577,1.08,9.989,1.955,15.99,2.572L80.458,184.916z"/>
	<path fill="#000000" d="M107.716,181.693c0.027,0.054,1.35,2.969,4.236,5.538l2.764,2.453c0.309,0.275,0.783,0.247,1.059-0.062
		s0.246-0.783-0.062-1.059l-2.764-2.455c-1.318-1.168-2.293-2.439-2.934-3.414c-0.32-0.487-0.557-0.899-0.711-1.187
		c-0.078-0.144-0.135-0.256-0.172-0.331l-0.039-0.083l-0.012-0.022c-0.172-0.377-0.615-0.543-0.992-0.372
		S107.544,181.316,107.716,181.693z"/>
	<path fill="#000000" d="M76.539,189.454c0.013-0.008,1.408-0.879,2.899-2.033c0.746-0.576,1.517-1.223,2.158-1.883
		c0.64-0.667,1.169-1.317,1.399-2.074c0.249-0.854,0.396-1.317,0.477-1.551c0.04-0.115,0.064-0.176,0.066-0.179l-0.422-0.19
		l0.385,0.255l0.037-0.065l-0.422-0.19l0.385,0.255l-0.591-0.391l0.48,0.521l0.11-0.129l-0.591-0.391l0.48,0.521l-0.502-0.544
		l0.341,0.657l0.161-0.113l-0.502-0.544l0.341,0.657l-0.344-0.663v0.746c0.149,0,0.267-0.043,0.344-0.083l-0.344-0.663v0.746v-0.748
		l-0.387,0.64c0.105,0.065,0.253,0.109,0.387,0.107v-0.748l-0.387,0.64l0.386-0.639l-0.677,0.313
		c0.037,0.076,0.102,0.206,0.291,0.325l0.386-0.639l-0.677,0.313l0.669-0.31l-0.731,0.095c0.008,0.042,0.01,0.096,0.062,0.215
		l0.669-0.31l-0.731,0.095l0.727-0.094l-0.732,0.011l0.006,0.083l0.727-0.094l-0.732,0.011c0.007,0.414,0.348,0.745,0.762,0.738
		c0.414-0.007,0.745-0.348,0.738-0.762c-0.002-0.032,0.001-0.068-0.023-0.174c-0.016-0.055-0.031-0.131-0.119-0.258
		c-0.045-0.062-0.113-0.14-0.222-0.206c-0.106-0.066-0.255-0.11-0.39-0.108c-0.15,0-0.268,0.044-0.347,0.085
		c-0.152,0.083-0.2,0.151-0.241,0.196l-0.106,0.167c-0.062,0.129-0.105,0.252-0.203,0.548c-0.096,0.291-0.232,0.734-0.434,1.424
		c-0.075,0.3-0.466,0.873-1.034,1.446c-0.848,0.874-2.054,1.81-3.037,2.513c-0.492,0.353-0.93,0.648-1.242,0.855
		c-0.157,0.104-0.282,0.186-0.368,0.24l-0.13,0.082c-0.352,0.22-0.458,0.683-0.238,1.033
		C75.725,189.567,76.187,189.674,76.539,189.454z"/>
	<path fill="#000000" d="M108.4,181.383h-0.75h0.641l-0.551-0.331c-0.045,0.072-0.092,0.194-0.09,0.331h0.641l-0.551-0.331
		l0.354,0.212l-0.215-0.366c0.002,0.004-0.047,0.013-0.139,0.154l0.354,0.212l-0.215-0.366c-0.006,0.007-0.15,0.07-0.361,0.125
		c-0.756,0.209-2.365,0.438-4.439,0.6c-2.081,0.163-4.651,0.27-7.43,0.27c-3.499,0-6.669-0.168-8.942-0.407
		c-1.136-0.119-2.051-0.256-2.647-0.391c-0.296-0.066-0.516-0.135-0.607-0.177l-0.038-0.019l-0.161,0.279l0.237-0.21l-0.076-0.068
		l-0.161,0.279l0.237-0.21l-0.468,0.416h0.62c0-0.211-0.101-0.36-0.152-0.416l-0.468,0.416h0.62h-0.643l0.552,0.333
		c0.045-0.072,0.092-0.195,0.091-0.333h-0.643l0.552,0.333l-0.354-0.214l0.215,0.367c-0.003-0.004,0.047-0.012,0.14-0.153
		l-0.354-0.214l0.215,0.367c0.006-0.007,0.15-0.07,0.361-0.125c0.758-0.208,2.367-0.437,4.442-0.599
		c2.081-0.164,4.653-0.27,7.434-0.27c3.497,0,6.665,0.169,8.938,0.407c1.137,0.119,2.051,0.257,2.646,0.391
		c0.297,0.065,0.518,0.135,0.609,0.176l0.039,0.019l0.158-0.279l-0.234,0.211l0.076,0.067l0.158-0.279l-0.234,0.211l0.467-0.418
		h-0.621c0,0.214,0.102,0.363,0.154,0.418l0.467-0.418h-0.621H108.4h0.75c0-0.174-0.059-0.333-0.125-0.442
		c-0.135-0.212-0.27-0.293-0.389-0.367c-0.223-0.127-0.445-0.199-0.725-0.277c-0.959-0.258-2.586-0.477-4.717-0.646
		c-2.125-0.167-4.73-0.275-7.547-0.275c-3.548,0-6.757,0.17-9.1,0.416c-1.173,0.123-2.125,0.264-2.819,0.419
		c-0.35,0.079-0.631,0.158-0.878,0.264c-0.125,0.056-0.243,0.114-0.378,0.226c-0.066,0.057-0.14,0.129-0.208,0.241
		c-0.066,0.109-0.125,0.268-0.124,0.442c-0.001,0.173,0.057,0.332,0.123,0.44c0.135,0.213,0.271,0.295,0.388,0.369
		c0.224,0.128,0.446,0.201,0.727,0.279c0.96,0.259,2.587,0.478,4.718,0.647c2.127,0.167,4.732,0.274,7.552,0.274
		c3.546,0,6.754-0.17,9.096-0.415c1.172-0.124,2.123-0.264,2.818-0.42c0.35-0.08,0.631-0.159,0.879-0.266
		c0.125-0.056,0.244-0.115,0.379-0.227c0.066-0.057,0.139-0.13,0.207-0.241c0.066-0.109,0.123-0.267,0.123-0.44H108.4z"/>
	<path fill="#000000" d="M53.268,179.543c3.554-2.177,10.048-4.125,18.35-5.484c8.306-1.365,18.438-2.169,29.369-2.169
		c10.637,0,20.518,0.76,28.694,2.06c8.172,1.294,14.656,3.146,18.42,5.246l0.729-1.311c-4.059-2.251-10.639-4.099-18.914-5.417
		c-8.27-1.313-18.219-2.078-28.928-2.078c-11.005,0-21.208,0.808-29.612,2.189c-8.41,1.387-15.002,3.321-18.888,5.684
		L53.268,179.543z"/>
	<path fill="#000000" d="M69.722,360.668c0.004,0.045,0.011,0.934,0.365,1.908c0.181,0.486,0.452,1.006,0.907,1.432
		c0.449,0.426,1.109,0.725,1.874,0.719c0.369,0,0.76-0.062,1.174-0.189c4.163-1.273,7.091-2.176,7.091-2.176l-0.441-1.434
		c-0.002,0.002-0.731,0.227-1.983,0.609c-1.252,0.385-3.023,0.928-5.105,1.564c-0.295,0.092-0.537,0.125-0.734,0.125
		c-0.407-0.006-0.633-0.121-0.853-0.318c-0.324-0.291-0.562-0.859-0.673-1.369c-0.057-0.252-0.088-0.484-0.104-0.65l-0.015-0.189
		l-0.002-0.047v-0.008L69.722,360.668z"/>
	<path fill="#000000" d="M140.368,357.938l-0.002,0.02c-0.002,0.135-0.057,0.893-0.322,1.52c-0.131,0.316-0.307,0.588-0.512,0.762
		c-0.209,0.172-0.43,0.277-0.812,0.281c-0.197,0-0.441-0.033-0.736-0.123c-2.08-0.639-3.184-0.977-3.77-1.156
		c-0.584-0.18-0.645-0.199-0.646-0.199l-0.445,1.432c0.004,0.002,0.262,0.082,4.422,1.357c0.414,0.127,0.807,0.189,1.176,0.189
		c0.764,0.008,1.424-0.291,1.875-0.719c0.68-0.643,0.959-1.477,1.113-2.135c0.15-0.66,0.158-1.17,0.16-1.205L140.368,357.938z"/>
	<path fill="#000000" d="M31.008,195.313l1.597,29.807l0.005,0.035c0.013,0.067,0.099,0.67,0.562,1.327
		c0.232,0.327,0.567,0.665,1.027,0.919c0.459,0.256,1.037,0.42,1.717,0.434c0.414,0.008,0.758-0.32,0.767-0.734
		s-0.319-0.757-0.733-0.766c-0.466-0.012-0.783-0.114-1.023-0.246c-0.355-0.197-0.562-0.482-0.688-0.739
		c-0.062-0.127-0.101-0.243-0.122-0.32l-0.021-0.085l-0.003-0.014l-0.277,0.048l0.278-0.04l-0.001-0.008l-0.277,0.048l0.278-0.04
		l-0.742,0.107l0.749-0.039l-1.595-29.773c-0.022-0.413-0.376-0.73-0.789-0.709C31.302,194.547,30.985,194.9,31.008,195.313z"/>
	<path fill="#000000" d="M33.624,195.883l1.726,32.333l0.003,0.024c0.011,0.062,0.052,0.433,0.318,0.871
		c0.135,0.217,0.332,0.451,0.612,0.639c0.279,0.188,0.639,0.322,1.046,0.358l0.069-0.747l-0.745,0.09l14.488,121.463l1.49-0.178
		L38.071,228.671l-0.604-0.056c-0.179-0.018-0.274-0.062-0.349-0.111c-0.108-0.071-0.182-0.182-0.229-0.291l-0.044-0.133
		l-0.006-0.027l-0.226,0.038l0.228-0.026l-0.002-0.012l-0.226,0.038l0.228-0.026l-0.745,0.088l0.749-0.041l-1.725-32.309
		L33.624,195.883z"/>
	<path fill="#000000" d="M37.185,197.151l1.49,32.617c0.019,0.414,0.369,0.733,0.783,0.715c0.414-0.02,0.734-0.37,0.715-0.783
		l-1.49-32.617c-0.019-0.414-0.369-0.734-0.783-0.715C37.486,196.386,37.166,196.737,37.185,197.151"/>
	<path fill="#000000" d="M41.219,198.963l1.61,32.799c0.021,0.414,0.372,0.733,0.786,0.713c0.413-0.02,0.732-0.372,0.712-0.785
		l-1.61-32.801c-0.021-0.414-0.372-0.732-0.786-0.712C41.517,198.198,41.198,198.549,41.219,198.963"/>
	<path fill="#000000" d="M46.438,200.342l1.344,32.751c0.017,0.414,0.366,0.735,0.779,0.719c0.414-0.017,0.736-0.366,0.719-0.78
		l-1.344-32.751c-0.017-0.414-0.366-0.735-0.78-0.719C46.743,199.579,46.421,199.928,46.438,200.342"/>
	<path fill="#000000" d="M52.546,201.614l0.799,32.403c0.011,0.414,0.354,0.741,0.769,0.731s0.741-0.354,0.731-0.769l-0.799-32.403
		c-0.011-0.414-0.354-0.742-0.769-0.731S52.536,201.2,52.546,201.614"/>
	<path fill="#000000" d="M59.229,203.1l0.383,32.201c0.005,0.414,0.345,0.746,0.759,0.74c0.414-0.004,0.746-0.344,0.741-0.758
		l-0.383-32.201c-0.005-0.414-0.345-0.746-0.759-0.741S59.224,202.686,59.229,203.1"/>
	<path fill="#000000" d="M68.691,236.202l-0.609-32.33c-0.008-0.414-0.35-0.744-0.764-0.736c-0.415,0.008-0.744,0.351-0.736,0.765
		l0.609,32.331c0.008,0.414,0.35,0.743,0.764,0.735S68.699,236.616,68.691,236.202"/>
	<path fill="#000000" d="M74.656,204.989l0.236,32.035c0.003,0.414,0.342,0.748,0.756,0.744c0.414-0.002,0.747-0.341,0.744-0.755
		l-0.236-32.035c-0.003-0.415-0.342-0.747-0.756-0.745C74.986,204.237,74.653,204.575,74.656,204.989"/>
	<path fill="#000000" d="M83.114,205.579l-0.027,32.096c0,0.414,0.335,0.75,0.749,0.75c0.414,0.001,0.751-0.334,0.751-0.749
		l0.027-32.097c0-0.414-0.335-0.75-0.749-0.75C83.45,204.829,83.114,205.164,83.114,205.579"/>
	<path fill="#000000" d="M91.706,205.885l0.021,32.559c0,0.414,0.336,0.75,0.75,0.75c0.415-0.001,0.75-0.337,0.75-0.751
		l-0.021-32.56c0-0.414-0.336-0.75-0.751-0.749C92.041,205.135,91.706,205.471,91.706,205.885"/>
	<path fill="#000000" d="M99.93,205.934l0.012,32.797c0,0.415,0.336,0.75,0.75,0.75s0.75-0.336,0.75-0.75l-0.012-32.798
		c0-0.414-0.336-0.749-0.75-0.749S99.93,205.52,99.93,205.934"/>
	<path fill="#000000" d="M109.001,205.868l-0.498,32.754c-0.006,0.414,0.324,0.755,0.738,0.762c0.414,0.006,0.754-0.324,0.762-0.739
		l0.498-32.755c0.006-0.414-0.324-0.754-0.738-0.761S109.007,205.453,109.001,205.868"/>
	<path fill="#000000" d="M118.062,205.848l-1.297,32.455c-0.018,0.414,0.305,0.763,0.719,0.779s0.762-0.306,0.779-0.72l1.297-32.454
		c0.016-0.414-0.307-0.764-0.719-0.779C118.427,205.112,118.077,205.434,118.062,205.848"/>
	<path fill="#000000" d="M126.224,204.954l-1.295,33.053c-0.016,0.414,0.307,0.763,0.721,0.779c0.414,0.016,0.762-0.307,0.777-0.721
		l1.295-33.053c0.018-0.414-0.305-0.762-0.719-0.778S126.24,204.54,126.224,204.954"/>
	<path fill="#000000" d="M134.288,204.05l-1.594,33.052c-0.02,0.414,0.299,0.766,0.713,0.785c0.414,0.021,0.766-0.299,0.785-0.713
		l1.594-33.052c0.02-0.413-0.299-0.765-0.713-0.785S134.308,203.637,134.288,204.05"/>
	<path fill="#000000" d="M142.353,202.745l-2.189,33.35c-0.027,0.414,0.285,0.771,0.699,0.798c0.412,0.026,0.77-0.286,0.797-0.699
		l2.189-33.351c0.027-0.413-0.287-0.77-0.699-0.797C142.736,202.018,142.378,202.331,142.353,202.745"/>
	<path fill="#000000" d="M148.823,201.252l-2.092,33.45c-0.025,0.413,0.289,0.77,0.703,0.796c0.412,0.025,0.77-0.289,0.795-0.702
		l2.09-33.45c0.027-0.414-0.287-0.77-0.701-0.795C149.206,200.525,148.849,200.838,148.823,201.252"/>
	<path fill="#000000" d="M155.097,199.75l-2.59,34.045c-0.031,0.413,0.277,0.773,0.691,0.805c0.412,0.031,0.773-0.277,0.805-0.691
		l2.59-34.045c0.031-0.412-0.279-0.773-0.691-0.805C155.488,199.028,155.128,199.337,155.097,199.75"/>
	<path fill="#000000" d="M160.171,198.057l-2.588,34.048c-0.031,0.413,0.279,0.772,0.691,0.805c0.414,0.031,0.773-0.278,0.805-0.691
		l2.588-34.048c0.031-0.412-0.277-0.772-0.691-0.805C160.564,197.334,160.202,197.645,160.171,198.057"/>
	<path fill="#000000" d="M164.353,196.574l-2.09,33.851c-0.025,0.413,0.289,0.77,0.703,0.795c0.412,0.025,0.768-0.289,0.793-0.703
		l2.092-33.85c0.025-0.414-0.289-0.77-0.703-0.795C164.736,195.846,164.38,196.161,164.353,196.574"/>
	<path fill="#000000" d="M170.527,193.877l-2.49,33.063v0.009l0.248,0.012l-0.248-0.021v0.01l0.248,0.012l-0.248-0.021
		c0.002,0.02-0.041,0.322-0.207,0.547c-0.082,0.115-0.184,0.218-0.348,0.303c-0.162,0.083-0.395,0.153-0.758,0.154
		c-0.154,0-0.332-0.014-0.535-0.045c-0.408-0.064-0.793,0.215-0.857,0.623c-0.064,0.41,0.215,0.793,0.625,0.857
		c0.271,0.043,0.527,0.064,0.768,0.064c0.602,0,1.115-0.134,1.523-0.363c0.617-0.344,0.945-0.871,1.105-1.279
		c0.16-0.412,0.178-0.727,0.182-0.78l-0.75-0.036l0.748,0.057l2.49-33.053c0.031-0.412-0.279-0.772-0.691-0.804
		C170.917,193.155,170.558,193.463,170.527,193.877z"/>
</g>
</svg>
