<?xml version="1.0" encoding="UTF-8" standalone="no"?>
<!DOCTYPE svg PUBLIC "-//W3C//DTD SVG 1.1//EN" "http://www.w3.org/Graphics/SVG/1.1/DTD/svg11.dtd">
<svg width="100%" height="100%" viewBox="0 0 168 300" version="1.1" xmlns="http://www.w3.org/2000/svg" xmlns:xlink="http://www.w3.org/1999/xlink" xml:space="preserve" xmlns:serif="http://www.serif.com/" style="fill-rule:evenodd;clip-rule:evenodd;stroke-linejoin:round;stroke-miterlimit:2;">
    <path d="M26.981,20.143C25.917,20.217 23.957,20.354 23.815,20.366C20.569,20.629 19.808,20.682 17.493,20.845C17.493,20.845 15.602,20.856 12.517,21.418C7.817,22.275 8.914,31.939 9.112,33.457C12.885,62.353 19.25,118.423 20.903,119.137C22,119.612 23.209,119.107 23.132,118.149C22.174,106.29 13.758,33.414 14.536,29.933C15.049,27.637 18.5,27.249 19.723,27.218C24.193,27.104 25.591,30.19 26.509,33.012L39.77,273.738C39.363,280.465 83.489,282.101 88.768,281.996C101.735,281.74 136.258,282.463 137.153,274.576L159.191,24.782C159.191,24.782 160.325,22.987 152.013,21.588C143.701,20.188 125.943,19.185 90.604,18.483C90.604,18.483 46.112,18.537 27.833,19.826C27.495,19.849 27.214,19.966 26.981,20.143Z" style="fill:url(#_Linear1);fill-rule:nonzero;"/>
    <defs>
        <linearGradient id="_Linear1" x1="0" y1="0" x2="1" y2="0" gradientUnits="userSpaceOnUse" gradientTransform="matrix(182.251,-182.251,182.251,182.251,9.5588,309.648)"><stop offset="0" style="stop-color:rgb(0,255,19);stop-opacity:0.65"/><stop offset="0.25" style="stop-color:rgb(246,255,23);stop-opacity:0.65"/><stop offset="0.29" style="stop-color:rgb(246,251,26);stop-opacity:0.65"/><stop offset="0.33" style="stop-color:rgb(247,239,36);stop-opacity:0.65"/><stop offset="0.37" style="stop-color:rgb(247,219,52);stop-opacity:0.65"/><stop offset="0.41" style="stop-color:rgb(248,191,75);stop-opacity:0.65"/><stop offset="0.46" style="stop-color:rgb(250,154,105);stop-opacity:0.65"/><stop offset="0.5" style="stop-color:rgb(251,110,141);stop-opacity:0.65"/><stop offset="0.54" style="stop-color:rgb(253,58,183);stop-opacity:0.65"/><stop offset="0.58" style="stop-color:rgb(255,0,231);stop-opacity:0.65"/><stop offset="0.91" style="stop-color:rgb(0,247,255);stop-opacity:0.65"/><stop offset="1" style="stop-color:rgb(0,247,255);stop-opacity:0.65"/></linearGradient>
    </defs>
</svg>
