<?xml version="1.0" encoding="UTF-8" standalone="no"?>
<!DOCTYPE svg PUBLIC "-//W3C//DTD SVG 1.1//EN" "http://www.w3.org/Graphics/SVG/1.1/DTD/svg11.dtd">
<svg width="100%" height="100%" viewBox="0 0 700 1250" version="1.1" xmlns="http://www.w3.org/2000/svg" xmlns:xlink="http://www.w3.org/1999/xlink" xml:space="preserve" xmlns:serif="http://www.serif.com/" style="fill-rule:evenodd;clip-rule:evenodd;stroke-linejoin:round;stroke-miterlimit:2;">
    <g transform="matrix(4.16667,0,0,4.16667,0,0)">
        <path d="M26.981,20.143C25.917,20.217 23.957,20.354 23.815,20.366C20.569,20.629 19.808,20.682 17.493,20.845C17.493,20.845 15.602,20.856 12.517,21.418C7.817,22.275 8.914,31.939 9.112,33.457C12.885,62.353 19.25,118.423 20.903,119.137C22,119.612 23.209,119.107 23.132,118.149C22.174,106.29 13.758,33.414 14.536,29.933C15.049,27.637 18.5,27.249 19.723,27.218C24.193,27.104 25.591,30.19 26.509,33.012L39.77,273.738C39.363,280.465 83.489,282.101 88.768,281.996C101.735,281.74 136.258,282.463 137.153,274.576L159.191,24.782C159.191,24.782 160.325,22.987 152.013,21.588C143.701,20.188 125.943,19.185 90.604,18.483C90.604,18.483 46.112,18.537 27.833,19.826C27.495,19.849 27.214,19.966 26.981,20.143Z" style="fill:white;fill-rule:nonzero;"/>
        <g transform="matrix(2.86678e-17,0.468181,-0.477629,2.92463e-17,98.8988,67.3826)">
            <path d="M280.464,0.798L267.332,19.733L285.134,41.12L272.553,41.12L256.594,22.215L256.594,41.12L246.545,41.12L246.545,0.798L256.594,0.798L256.594,18.955L269.401,0.798L280.464,0.798" style="fill-rule:nonzero;"/>
            <path d="M243.532,28.826L243.532,37.624C238.498,40.303 233.217,41.643 227.691,41.643C220.538,41.643 214.834,39.664 210.587,35.713C206.351,31.752 204.223,26.885 204.223,21.093C204.223,15.3 206.459,10.384 210.932,6.345C215.415,2.306 221.256,0.277 228.468,0.277C234.221,0.277 239.088,1.469 243.078,3.833L243.078,12.808C238.192,10.059 233.56,8.68 229.186,8.68C224.902,8.68 221.393,9.832 218.674,12.128C215.946,14.433 214.586,17.359 214.586,20.915C214.586,24.491 215.926,27.447 218.615,29.782C221.295,32.106 224.733,33.268 228.929,33.268C231.008,33.268 233.007,32.993 234.928,32.451C236.863,31.9 239.729,30.688 243.532,28.826" style="fill-rule:nonzero;"/>
            <path d="M186.382,10.443C180.503,26.032 179.773,27.933 174.817,41.121L164.168,41.121L180.412,0.798L192.077,0.798L209.967,41.121L199.17,41.121C192.114,24.183 194.29,29.508 186.382,10.443" style="fill-rule:nonzero;"/>
            <path d="M164.365,0.798L164.365,41.12L155.902,41.12L133.618,15.29L133.618,41.12L123.579,41.12L123.579,0.798L132.781,0.798L154.316,25.446L154.316,0.798L164.365,0.798" style="fill-rule:nonzero;"/>
            <path d="M119.797,0.798L106.665,19.733L124.467,41.12L111.886,41.12L95.927,22.215L95.927,41.12L85.878,41.12L85.878,0.798L95.927,0.798L95.927,18.955L108.734,0.798L119.797,0.798" style="fill-rule:nonzero;"/>
            <path d="M82.865,28.826L82.865,37.624C77.831,40.303 72.55,41.643 67.024,41.643C59.871,41.643 54.167,39.664 49.921,35.713C45.685,31.752 43.557,26.885 43.557,21.093C43.557,15.3 45.793,10.384 50.266,6.345C54.749,2.306 60.59,0.277 67.802,0.277C73.555,0.277 78.422,1.469 82.412,3.833L82.412,12.808C77.526,10.059 72.895,8.68 68.521,8.68C64.236,8.68 60.728,9.832 58.009,12.128C55.281,14.433 53.921,17.359 53.921,20.915C53.921,24.491 55.261,27.447 57.951,29.782C60.63,32.106 64.068,33.268 68.265,33.268C70.344,33.268 72.343,32.993 74.265,32.451C76.196,31.9 79.062,30.688 82.865,28.826" style="fill-rule:nonzero;"/>
            <rect x="30.879" y="0.799" width="10.048" height="10.048" style="fill:rgb(226,0,122);"/>
            <rect x="182.042" y="31.072" width="10.048" height="10.048" style="fill:rgb(226,0,122);"/>
            <path d="M40.928,15.87L40.928,41.12L32.465,41.12L10.181,15.29L10.181,41.12L0.142,41.12L0.142,0.798L9.344,0.798L30.879,25.446L30.879,15.87L40.928,15.87" style="fill-rule:nonzero;"/>
            <path d="M280.464,0.798L267.332,19.733L285.134,41.12L272.553,41.12L256.594,22.215L256.594,41.12L246.545,41.12L246.545,0.798L256.594,0.798L256.594,18.955L269.401,0.798L280.464,0.798" style="fill-rule:nonzero;"/>
            <path d="M243.532,28.826L243.532,37.624C238.498,40.303 233.217,41.643 227.691,41.643C220.538,41.643 214.834,39.664 210.587,35.713C206.351,31.752 204.223,26.885 204.223,21.093C204.223,15.3 206.459,10.384 210.932,6.345C215.415,2.306 221.256,0.277 228.468,0.277C234.221,0.277 239.088,1.469 243.078,3.833L243.078,12.808C238.192,10.059 233.56,8.68 229.186,8.68C224.902,8.68 221.393,9.832 218.674,12.128C215.946,14.433 214.586,17.359 214.586,20.915C214.586,24.491 215.926,27.447 218.615,29.782C221.295,32.106 224.733,33.268 228.929,33.268C231.008,33.268 233.007,32.993 234.928,32.451C236.863,31.9 239.729,30.688 243.532,28.826" style="fill-rule:nonzero;"/>
            <path d="M186.382,10.443C180.503,26.032 179.773,27.933 174.817,41.121L164.168,41.121L180.412,0.798L192.077,0.798L209.967,41.121L199.17,41.121C192.114,24.183 194.29,29.508 186.382,10.443" style="fill-rule:nonzero;"/>
            <path d="M164.365,0.798L164.365,41.12L155.902,41.12L133.618,15.29L133.618,41.12L123.579,41.12L123.579,0.798L132.781,0.798L154.316,25.446L154.316,0.798L164.365,0.798" style="fill-rule:nonzero;"/>
            <path d="M119.797,0.798L106.665,19.733L124.467,41.12L111.886,41.12L95.927,22.215L95.927,41.12L85.878,41.12L85.878,0.798L95.927,0.798L95.927,18.955L108.734,0.798L119.797,0.798" style="fill-rule:nonzero;"/>
            <path d="M82.865,28.826L82.865,37.624C77.831,40.303 72.55,41.643 67.024,41.643C59.871,41.643 54.167,39.664 49.921,35.713C45.685,31.752 43.557,26.885 43.557,21.093C43.557,15.3 45.793,10.384 50.266,6.345C54.749,2.306 60.59,0.277 67.802,0.277C73.555,0.277 78.422,1.469 82.412,3.833L82.412,12.808C77.526,10.059 72.895,8.68 68.521,8.68C64.236,8.68 60.728,9.832 58.009,12.128C55.281,14.433 53.921,17.359 53.921,20.915C53.921,24.491 55.261,27.447 57.951,29.782C60.63,32.106 64.068,33.268 68.265,33.268C70.344,33.268 72.343,32.993 74.265,32.451C76.196,31.9 79.062,30.688 82.865,28.826" style="fill-rule:nonzero;"/>
            <rect x="30.879" y="0.799" width="10.048" height="10.048" style="fill:rgb(226,0,122);"/>
            <rect x="182.042" y="31.072" width="10.048" height="10.048" style="fill:rgb(226,0,122);"/>
            <path d="M40.928,15.87L40.928,41.12L32.465,41.12L10.181,15.29L10.181,41.12L0.142,41.12L0.142,0.798L9.344,0.798L30.879,25.446L30.879,15.87L40.928,15.87" style="fill-rule:nonzero;"/>
        </g>
    </g>
</svg>
