<?xml version="1.0" encoding="utf-8"?>
<!-- Generator: Adobe Illustrator 23.0.3, SVG Export Plug-In . SVG Version: 6.00 Build 0)  -->
<svg version="1.1" id="Vrstva_1" xmlns="http://www.w3.org/2000/svg" xmlns:xlink="http://www.w3.org/1999/xlink" x="0px" y="0px"
	 viewBox="0 0 168 300" style="enable-background:new 0 0 168 300;" xml:space="preserve">
<title>4</title>
<path d="M151.3,17.9c-4-1.6-11.8-3.9-16.8-5.3c-8.3-1.5-16.1-2.1-19.3-2.6c-0.9-0.1-2.7-0.2-5.1-0.3C110,9.3,109.9,9,109.8,9
	c-0.2-0.1-6-0.4-6.2-0.3c-0.1,0-0.4,0.5-0.6,0.9c-11-0.1-27,0-38.8,0.2c-0.2-0.5-0.6-1.1-0.7-1.1c-0.1-0.1-6,0.2-6.2,0.3
	c-0.1,0-0.2,0.5-0.3,1c-0.6,0-1.1,0-1.6,0.1c-8.9,0.3-18.6,1.9-25.5,3.3c-13.5,3.3-21.8,8-21.8,13.1c0,0.3,0,0.7,0.1,1l6,53.3
	l0.6,5.5l0.9,8.3l0.4,3.3l0.9,7.5l0.5,4.7l0.9,8.1l0.5,4.8l4.1,36.2l0.4,3.2l5.3,46.5l0.8,7.4l2.3,20.8l0.3,3l2,17.7l0.5,4.7
	l0.4,3.9c0,0.6,0.1,1.3,0.2,1.9c0.3,1.6,0.8,3.2,1.7,4.6c5.8,10,24.6,17.3,46.8,17.3c26.8,0,48.6-10.6,48.6-23.7l0.3-2.9l0.8-7.4
	l1-9.4l0.3-3.1l1-8.6l0.7-6.1l0.7-6.5l0.4-3.7l5.7-50.3l0.5-4.4l1-9.2l1.2-11l0.6-5.7l0.3-2.9l0.4-3.6l0.6-5l1.4-12.8l1.1-9.9
	l8.6-76.4c0.1-0.3,0.1-0.7,0.1-1C159.4,23.3,156.7,20.1,151.3,17.9z"/>
</svg>
