<?xml version="1.0" encoding="utf-8"?>
<!-- Generator: Adobe Illustrator 14.0.0, SVG Export Plug-In . SVG Version: 6.00 Build 43363)  -->
<!DOCTYPE svg PUBLIC "-//W3C//DTD SVG 1.1//EN" "http://www.w3.org/Graphics/SVG/1.1/DTD/svg11.dtd">
<svg version="1.1" id="Vrstva_1" xmlns="http://www.w3.org/2000/svg" xmlns:xlink="http://www.w3.org/1999/xlink" x="0px" y="0px"
	 width="201.362px" height="371.013px" viewBox="0 0 201.362 371.013" enable-background="new 0 0 201.362 371.013"
	 xml:space="preserve">
<g>
	<g>
		<path fill="#FFFFFF" d="M147.129,188.659c-0.178,0-0.353-0.004-0.523-0.014c-8.743-0.037-11.499-7.943-14.994-20.945
			c-2.867-10.669-13.695-65.734-18.319-89.248c-0.647-3.29-1.154-5.87-1.477-7.496c-1.654-8.35-4.935-15.275-6.742-18.661
			c-0.256-0.48-0.39-1.016-0.39-1.551v-1.812c-1.325,0.012-2.662,0.019-4.002,0.019c-55.849,0-99.597-10.689-99.597-24.334
			c0-13.646,43.748-24.334,99.597-24.334c55.848,0,99.596,10.688,99.596,24.334c0,5.899-8.182,11.247-21.98,15.417
			c4.814,3.697,6.46,9.234,5.641,18.506c-0.921,10.449-19.107,97.327-22.062,108.851c-2.78,10.841-5.937,20.622-13.922,21.236
			C147.672,188.648,147.396,188.659,147.129,188.659L147.129,188.659z M108.199,48.886c1.665,2.807,6.059,10.9,8.12,21.308
			l1.307,6.627c4.387,22.271,16.039,81.43,18.932,92.191c3.49,12.985,5.482,18.21,11.256,17.789
			c6.138-0.473,9.153-7.642,12.287-19.865c3.183-12.414,21.176-99.061,22.013-108.557c0.828-9.374-0.878-14.381-6.072-17.688
			c-2.366,0.664-4.883,1.297-7.534,1.893c4.836,3.306,6.977,9.413,4.003,25.179c-2.602,13.799-6.86,35.995-9.969,52.202
			c-1.578,8.224-2.86,14.91-3.482,18.184c-1.732,9.113-4.157,12.783-8.948,13.54c-3.03,0.478-10.266,0.494-12.063-9.681
			c-1.503-8.499-11.645-66.338-12.807-73.068c-1.182-6.845-3.979-16.234-6.873-20.355C115.037,48.725,111.644,48.825,108.199,48.886
			L108.199,48.886z M106.516,49.648v1.096c0,0.24,0.059,0.472,0.174,0.689c1.855,3.474,5.223,10.584,6.923,19.166
			c0.322,1.627,0.83,4.208,1.478,7.499c4.223,21.474,15.439,78.518,18.291,89.126c1.957,7.28,3.584,12.456,5.839,15.651
			c-1.631-3.24-2.921-7.768-4.432-13.389c-2.908-10.821-14.569-70.025-18.959-92.312l-1.307-6.625
			C112.492,60.301,108.014,52.169,106.516,49.648L106.516,49.648z M165.719,43.188v0.599c0,0.373,0.194,0.723,0.521,0.936
			c4.884,3.195,5.782,9.767,3.206,23.438c-2.927,15.521-8.072,42.53-11.263,59.28l-2.557,13.44c-0.6,3.242-1.254,6.776-4.579,8.709
			c2.705-0.898,4.651-3.573,6.212-11.782c0.622-3.274,1.904-9.962,3.482-18.187c3.109-16.206,7.367-38.4,9.968-52.197
			c3.124-16.563,0.608-21.515-4.845-24.266C165.814,43.168,165.769,43.178,165.719,43.188L165.719,43.188z M120.489,48.489
			c3.143,5.185,5.609,14.652,6.556,20.139c1.162,6.729,11.303,64.562,12.807,73.062c0.767,4.342,2.625,6.517,4.665,7.533
			c7.717-0.071,8.42-3.877,9.308-8.676l2.559-13.45c3.19-16.749,8.335-43.757,11.262-59.276c2.784-14.769,1.051-19.302-2.408-21.565
			c-0.845-0.553-1.35-1.476-1.35-2.469V43.56C151.606,45.993,136.823,47.714,120.489,48.489L120.489,48.489z M100.682,2.115
			c-52.994,0-97.765,10.305-97.765,22.502s44.771,22.502,97.765,22.502c52.993,0,97.764-10.305,97.764-22.502
			S153.675,2.115,100.682,2.115L100.682,2.115z M100.682,45.92c-47.357,0-96.342-7.969-96.342-21.303
			c0-13.335,48.984-21.304,96.342-21.304c47.356,0,96.341,7.969,96.341,21.304C197.022,37.951,148.038,45.92,100.682,45.92
			L100.682,45.92z M100.682,5.146c-56.533,0-94.51,10.068-94.51,19.472c0,9.402,37.977,19.471,94.51,19.471
			S195.19,34.02,195.19,24.617C195.19,15.214,157.215,5.146,100.682,5.146L100.682,5.146z"/>
	</g>
	<g>
		<path fill="#FFFFFF" d="M100.682,370.729c-35.227,0-63.893-13.97-63.952-31.151L1.091,24.72l1.82-0.206l35.65,314.96v0.052
			c0,16.196,27.867,29.372,62.12,29.372s62.12-13.176,62.12-29.372l0.006-0.103l35.644-314.909l1.82,0.206l-35.638,314.858
			C164.574,356.76,135.908,370.729,100.682,370.729L100.682,370.729z"/>
	</g>
</g>
</svg>
