<?xml version="1.0" encoding="utf-8"?>
<!-- Generator: Adobe Illustrator 14.0.0, SVG Export Plug-In . SVG Version: 6.00 Build 43363)  -->
<!DOCTYPE svg PUBLIC "-//W3C//DTD SVG 1.1//EN" "http://www.w3.org/Graphics/SVG/1.1/DTD/svg11.dtd">
<svg version="1.1" id="Vrstva_1" xmlns="http://www.w3.org/2000/svg" xmlns:xlink="http://www.w3.org/1999/xlink" x="0px" y="0px"
	 width="201.362px" height="371.013px" viewBox="0 0 201.362 371.013" enable-background="new 0 0 201.362 371.013"
	 xml:space="preserve">
<g>
	<g>
		<g>
			<path fill="#FFFFFF" d="M100.682,370.013c-26.357,0-47.808-10.54-47.87-23.507L26.428,112.951
				c-0.079-0.368-0.119-0.74-0.119-1.118c0-11.547,37.814-18.447,74.373-18.447c36.558,0,74.372,6.9,74.372,18.447
				c0,0.378-0.041,0.75-0.12,1.118l-26.383,233.555C148.487,359.473,127.038,370.013,100.682,370.013L100.682,370.013z
				 M100.682,324.883c-25.293,0-45.87,9.674-45.87,21.565c0,11.891,20.577,21.564,45.87,21.564c25.292,0,45.869-9.674,45.869-21.564
				C146.551,334.557,125.974,324.883,100.682,324.883L100.682,324.883z M28.882,116.853l25.302,223.982
				c5.128-10.293,24.03-17.952,46.498-17.952c22.467,0,41.369,7.659,46.497,17.952l25.302-223.982
				c-2.696,2.517-7.382,4.72-13.445,6.575c3.331,2.819,4.462,6.964,3.869,13.707c-0.689,7.815-14.219,72.57-16.415,81.147
				c-2.097,8.192-4.487,15.584-10.635,16.059c-0.354,0.027-0.694,0.032-1.02,0.015c-7.224-0.026-9.189-7.356-11.464-15.841
				c-2.143-7.986-10.215-49.121-13.661-66.687l-1.063-5.41c-1.22-6.174-3.645-11.305-4.981-13.814
				c-0.214-0.401-0.327-0.853-0.327-1.305v-1.03c-0.887,0.008-1.771,0.012-2.656,0.012C69.781,130.28,37.985,125.351,28.882,116.853
				L28.882,116.853z M106.815,130.216c1.401,2.448,4.365,8.226,5.806,15.512l0.937,4.756c3.269,16.63,11.951,60.808,14.107,68.843
				c2.546,9.495,3.972,13.327,8.035,13.019c4.373-0.337,6.558-5.594,8.852-14.561c2.363-9.232,15.735-73.739,16.36-80.827
				c0.598-6.795-0.607-10.439-4.288-12.831c-1.533,0.422-3.14,0.824-4.812,1.205c3.335,2.606,4.727,7.35,2.59,18.702
				c-1.947,10.349-5.142,27.031-7.458,39.131c-1.152,6.017-2.088,10.901-2.544,13.309c-1.318,6.949-3.192,9.752-6.915,10.342
				c-1.826,0.288-7.91,0.606-9.335-7.47c-1.203-6.819-8.669-49.484-9.521-54.44c-0.862-5-2.88-11.825-4.974-14.914
				C111.385,130.094,109.102,130.168,106.815,130.216L106.815,130.216z M109.087,140.24c0.587,1.791,1.115,3.732,1.521,5.79
				l1.064,5.413c2.956,15.067,10.514,53.583,13.179,64.752c-3.05-13.393-10.326-50.416-13.257-65.325l-0.936-4.754
				C110.244,144.018,109.692,142.041,109.087,140.24L109.087,140.24z M115.933,129.884c2.239,3.979,3.982,10.72,4.666,14.684
				c0.853,4.955,8.317,47.613,9.521,54.432c0.53,3.008,1.757,4.592,3.192,5.349c5.438-0.062,5.914-2.648,6.57-6.205l1.77-9.326
				c2.36-12.415,6.289-33.077,8.505-44.856c2.039-10.83,0.814-14.125-1.652-15.742c-0.674-0.441-1.093-1.162-1.142-1.95
				C138.084,128.07,127.214,129.298,115.933,129.884L115.933,129.884z M149.357,126.113v0.001c0,0.171,0.091,0.333,0.243,0.432
				c3.76,2.465,4.467,7.452,2.521,17.786c-2.216,11.781-6.145,32.444-8.506,44.86l-1.768,9.314
				c-0.047,0.252-0.094,0.509-0.145,0.768c0.254-0.899,0.498-1.948,0.73-3.172c0.456-2.408,1.392-7.293,2.544-13.312
				c2.317-12.098,5.511-28.778,7.457-39.125C154.861,130.777,152.47,127.783,149.357,126.113L149.357,126.113z M55.445,124.583
				c11.973,2.253,27.397,3.697,45.236,3.697c17.838,0,33.263-1.444,45.235-3.697c-13.072,2.266-29.381,3.438-45.235,3.438
				S68.519,126.849,55.445,124.583L55.445,124.583z M100.682,97.644c-41.225,0-69.953,7.478-69.953,14.189
				c0,6.711,28.729,14.188,69.953,14.188c41.224,0,69.952-7.478,69.952-14.188C170.634,105.122,141.905,97.644,100.682,97.644
				L100.682,97.644z M170.836,107.975c1.169,1.202,1.798,2.49,1.798,3.858c0,1.369-0.629,2.657-1.799,3.859
				c1.158-1.013,1.876-2.041,2.122-3.064l0.096-0.848C173.032,110.513,172.273,109.233,170.836,107.975L170.836,107.975z
				 M28.404,112.628c0.247,1.024,0.964,2.051,2.123,3.064c-1.17-1.203-1.799-2.49-1.799-3.859c0-1.368,0.628-2.655,1.797-3.858
				c-1.438,1.258-2.196,2.538-2.217,3.805L28.404,112.628L28.404,112.628z M100.682,95.644c15.833,0,32.117,1.169,45.181,3.429
				c-11.965-2.248-27.369-3.687-45.181-3.687c-17.812,0-33.217,1.439-45.182,3.687C68.563,96.812,84.849,95.644,100.682,95.644
				L100.682,95.644z"/>
		</g>
	</g>
</g>
</svg>
