<?xml version="1.0" encoding="utf-8"?>
<!-- Generator: Adobe Illustrator 14.0.0, SVG Export Plug-In . SVG Version: 6.00 Build 43363)  -->
<!DOCTYPE svg PUBLIC "-//W3C//DTD SVG 1.1//EN" "http://www.w3.org/Graphics/SVG/1.1/DTD/svg11.dtd" [
	<!ENTITY ns_flows "http://ns.adobe.com/Flows/1.0/">
	<!ENTITY ns_extend "http://ns.adobe.com/Extensibility/1.0/">
	<!ENTITY ns_ai "http://ns.adobe.com/AdobeIllustrator/10.0/">
	<!ENTITY ns_graphs "http://ns.adobe.com/Graphs/1.0/">
]>
<svg version="1.1" id="Vrstva_1" xmlns:x="&ns_extend;" xmlns:i="&ns_ai;" xmlns:graph="&ns_graphs;"
	 xmlns="http://www.w3.org/2000/svg" xmlns:xlink="http://www.w3.org/1999/xlink" xmlns:a="http://ns.adobe.com/AdobeSVGViewerExtensions/3.0/"
	 x="0px" y="0px" width="201.361px" height="223.006px" viewBox="0 0 201.361 223.006" enable-background="new 0 0 201.361 223.006"
	 xml:space="preserve">
<g>
	<linearGradient id="SVGID_1_" gradientUnits="userSpaceOnUse" x1="31.9949" y1="190.3428" x2="170.7776" y2="51.56">
		<stop  offset="0" style="stop-color:#00FF13"/>
		<stop  offset="0.2454" style="stop-color:#F6FF17"/>
		<stop  offset="0.2877" style="stop-color:#F6FB1A"/>
		<stop  offset="0.3301" style="stop-color:#F7EF24"/>
		<stop  offset="0.3725" style="stop-color:#F7DB34"/>
		<stop  offset="0.4149" style="stop-color:#F8BF4B"/>
		<stop  offset="0.4574" style="stop-color:#FA9A69"/>
		<stop  offset="0.5" style="stop-color:#FB6E8D"/>
		<stop  offset="0.5418" style="stop-color:#FD3AB7"/>
		<stop  offset="0.5828" style="stop-color:#FF00E7"/>
		<stop  offset="0.908" style="stop-color:#00F7FF"/>
		<a:midPointStop  offset="0" style="stop-color:#00FF13"/>
		<a:midPointStop  offset="0.5" style="stop-color:#00FF13"/>
		<a:midPointStop  offset="0.2454" style="stop-color:#F6FF17"/>
		<a:midPointStop  offset="0.7073" style="stop-color:#F6FF17"/>
		<a:midPointStop  offset="0.5828" style="stop-color:#FF00E7"/>
		<a:midPointStop  offset="0.5" style="stop-color:#FF00E7"/>
		<a:midPointStop  offset="0.908" style="stop-color:#00F7FF"/>
	</linearGradient>
	<path fill="url(#SVGID_1_)" fill-opacity="0.65" d="M166.894,54.148l-0.436,0.816c-21.668,8.616-62.688,8.498-62.688,8.498
		c-44.75,2.25-72.058-10.66-72.058-10.66l1.455,31.957l2.924,1.672L51.137,209.19c7.135,11.292,48.975,11.935,48.975,11.935
		c40.919-0.176,49.583-10.675,49.583-10.675l14.428-115.687l1.729-7.88l2.822-1.008l2.526-33.894L166.894,54.148z"/>
	<g>
		<path fill="#000000" d="M51.137,209.19c0.116,1.004,0.636,1.93,1.422,2.768c1.382,1.47,3.61,2.759,6.561,3.933
			c8.835,3.502,24.228,5.884,41.956,5.89c13.503-0.002,25.729-1.338,34.628-3.515c4.451-1.092,8.07-2.387,10.639-3.871
			c1.281-0.741,2.309-1.532,3.037-2.405c0.729-0.867,1.166-1.847,1.164-2.883h-1.5c0,0.608-0.242,1.235-0.812,1.922
			c-0.99,1.194-2.98,2.446-5.771,3.563c-4.182,1.687-10.139,3.116-17.236,4.114c-7.104,0.998-15.352,1.572-24.146,1.572
			c-13.398,0-25.467-1.386-34.228-3.552c-4.378-1.079-7.934-2.358-10.386-3.727c-1.227-0.683-2.174-1.386-2.811-2.066
			c-0.64-0.686-0.958-1.327-1.026-1.918L51.137,209.19z"/>
		<path fill="#000000" d="M150.538,209.805L166.481,88.6l-0.742-0.098l0.707,0.246c0.008-0.025,0.201-0.564,0.289-1.193l0.002-0.022
			l2.494-33.873c0.029-0.412-0.281-0.771-0.693-0.803c-0.414-0.03-0.771,0.278-0.803,0.692l-2.492,33.849l0.748,0.056l-0.742-0.104
			c-0.027,0.22-0.086,0.453-0.135,0.629l-0.061,0.209l-0.021,0.056l-0.004,0.015l-0.025,0.071L149.05,209.61
			c-0.055,0.409,0.234,0.787,0.646,0.84C150.107,210.506,150.484,210.217,150.538,209.805L150.538,209.805z"/>
		<path fill="#000000" d="M173.237,34.662c1.396,1.021,2.404,2.557,3.053,4.153c0.648,1.593,0.934,3.247,0.932,4.411
			c0,1.258-0.465,2.506-1.418,3.777c-1.668,2.225-4.871,4.434-9.328,6.418c-6.684,2.986-16.154,5.506-27.439,7.268
			s-24.387,2.771-38.356,2.771c-21.289,0-40.563-2.346-54.459-6.118c-6.946-1.886-12.55-4.132-16.355-6.578
			c-1.903-1.222-3.354-2.489-4.31-3.758c-0.956-1.272-1.418-2.521-1.419-3.777c-0.001-1.118,0.167-2.826,0.648-4.467
			c0.479-1.646,1.282-3.205,2.44-4.115l-0.934-1.176c-1.525,1.219-2.412,3.056-2.946,4.869c-0.533,1.816-0.71,3.631-0.711,4.889
			c-0.002,1.64,0.616,3.22,1.722,4.681c1.936,2.558,5.33,4.832,9.911,6.886c6.874,3.067,16.442,5.603,27.817,7.379
			c11.374,1.774,24.548,2.789,38.593,2.789c21.399-0.002,40.772-2.353,54.852-6.172c7.041-1.914,12.758-4.188,16.773-6.765
			c2.006-1.289,3.592-2.654,4.695-4.117c1.104-1.461,1.725-3.041,1.723-4.681c-0.002-1.394-0.318-3.191-1.041-4.978
			c-0.727-1.78-1.861-3.554-3.557-4.799L173.237,34.662z"/>
		<path fill="#000000" d="M173.681,34.059h-0.75c0,0.896-0.4,1.817-1.295,2.801c-1.561,1.714-4.611,3.453-8.852,5.004
			c-6.355,2.338-15.369,4.309-26.1,5.686c-10.732,1.379-23.189,2.168-36.474,2.168c-20.235,0.002-38.562-1.834-51.775-4.787
			c-6.605-1.474-11.938-3.232-15.558-5.146c-1.81-0.954-3.186-1.946-4.075-2.923c-0.896-0.98-1.295-1.903-1.296-2.801
			c0.001-0.896,0.397-1.817,1.296-2.801c1.559-1.713,4.608-3.453,8.848-5.004c6.356-2.338,15.366-4.31,26.096-5.687
			c10.73-1.379,23.188-2.168,36.467-2.168c20.24-0.001,38.566,1.835,51.785,4.789c6.607,1.474,11.939,3.233,15.561,5.147
			c1.809,0.954,3.186,1.946,4.078,2.924c0.895,0.979,1.295,1.901,1.295,2.799h0.749h0.75c0.002-1.368-0.627-2.658-1.689-3.812
			c-1.867-2.023-5.086-3.792-9.438-5.398c-6.527-2.397-15.619-4.377-26.428-5.768c-10.807-1.388-23.318-2.181-36.664-2.181
			c-20.328,0.001-38.732,1.839-52.104,4.825c-6.688,1.494-12.113,3.271-15.929,5.285c-1.908,1.008-3.418,2.076-4.483,3.234
			c-1.062,1.155-1.688,2.445-1.688,3.812c-0.001,1.369,0.628,2.658,1.688,3.812c1.866,2.023,5.085,3.793,9.438,5.398
			c6.524,2.397,15.614,4.377,26.422,5.766c10.804,1.389,23.315,2.18,36.657,2.18c20.332,0,38.739-1.838,52.11-4.822
			c6.689-1.494,12.115-3.271,15.934-5.283c1.906-1.01,3.42-2.076,4.482-3.235c1.062-1.155,1.691-2.444,1.689-3.813h-0.75
			L173.681,34.059L173.681,34.059z"/>
		<path fill="#000000" d="M80.454,43.194c-9.062-0.929-16.751-2.46-22.117-4.353c-2.682-0.943-4.779-1.982-6.155-3.037
			c-0.689-0.525-1.194-1.052-1.517-1.552c-0.319-0.502-0.462-0.963-0.463-1.422c0.001-0.612,0.257-1.25,0.862-1.948
			c1.053-1.222,3.164-2.496,6.118-3.634c4.431-1.716,10.734-3.17,18.25-4.185c7.515-1.018,16.243-1.6,25.551-1.6
			c14.18-0.002,27.021,1.354,36.266,3.528c4.619,1.085,8.346,2.382,10.852,3.776c1.254,0.697,2.197,1.418,2.803,2.111
			c0.604,0.7,0.861,1.336,0.861,1.948c0,0.534-0.193,1.078-0.641,1.674c-0.775,1.044-2.352,2.155-4.602,3.179
			c-3.373,1.543-8.234,2.918-14.133,3.992c-5.9,1.073-12.846,1.854-20.414,2.243l0.076,1.498
			c11.621-0.598,21.787-2.106,29.104-4.217c3.658-1.058,6.605-2.258,8.693-3.608c1.045-0.68,1.879-1.396,2.473-2.185
			c0.594-0.783,0.943-1.66,0.941-2.577c0.002-1.061-0.465-2.056-1.23-2.934c-1.352-1.541-3.637-2.854-6.709-4.049
			c-4.604-1.78-10.996-3.244-18.59-4.271c-7.592-1.025-16.381-1.611-25.75-1.611c-14.28,0.002-27.205,1.357-36.611,3.568
			c-4.704,1.107-8.525,2.423-11.233,3.927c-1.354,0.755-2.436,1.554-3.203,2.438c-0.77,0.877-1.232,1.873-1.231,2.934
			c-0.001,0.783,0.256,1.543,0.701,2.232c0.784,1.21,2.118,2.258,3.906,3.231c2.684,1.457,6.424,2.735,11.002,3.816
			c4.577,1.08,9.989,1.955,15.99,2.571L80.454,43.194z"/>
		<path fill="#000000" d="M107.712,39.971c0.027,0.055,1.352,2.97,4.236,5.539l2.764,2.453c0.311,0.273,0.783,0.245,1.061-0.062
			c0.274-0.309,0.246-0.783-0.062-1.059l-2.764-2.455c-1.318-1.168-2.293-2.439-2.934-3.414c-0.32-0.487-0.559-0.899-0.711-1.188
			c-0.078-0.146-0.137-0.256-0.174-0.331l-0.039-0.083l-0.012-0.021c-0.172-0.377-0.615-0.543-0.992-0.373
			C107.708,39.148,107.54,39.594,107.712,39.971z"/>
		<path fill="#000000" d="M76.535,47.732c0.013-0.008,1.408-0.879,2.899-2.033c0.746-0.576,1.517-1.223,2.158-1.883
			c0.64-0.667,1.169-1.316,1.397-2.074c0.249-0.854,0.396-1.316,0.479-1.551c0.04-0.115,0.062-0.176,0.064-0.18l-0.422-0.189
			l0.385,0.255l0.037-0.065l-0.422-0.188l0.385,0.255l-0.591-0.391l0.48,0.521l0.108-0.129l-0.591-0.392l0.48,0.521l-0.502-0.545
			l0.341,0.657l0.161-0.113l-0.502-0.544l0.341,0.657l-0.346-0.663v0.746c0.149,0,0.269-0.043,0.346-0.083l-0.346-0.663v0.746
			v-0.748l-0.387,0.641c0.105,0.064,0.253,0.108,0.387,0.106v-0.748l-0.387,0.64l0.386-0.639l-0.677,0.312
			c0.037,0.075,0.104,0.207,0.291,0.325l0.386-0.64l-0.677,0.312l0.669-0.311l-0.729,0.096c0.008,0.041,0.01,0.096,0.062,0.215
			l0.669-0.311l-0.729,0.096l0.727-0.095l-0.73,0.011l0.006,0.084l0.727-0.095l-0.73,0.011c0.007,0.414,0.348,0.745,0.762,0.738
			s0.745-0.348,0.738-0.762c-0.002-0.032,0.001-0.068-0.023-0.174c-0.016-0.056-0.031-0.131-0.119-0.258
			c-0.045-0.062-0.112-0.142-0.222-0.207c-0.106-0.065-0.255-0.109-0.39-0.107c-0.15,0-0.27,0.044-0.349,0.085
			c-0.15,0.083-0.2,0.151-0.241,0.196l-0.104,0.166c-0.062,0.129-0.105,0.252-0.203,0.549c-0.096,0.291-0.232,0.733-0.434,1.424
			c-0.075,0.3-0.468,0.873-1.034,1.445c-0.85,0.875-2.056,1.811-3.037,2.514c-0.492,0.354-0.93,0.648-1.242,0.855
			c-0.157,0.104-0.282,0.186-0.368,0.239l-0.13,0.081c-0.352,0.221-0.458,0.684-0.238,1.033
			C75.721,47.846,76.183,47.951,76.535,47.732z"/>
		<path fill="#000000" d="M108.396,39.66h-0.75h0.641l-0.551-0.331c-0.045,0.072-0.092,0.194-0.09,0.331h0.641l-0.551-0.331
			l0.354,0.213l-0.215-0.366c0.002,0.004-0.047,0.014-0.139,0.153l0.354,0.213l-0.215-0.366c-0.006,0.008-0.148,0.069-0.359,0.125
			c-0.756,0.209-2.365,0.438-4.439,0.601c-2.081,0.163-4.649,0.271-7.43,0.271c-3.499,0-6.669-0.168-8.942-0.408
			c-1.136-0.117-2.051-0.256-2.646-0.391c-0.296-0.064-0.518-0.135-0.607-0.177l-0.038-0.019l-0.161,0.278l0.237-0.211l-0.076-0.067
			l-0.161,0.278l0.237-0.209l-0.468,0.415h0.62c0-0.211-0.103-0.359-0.152-0.415l-0.468,0.415h0.62h-0.646l0.552,0.333
			c0.047-0.071,0.094-0.194,0.093-0.333h-0.645l0.552,0.333l-0.354-0.214l0.215,0.367c-0.003-0.004,0.047-0.014,0.142-0.153
			l-0.354-0.214l0.215,0.367c0.006-0.008,0.15-0.07,0.361-0.125c0.758-0.208,2.367-0.438,4.44-0.6
			c2.081-0.164,4.653-0.271,7.436-0.271c3.497,0,6.665,0.169,8.938,0.407c1.139,0.119,2.053,0.257,2.646,0.391
			c0.297,0.064,0.518,0.135,0.607,0.176l0.039,0.021l0.158-0.279l-0.232,0.211l0.074,0.067l0.158-0.279l-0.232,0.211l0.467-0.418
			h-0.621c0,0.214,0.102,0.363,0.154,0.418l0.467-0.418h-0.621H108.396h0.75c0-0.174-0.061-0.333-0.125-0.441
			c-0.135-0.211-0.271-0.293-0.389-0.367c-0.225-0.127-0.445-0.198-0.727-0.276c-0.959-0.258-2.586-0.478-4.717-0.646
			c-2.125-0.168-4.73-0.275-7.547-0.275c-3.548,0-6.757,0.17-9.102,0.416c-1.173,0.123-2.125,0.264-2.817,0.419
			c-0.352,0.079-0.631,0.158-0.878,0.265c-0.125,0.057-0.243,0.113-0.378,0.227c-0.066,0.057-0.142,0.129-0.208,0.24
			c-0.066,0.108-0.125,0.269-0.124,0.441c-0.001,0.174,0.057,0.332,0.123,0.439c0.135,0.214,0.271,0.296,0.388,0.369
			c0.224,0.129,0.446,0.201,0.727,0.278c0.96,0.261,2.587,0.479,4.72,0.647c2.127,0.166,4.73,0.273,7.552,0.273
			c3.546,0,6.754-0.17,9.096-0.416c1.172-0.123,2.123-0.264,2.818-0.42c0.35-0.08,0.631-0.158,0.879-0.266
			c0.125-0.057,0.244-0.115,0.379-0.227c0.066-0.059,0.139-0.132,0.207-0.242c0.064-0.108,0.123-0.267,0.123-0.439H108.396
			L108.396,39.66z"/>
		<path fill="#000000" d="M53.264,37.821c3.554-2.177,10.048-4.125,18.35-5.483c8.306-1.365,18.438-2.17,29.369-2.17
			c10.637,0,20.518,0.76,28.694,2.061c8.172,1.295,14.654,3.146,18.42,5.246l0.729-1.312c-4.059-2.251-10.639-4.099-18.914-5.417
			c-8.27-1.312-18.219-2.078-28.928-2.078c-11.005,0-21.208,0.809-29.612,2.189c-8.41,1.387-15.002,3.32-18.888,5.684L53.264,37.821
			z"/>
		<path fill="#000000" d="M69.719,218.945c0.004,0.045,0.011,0.936,0.363,1.908c0.183,0.484,0.452,1.006,0.907,1.432
			c0.449,0.428,1.109,0.727,1.874,0.721c0.369,0,0.76-0.062,1.174-0.189c4.163-1.273,7.091-2.176,7.091-2.176l-0.439-1.435
			c-0.002,0.002-0.731,0.228-1.983,0.608c-1.252,0.385-3.021,0.928-5.104,1.562c-0.295,0.092-0.537,0.125-0.734,0.125
			c-0.407-0.006-0.633-0.121-0.853-0.316c-0.324-0.291-0.562-0.859-0.673-1.369c-0.059-0.252-0.09-0.483-0.104-0.649l-0.015-0.188
			l-0.002-0.047v-0.008L69.719,218.945z"/>
		<path fill="#000000" d="M140.364,216.217l-0.002,0.02c-0.002,0.135-0.057,0.893-0.322,1.52c-0.131,0.316-0.307,0.588-0.512,0.762
			c-0.209,0.174-0.43,0.277-0.812,0.281c-0.197,0-0.441-0.033-0.736-0.123c-2.08-0.639-3.186-0.977-3.771-1.154
			c-0.584-0.182-0.645-0.199-0.646-0.199l-0.445,1.434c0.004,0.002,0.262,0.082,4.422,1.355c0.414,0.127,0.809,0.188,1.178,0.188
			c0.764,0.008,1.424-0.291,1.875-0.719c0.68-0.643,0.959-1.477,1.111-2.135c0.15-0.66,0.158-1.17,0.16-1.205L140.364,216.217z"/>
		<path fill="#000000" d="M31.004,53.592l1.599,29.807l0.005,0.035c0.013,0.065,0.099,0.67,0.562,1.326
			c0.232,0.328,0.567,0.666,1.027,0.92c0.459,0.256,1.037,0.42,1.717,0.434c0.414,0.008,0.758-0.32,0.769-0.734
			c0.009-0.414-0.319-0.757-0.733-0.766c-0.466-0.012-0.783-0.113-1.022-0.246c-0.354-0.197-0.562-0.482-0.688-0.738
			c-0.062-0.127-0.101-0.244-0.122-0.32l-0.021-0.086l-0.004-0.014l-0.276,0.049l0.278-0.041l-0.002-0.008l-0.276,0.049l0.278-0.041
			l-0.742,0.107l0.749-0.039l-1.597-29.773c-0.021-0.412-0.376-0.729-0.789-0.709C31.298,52.825,30.981,53.178,31.004,53.592z"/>
		<path fill="#000000" d="M33.62,54.16l1.728,32.333l0.003,0.024c0.011,0.062,0.052,0.433,0.316,0.869
			c0.137,0.219,0.332,0.451,0.612,0.641c0.279,0.188,0.639,0.322,1.046,0.357l0.069-0.748l-0.745,0.092L51.137,209.19l1.488-0.179
			L38.067,86.949l-0.604-0.057c-0.179-0.019-0.272-0.062-0.349-0.11c-0.108-0.071-0.182-0.183-0.229-0.291l-0.044-0.133
			l-0.008-0.026l-0.226,0.037l0.228-0.025l-0.002-0.012l-0.226,0.037l0.228-0.025l-0.743,0.088l0.749-0.041L35.116,54.08
			L33.62,54.16z"/>
		<path fill="#000000" d="M37.181,55.43l1.488,32.617c0.021,0.413,0.369,0.731,0.783,0.715c0.414-0.021,0.734-0.371,0.715-0.783
			l-1.488-32.617c-0.021-0.414-0.369-0.734-0.783-0.715C37.482,54.663,37.162,55.016,37.181,55.43"/>
		<path fill="#000000" d="M41.216,57.241l1.608,32.799c0.021,0.414,0.372,0.733,0.786,0.714c0.413-0.021,0.732-0.373,0.712-0.785
			l-1.61-32.801c-0.021-0.414-0.37-0.732-0.784-0.713C41.513,56.477,41.194,56.826,41.216,57.241"/>
		<path fill="#000000" d="M46.434,58.619l1.344,32.751c0.017,0.414,0.366,0.735,0.779,0.72c0.414-0.018,0.734-0.365,0.719-0.779
			l-1.344-32.752c-0.019-0.414-0.366-0.734-0.78-0.719C46.739,57.857,46.417,58.205,46.434,58.619"/>
		<path fill="#000000" d="M52.542,59.893l0.801,32.401c0.011,0.414,0.354,0.741,0.769,0.731s0.741-0.354,0.731-0.77l-0.801-32.402
			c-0.011-0.414-0.354-0.742-0.769-0.731C52.858,59.135,52.532,59.479,52.542,59.893"/>
		<path fill="#000000" d="M59.225,61.378l0.383,32.2c0.005,0.414,0.345,0.746,0.759,0.74c0.414-0.004,0.746-0.344,0.741-0.758
			l-0.383-32.2c-0.005-0.414-0.347-0.746-0.759-0.741C59.552,60.624,59.22,60.965,59.225,61.378"/>
		<path fill="#000000" d="M68.687,94.48l-0.609-32.33c-0.008-0.414-0.35-0.744-0.764-0.736c-0.415,0.008-0.744,0.352-0.736,0.766
			l0.609,32.33c0.008,0.414,0.35,0.744,0.764,0.735C68.365,95.237,68.695,94.895,68.687,94.48"/>
		<path fill="#000000" d="M74.652,63.268l0.236,32.035c0.003,0.414,0.342,0.748,0.756,0.744c0.414-0.003,0.747-0.343,0.744-0.757
			l-0.236-32.034c-0.003-0.414-0.342-0.746-0.756-0.744C74.982,62.516,74.649,62.854,74.652,63.268"/>
		<path fill="#000000" d="M83.11,63.857l-0.027,32.096c0,0.414,0.335,0.75,0.749,0.75c0.414,0.001,0.751-0.334,0.751-0.749
			l0.027-32.097c0-0.414-0.335-0.75-0.749-0.75C83.446,63.107,83.11,63.442,83.11,63.857"/>
		<path fill="#000000" d="M91.702,64.162l0.021,32.561c0,0.414,0.336,0.75,0.75,0.75c0.415-0.002,0.75-0.338,0.75-0.752
			L93.202,64.16c0-0.414-0.336-0.75-0.751-0.749C92.037,63.412,91.702,63.749,91.702,64.162"/>
		<path fill="#000000" d="M99.927,64.213l0.012,32.797c0,0.414,0.336,0.75,0.75,0.75s0.75-0.336,0.75-0.75l-0.012-32.8
			c0-0.413-0.336-0.747-0.75-0.747S99.927,63.799,99.927,64.213"/>
		<path fill="#000000" d="M108.997,64.146L108.499,96.9c-0.006,0.414,0.324,0.755,0.738,0.762c0.414,0.006,0.754-0.324,0.762-0.738
			l0.498-32.756c0.006-0.414-0.324-0.754-0.736-0.761C109.345,63.4,109.003,63.731,108.997,64.146"/>
		<path fill="#000000" d="M118.058,64.126l-1.297,32.454c-0.02,0.414,0.305,0.764,0.719,0.779s0.762-0.307,0.779-0.721l1.297-32.453
			c0.016-0.414-0.309-0.766-0.721-0.779C118.423,63.391,118.073,63.713,118.058,64.126"/>
		<path fill="#000000" d="M126.22,63.232l-1.295,33.053c-0.018,0.414,0.307,0.764,0.721,0.779c0.414,0.015,0.762-0.307,0.775-0.721
			l1.297-33.055c0.018-0.413-0.307-0.762-0.721-0.777C126.585,62.495,126.236,62.818,126.22,63.232"/>
		<path fill="#000000" d="M134.284,62.327l-1.594,33.054c-0.021,0.413,0.299,0.766,0.713,0.784c0.414,0.021,0.766-0.3,0.785-0.714
			l1.594-33.052c0.021-0.413-0.299-0.767-0.713-0.785S134.304,61.914,134.284,62.327"/>
		<path fill="#000000" d="M142.349,61.023l-2.189,33.35c-0.025,0.414,0.285,0.771,0.699,0.799c0.412,0.025,0.77-0.287,0.797-0.699
			l2.189-33.352c0.025-0.412-0.287-0.77-0.699-0.797C142.732,60.297,142.374,60.609,142.349,61.023"/>
		<path fill="#000000" d="M148.819,59.53l-2.092,33.45c-0.025,0.412,0.289,0.77,0.703,0.796c0.412,0.024,0.77-0.289,0.795-0.702
			l2.09-33.449c0.027-0.414-0.287-0.771-0.701-0.796C149.202,58.803,148.845,59.116,148.819,59.53"/>
		<path fill="#000000" d="M155.094,58.028l-2.592,34.045c-0.029,0.413,0.277,0.772,0.691,0.806c0.412,0.03,0.773-0.277,0.805-0.691
			l2.59-34.045c0.031-0.411-0.277-0.772-0.689-0.805C155.484,57.307,155.124,57.615,155.094,58.028"/>
		<path fill="#000000" d="M160.167,56.335l-2.588,34.048c-0.031,0.414,0.279,0.771,0.691,0.805c0.414,0.031,0.771-0.277,0.805-0.69
			l2.588-34.048c0.031-0.412-0.275-0.771-0.689-0.805C160.56,55.612,160.198,55.924,160.167,56.335"/>
		<path fill="#000000" d="M164.349,54.852l-2.09,33.852c-0.025,0.413,0.287,0.77,0.701,0.795c0.412,0.025,0.77-0.289,0.793-0.703
			l2.094-33.85c0.023-0.414-0.289-0.77-0.703-0.795C164.732,54.124,164.376,54.439,164.349,54.852"/>
		<path fill="#000000" d="M170.523,52.155l-2.49,33.063v0.008l0.248,0.013l-0.248-0.021v0.01l0.248,0.012l-0.248-0.021
			c0.002,0.021-0.041,0.322-0.207,0.547c-0.082,0.115-0.184,0.22-0.348,0.305c-0.162,0.083-0.396,0.152-0.758,0.152
			c-0.154,0-0.332-0.014-0.535-0.045c-0.408-0.062-0.793,0.217-0.857,0.623c-0.062,0.41,0.215,0.793,0.625,0.857
			c0.271,0.043,0.527,0.064,0.77,0.064c0.602,0,1.113-0.135,1.521-0.363c0.617-0.344,0.945-0.871,1.105-1.279
			c0.16-0.412,0.178-0.727,0.182-0.779l-0.75-0.037l0.748,0.059l2.49-33.053c0.031-0.412-0.279-0.772-0.691-0.805
			C170.913,51.434,170.554,51.741,170.523,52.155z"/>
	</g>
	<g>
		<path opacity="0.75" fill="#000000" d="M137.32,125.863V122c-1.543,0.174-2.317,0.256-3.862,0.41v3.858
			C135.003,126.114,135.777,126.035,137.32,125.863"/>
		<path fill="#000000" d="M118.954,134.868v3.587c-2.055,1.2-4.215,1.847-6.472,1.925c-2.923,0.102-5.252-0.663-6.983-2.25
			c-1.73-1.587-2.601-3.567-2.601-5.926s0.912-4.362,2.738-6.032c1.831-1.67,4.22-2.545,7.163-2.651
			c2.35-0.085,4.335,0.302,5.966,1.177v3.658c-1.995-1.012-3.884-1.49-5.669-1.424c-1.75,0.064-3.185,0.566-4.293,1.527
			c-1.112,0.963-1.67,2.177-1.67,3.625c0,1.458,0.549,2.646,1.647,3.57c1.094,0.921,2.494,1.356,4.208,1.294
			c0.85-0.029,1.674-0.17,2.455-0.426C116.229,136.267,117.402,135.712,118.954,134.868"/>
		<path fill="#000000" d="M54.127,120.604v6.263c2.856,0.417,4.285,0.61,7.149,0.965v-6.262c1.567,0.193,2.351,0.283,3.919,0.458
			v16.298c-1.568-0.176-2.352-0.268-3.919-0.461v-6.82c-2.864-0.354-4.296-0.546-7.151-0.962c0,2.727,0.005,4.093,0.005,6.819
			c-1.564-0.23-2.348-0.346-3.908-0.592c0-6.518,0-9.787,0-16.303C51.782,120.254,52.563,120.377,54.127,120.604"/>
		<path fill="#000000" d="M84.584,131.577c0,5.364-4.139,8.382-9.259,7.972c-5.146-0.407-8.88-4.479-8.88-9.144
			c0-4.881,4.045-8.085,9.165-7.682C80.962,123.143,84.584,127.059,84.584,131.577 M70.6,130.755c0,3.216,2.296,5.687,4.932,5.895
			c2.663,0.209,4.883-2.025,4.883-5.191c0-2.946-2.167-5.595-4.883-5.81C72.844,125.438,70.6,127.588,70.6,130.755"/>
		<path fill="#000000" d="M88.455,126.865c-1.885-0.074-2.829-0.117-4.715-0.219v-3.094c5.365,0.285,8.047,0.375,13.416,0.439v3.099
			c-1.907-0.023-2.86-0.046-4.766-0.097v13.199c-1.575-0.041-2.363-0.066-3.938-0.129C88.452,134.783,88.455,132.144,88.455,126.865
			"/>
		<path fill="#000000" d="M124.586,123.17c0,3.741-0.005,5.613-0.005,9.354c0,2.825,2.062,4.115,4.393,3.915
			c2.421-0.207,4.44-1.775,4.44-4.676v-4.033c1.562-0.156,2.345-0.239,3.906-0.414v3.821c0,5.027-3.172,7.808-8.499,8.262
			c-5.146,0.439-8.148-1.705-8.148-6.88v-9.091C122.239,123.334,123.019,123.283,124.586,123.17"/>
		<path fill="#000000" d="M138.895,122.037c1.212-0.334,3.601-0.77,5.993-1.094c2.421-0.33,4.148-0.131,5.298,0.543
			c1.11,0.652,1.852,1.885,1.852,3.48c0,1.594-0.546,3.057-1.589,4.113c-1.336,1.353-3.317,2.221-5.634,2.534
			c-0.517,0.069-1.666,0.198-2.027,0.17c0,2.341-0.005,3.511-0.005,5.855c-1.557,0.2-2.33,0.292-3.888,0.475V122.037z
			 M142.783,128.956c0.334,0.03,1.41-0.09,2.002-0.171c2.084-0.283,3.372-1.467,3.372-3.109c0-1.501-1.105-2.225-3.087-1.955
			c-0.771,0.106-2.003,0.316-2.287,0.424V128.956z"/>
	</g>
</g>
</svg>
