<svg id="Vrstva_1" data-name="Vrstva 1" xmlns="http://www.w3.org/2000/svg" viewBox="0 0 217.48 409.05"><title>potisk_hover</title><path d="M205.74,19.05V16.26c.1-2.33-.53-3.87-1.88-4.59a3,3,0,0,0-.92-.3h0c-.48-.14-11.77-3.49-14.59-3.86a13.22,13.22,0,0,0-9.14,3.37,306.3,306.3,0,0,0-40.59-5.21,12.87,12.87,0,0,0-.33-2.62c-.52-1.95-2-2.86-4.71-2.81h-.43c-.52,0-12.58-.24-13.8-.24H119c-2.15,0-3.68.21-7.75,4.61h-2.53C47.76,4.65,0,16.32,0,31.21a7.19,7.19,0,0,0,.16,1.47l8.65,76.39.89,8,1.35,11.92.54,4.75,1.22,10.79.77,6.78L14.9,162.9l.77,6.81,5.86,51.8.53,4.61,7.55,66.69L30.8,303.4l3.37,29.71.48,4.29,2.88,25.42.76,6.69.63,5.54a16.46,16.46,0,0,0,.25,2.71,19.14,19.14,0,0,0,2.41,6.53c8.32,14.27,35.27,24.76,67.16,24.76,38.46,0,69.75-15.25,69.82-34l.47-4.2,1.21-10.64,1.51-13.34.5-4.43,1.39-12.3,1-8.73,1.05-9.3.6-5.3,8.17-72.12.71-6.3,1.49-13.13,1.79-15.77.91-8.1.48-4.19.58-5.15.82-7.22,2.08-18.39,1.61-14.24L217.31,32.68a6.56,6.56,0,0,0,.17-1.47C217.48,26.78,213.26,22.65,205.74,19.05Zm-2-2.8v1.88c-2.11-.92-4.45-1.81-7-2.66,1.92-1.24,4.85-2.7,6.16-2,.78.37.89,1.68.84,2.75Zm-15.65-6.8c1.69.22,6.89,1.66,10.52,2.71a22.31,22.31,0,0,0-4.09,2.39l.16.21q-5.85-1.85-13-3.39A11.51,11.51,0,0,1,188.09,9.45ZM133.62,2.26c2.35,0,2.61.85,2.74,1.33a9.54,9.54,0,0,1,.26,1.91c-2.48-.15-5-.29-7.57-.4C130.19,3.81,131.92,2.3,133.62,2.26ZM119,2.05h.35c.76,0,6,.1,9.79.17A15.31,15.31,0,0,0,126.58,5q-6.17-.23-12.56-.31C116.68,2.05,117.65,2.05,119,2.05Zm-10.26,4.6c57.8,0,106.64,11.23,106.73,24.52l-.15,1.31c-3,12.75-50.58,23.3-106.58,23.3S5.14,45.23,2.15,32.48L2,31.17C2.09,17.88,50.93,6.65,108.74,6.65Zm100.7,77.83-.78,6.86h-.37a4,4,0,0,1-3.52-1.41c-.43-.5-.83-1-1.21-1.55l-.1-.15c-.94.5-1.93,1-3,1.48.14.22.28.45.41.7A27.15,27.15,0,0,0,202.49,93a4,4,0,0,0,3.68,1.87,8.93,8.93,0,0,0,1.47-.15l.65-.14-7.95,70.18a2.48,2.48,0,0,0-1.34-1.25c-.56-.31-1,0-1.46.31-.15.13-.34.23-.49.36a3.17,3.17,0,0,1-1.78.76c-.45.07-.9.13-1.34.24a3.91,3.91,0,0,0-.93.31,1.83,1.83,0,0,0-.91,2.4,2,2,0,0,0,.84,1,3.13,3.13,0,0,0,1.88.49,8.65,8.65,0,0,0,3.95-1.24,3.82,3.82,0,0,0,1.28-1.31l.08-.15-1.21,10.68v.05a7.05,7.05,0,0,0-.68,1.16,2.09,2.09,0,0,0,.08,1.9,3.26,3.26,0,0,0,.24.4l-.65,5.75a2.1,2.1,0,0,0-1.24,1,2,2,0,0,0,.65,2.52l.19.11-1,8.44a1.67,1.67,0,0,0-1.28,1.66,6.84,6.84,0,0,0,.53,2.64c.07.2.14.4.2.6l-4.4,38.81a.52.52,0,0,0-.08-.19c-1.18-1.88-2.73-3.16-5.09-3.13l-.86.08c-.94.09-1.88.23-2.82.27a12,12,0,0,0-5.2,1.73,2.81,2.81,0,0,0-1.12,1.12,1.48,1.48,0,0,0,.9,2.25,4.56,4.56,0,0,0,3.91-.35,7.8,7.8,0,0,1,1.78-.83c1.92-.66,3.8-.11,4.59,1.3a2.49,2.49,0,0,0,3.49.47l.22-.22-1.07,9.42h-.14a2.11,2.11,0,0,0-2.52,1.28,2,2,0,0,1-2,1.2h-2c-.54,0-1.07,0-1.6.05a5.3,5.3,0,0,0-4.62,3.2,13.15,13.15,0,0,0-.67,1.85c-.15.47-.21,1-.33,1.44a3.76,3.76,0,0,1-1.34,2.42,1,1,0,0,0-.25.26,2.16,2.16,0,0,0,3,3.1,6.55,6.55,0,0,0,2.12-2.68c.31-.74.53-1.54.77-2.32.16-.55.28-1.12.43-1.67a1.57,1.57,0,0,1,1.7-1.29h1.73v.06c.82-.07,1.64-.1,2.46-.21a5.72,5.72,0,0,0,2.59-1.08l-1.9,16.82a7.65,7.65,0,0,0-1.45-1.76,2,2,0,0,0-2.7-.1,1.29,1.29,0,0,0-.53,1.52,6.55,6.55,0,0,0,.53,1.1c.31.54.65,1,1,1.58a2.79,2.79,0,0,1,.36,1.41,4.7,4.7,0,0,1-1.56,3.74c-.66.62-1.31,1.25-1.93,1.91a8.29,8.29,0,0,0-2,3.23,3.92,3.92,0,0,0-.2,1.32,1.45,1.45,0,0,0,2.32,1.17,6,6,0,0,0,1.08-1,34.59,34.59,0,0,0,3.1-3.83,9.47,9.47,0,0,1,1-1.27l-2.08,18.36c-.39-1.62-1.63-2.62-2.87-3.6a.78.78,0,0,0-1,0,2.45,2.45,0,0,0-.58.62,2.76,2.76,0,0,0-.3,2.48c.47,1.31.94,2.62,1.44,3.91a9,9,0,0,0,.65,1.32,7,7,0,0,0,1.77,2.19l.12.09-1.26,11.13a2.85,2.85,0,0,0-1.23,2.83,7.43,7.43,0,0,0,.61,2.63l-1.71,15.14c-.16.06-.33.11-.49.18a15.18,15.18,0,0,0-2.12,1,3.55,3.55,0,0,0-1.08,1,1.5,1.5,0,0,0,.18,2.11,1.72,1.72,0,0,0,.65.32,5.69,5.69,0,0,0,2.32.21L178.25,360l-.22,1.91-1.2,10.6-.26,2.36V375c0,17.67-30.43,32.06-67.82,32.06-30.56,0-56.45-9.61-64.9-22.76-.16-.24-.3-.48-.44-.72a18.8,18.8,0,0,1-1.16-2.28,16,16,0,0,1-1.06-3.58,15.56,15.56,0,0,1-.26-2.72v-.06l-.91-8-.52-4.6L39.23,360,32.39,299.6a13.25,13.25,0,0,1,1.92-3.27,1.26,1.26,0,0,0,.24-.44,8.37,8.37,0,0,0,.42-1.4A2.09,2.09,0,0,0,33.32,292a1.67,1.67,0,0,0-.5,0,5.48,5.48,0,0,0-1.28.09L24,225.41a1.83,1.83,0,0,1,.46.12,5.65,5.65,0,0,1,3.35,3.06c.35.88.76,1.74,1.18,2.58a7.25,7.25,0,0,0,1.58,2.18,4.27,4.27,0,0,0,4.22,1.07,2,2,0,0,0,1.63-2.24,2.21,2.21,0,0,0-2.11-2h-.84a5.08,5.08,0,0,1-.41-.51,8.48,8.48,0,0,1-.5-1c-.41-.9-.77-1.82-1.21-2.7a8.73,8.73,0,0,0-6-4.67,7.49,7.49,0,0,0-1.83-.19l-1.34-11.87a9.09,9.09,0,0,0,.72,1.14,14,14,0,0,0,3.73,3.37,3.81,3.81,0,0,0,2.1.63,1.52,1.52,0,0,0,1.57-1.13,2.29,2.29,0,0,0-.4-2.25,3.52,3.52,0,0,0-1.2-1,5.12,5.12,0,0,1-2.26-2.83,2.91,2.91,0,0,1,.93-3.44q.59-.47,1.2-.87a6.72,6.72,0,0,0,2.67-3.28c.87-2.12,1.57-4.33,3.07-6.14a2.77,2.77,0,0,0,.43-.88,4.75,4.75,0,0,0,.24-1.07,2,2,0,0,0-1.57-2.35l-.36,0a6.73,6.73,0,0,0-1.95.13A2.59,2.59,0,0,0,28.75,192a4.91,4.91,0,0,1-.05.86,11.92,11.92,0,0,1-.23,1.33c-.2.84-.49,1.66-.65,2.5a6.14,6.14,0,0,1-1.26,2.65,8.36,8.36,0,0,1-2.08,1.9c-.55.37-1.08.75-1.62,1.13a3.13,3.13,0,0,0-1.27,1.85l-3.77-33.29A8.63,8.63,0,0,1,20.47,174c.55,1.09,1,2.25,1.46,3.38.11.27.18.55.31.81a3.1,3.1,0,0,0,1.9,1.64,1.58,1.58,0,0,0,2.16-1.7,5.38,5.38,0,0,0-.53-1.75,38.17,38.17,0,0,1-2.65-7,2.29,2.29,0,0,0-1.41-1.61c-.38-.15-.79-.24-1.18-.36s-.88-.2-1.31-.34a1.74,1.74,0,0,1-1.35-1.83v-.36h0v-.62a1.51,1.51,0,0,0-1-1.42l-1.53-13.54a6.43,6.43,0,0,0,6-1.13,1.55,1.55,0,0,0,.74-1.44v-.62a2.14,2.14,0,0,0-2.38-1.86,2.1,2.1,0,0,0-.77.24l-.62.4a1.93,1.93,0,0,1-2.2,0c-.25-.15-.48-.33-.71-.49a2.34,2.34,0,0,0-.62-.29L13.6,133.73a10.56,10.56,0,0,0,3-.93,1.1,1.1,0,0,0,.54-1.46,1,1,0,0,0-.21-.31,2.42,2.42,0,0,0-1.33-.86c-.8-.22-1.6-.44-2.42-.59L11.7,116.89v-.09a4.21,4.21,0,0,0,.18-.72c.06-.57.09-1.14.13-1.72h0A10,10,0,0,0,12,113a5.08,5.08,0,0,0-1-2.5l-3-26L2.69,37.22C13.56,49.13,56.25,57.78,108.74,57.78s95.18-8.65,106.05-20.56Z"/><path d="M108.74,54.43c51.7,0,105.18-8.7,105.18-23.26S160.44,7.91,108.74,7.91,3.55,16.61,3.55,31.17,57,54.43,108.74,54.43Zm0-44.52c61.72,0,103.18,11,103.18,21.26S170.46,52.43,108.74,52.43,5.55,41.44,5.55,31.17,47,9.91,108.74,9.91Z"/><path d="M124.6,373.57c-.42-.17-.86-.27-1.3-.4s-.72-.16-1.07-.27a1.75,1.75,0,0,1-1.44-1.88,2.29,2.29,0,0,1,0-.37c0-1.63-.63-2.26-2.23-2.19h-.49a3,3,0,0,0-2.63,3.33,3.11,3.11,0,0,0,.16.67,3.81,3.81,0,0,0,1.69,2.2,17.63,17.63,0,0,0,1.93,1c2.29-.14,4.55-.34,6.79-.57A2.32,2.32,0,0,0,124.6,373.57Z"/><path d="M131.76,191.25c-.09.56-.12,1.14-.19,1.71a8,8,0,0,1-.16,1.09c-.21.88-.49,1.74-.68,2.62a6.16,6.16,0,0,1-1.28,2.63,9,9,0,0,1-2.09,1.9c-.55.37-1.08.75-1.62,1.13a3.46,3.46,0,0,0-1.35,2.14,9.07,9.07,0,0,0-.09,1.47,6.35,6.35,0,0,0,1.18,4,13.22,13.22,0,0,0,4.09,3.86,3.75,3.75,0,0,0,2,.6,1.57,1.57,0,0,0,1.71-1.42h0a2.4,2.4,0,0,0-.55-2.07,4.44,4.44,0,0,0-1.15-.92,5.25,5.25,0,0,1-2.19-2.74,2.9,2.9,0,0,1,1-3.53,10.63,10.63,0,0,1,1.1-.8,6.8,6.8,0,0,0,2.75-3.37c.85-2.08,1.52-4.27,3-6a.45.45,0,0,0,.12-.21,9.34,9.34,0,0,0,.57-1.61,2.11,2.11,0,0,0-1.56-2.54,1.67,1.67,0,0,0-.44-.06,5.28,5.28,0,0,0-2.88.49A2.16,2.16,0,0,0,131.76,191.25Z"/><path d="M130.36,306.56a10.13,10.13,0,0,1,1-.72,6.86,6.86,0,0,0,2.82-3.46,21.36,21.36,0,0,1,3-6,1.82,1.82,0,0,0,.24-.43,9.84,9.84,0,0,0,.45-1.52,2.1,2.1,0,0,0-1.73-2.41l-.14,0a5.26,5.26,0,0,0-3,.5,2.2,2.2,0,0,0-1.25,1.72c-.08.53-.11,1.06-.17,1.59a6.77,6.77,0,0,1-.15,1.1c-.23,1-.52,1.9-.74,2.86a6,6,0,0,1-1,2.11,9.14,9.14,0,0,1-2.4,2.28c-.61.41-1.21.85-1.8,1.3a3.41,3.41,0,0,0-1.18,2.23,12.68,12.68,0,0,0,0,1.51,6,6,0,0,0,1.24,3.77,13.75,13.75,0,0,0,4,3.75,4.14,4.14,0,0,0,1.87.58,1.59,1.59,0,0,0,1.79-1.36s0-.07,0-.11a2.28,2.28,0,0,0-.6-2.05,6.74,6.74,0,0,0-1-.84,5.45,5.45,0,0,1-2.22-2.72A3,3,0,0,1,130.36,306.56Z"/><path d="M26.66,110.91a3.65,3.65,0,0,0,2.11.57,1.47,1.47,0,0,0,1.53-1.17,2.24,2.24,0,0,0-.37-2.1,3.48,3.48,0,0,0-1.19-1,5.19,5.19,0,0,1-2.19-2.59,3,3,0,0,1,1-3.84,12,12,0,0,1,1-.71,6.9,6.9,0,0,0,2.74-3.38l.57-1.44c-1.39-.41-2.75-.83-4.06-1.26a6.12,6.12,0,0,1-1.11,2.33,8.91,8.91,0,0,1-2.24,2.09c-.52.33-1,.69-1.52,1a3.42,3.42,0,0,0-1.4,2.11,11.91,11.91,0,0,0-.16,1.58,6.9,6.9,0,0,0,1.49,4.36A13.75,13.75,0,0,0,26.66,110.91Z"/><path d="M129.55,110.9a3.72,3.72,0,0,0,2.23.58,1.48,1.48,0,0,0,1.43-1.14,2.3,2.3,0,0,0-.43-2.21,5,5,0,0,0-1.11-.94,5.56,5.56,0,0,1-2.24-2.71,2.84,2.84,0,0,1-.17-.49q-2.44.14-4.92.24a7.21,7.21,0,0,0,1.33,3.1A13.77,13.77,0,0,0,129.55,110.9Z"/><path d="M88.84,154a1.8,1.8,0,0,0-1-2.26,2.26,2.26,0,0,0-3.07.84s0,.11-.08.16a1.91,1.91,0,0,1-2,1.25H80.6c-.54,0-1.07.06-1.6.11a5.23,5.23,0,0,0-4.56,3.44,16.78,16.78,0,0,0-.78,2.59,5.26,5.26,0,0,1-1.55,3,2,2,0,0,0-.19,2.89l.1.11a2.19,2.19,0,0,0,3,.21,7.18,7.18,0,0,0,2.17-2.94c.31-.8.5-1.64.75-2.47.15-.51.26-1,.44-1.53a1.4,1.4,0,0,1,1.41-1h1.73v.08a29.91,29.91,0,0,0,3-.33A5.55,5.55,0,0,0,88.84,154Z"/><path d="M190.38,151.57a2.26,2.26,0,0,0-2.77,1c-.08.14-.14.29-.21.44a1.53,1.53,0,0,1-1.37.9h-1.48a18.72,18.72,0,0,0-3.07.17,5.07,5.07,0,0,0-3.84,2.59,9,9,0,0,0-.95,2.4c-.16.63-.3,1.28-.45,1.91a3,3,0,0,1-1,1.78,3.39,3.39,0,0,0-.57.63,2,2,0,0,0,.28,2.69,2.1,2.1,0,0,0,2.8.23,6.45,6.45,0,0,0,2.19-2.76,22,22,0,0,0,.76-2.34c.18-.59.3-1.2.48-1.78a1.5,1.5,0,0,1,1.57-1.14h1.73v.08c.94-.09,1.89-.12,2.81-.29a5.59,5.59,0,0,0,4.42-4,1.88,1.88,0,0,0-1.08-2.43Z"/><path d="M88.85,256.81a1.9,1.9,0,0,0-1.27-2.38l-.19-.05a2.15,2.15,0,0,0-2.68,1.19,2.05,2.05,0,0,1-2.06,1.26h-1c-.82,0-1.65,0-2.46.05a5.34,5.34,0,0,0-3.62,1.63,5.89,5.89,0,0,0-1.34,2.19,17.87,17.87,0,0,0-.62,2.25,5.2,5.2,0,0,1-1.55,3,2,2,0,0,0-.26,2.82L72,269a2.12,2.12,0,0,0,3,.22l0,0a6.74,6.74,0,0,0,2.18-2.93c.3-.8.51-1.65.75-2.47.13-.47.23-1,.39-1.42a1.44,1.44,0,0,1,1.47-1.09H81.6c.77-.05,1.55-.09,2.33-.17A5.76,5.76,0,0,0,88.85,256.81Z"/><path d="M88.08,357.61a2.28,2.28,0,0,0-3.19.55l-.12.18c-.08.14-.15.29-.22.44a1.43,1.43,0,0,1-1.13.85q-.73.09-1.47.12c-1,0-2.06,0-3.08.1a5.13,5.13,0,0,0-4.14,2.73,10.1,10.1,0,0,0-1,2.77c-.11.48-.19,1-.32,1.44a3.15,3.15,0,0,1-1,1.77,1.61,1.61,0,0,0-.35.34,2.14,2.14,0,0,0,0,2.91,2.73,2.73,0,0,0,.25.23l1.91.43a2.6,2.6,0,0,0,.83-.42,6.68,6.68,0,0,0,2.19-2.92c.31-.8.51-1.65.75-2.47.14-.47.23-1,.39-1.43a1.54,1.54,0,0,1,1.57-1.14h1.85a14.56,14.56,0,0,0,2.09-.1,5.73,5.73,0,0,0,5-4.26A1.8,1.8,0,0,0,88.08,357.61Z"/><path d="M56.41,291.39a10.26,10.26,0,0,0,2.25-1.5,1,1,0,0,1,1.4-.17l.13.12a2.15,2.15,0,0,1,.87,1.43c.06.36,0,.74.08,1.11.08.94.12,1.89.25,2.82a7.67,7.67,0,0,0,1.24,3.32,4.8,4.8,0,0,0,4.1,2.11,1.75,1.75,0,0,0,1.58-.79,2.35,2.35,0,0,0-.74-3.24,3.42,3.42,0,0,0-.43-.21c-.31-.11-.63-.17-.91-.24a4.51,4.51,0,0,1-.65-2.4c-.1-1.1-.16-2.21-.27-3.31a5.25,5.25,0,0,0-1.29-3,6.88,6.88,0,0,0-3.27-2.12,4.72,4.72,0,0,0-4.43.8,14.07,14.07,0,0,1-1.94,1.49,1.93,1.93,0,0,0-1,1.63,2.18,2.18,0,0,0,2,2.32A2.3,2.3,0,0,0,56.41,291.39Z"/><path d="M159.25,188.47a9.13,9.13,0,0,0,2.26-1.49,1,1,0,0,1,1.4-.18l.13.12a1.92,1.92,0,0,1,.85,1.44c.08.9.13,1.81.2,2.71a10.06,10.06,0,0,0,1,3.8,5,5,0,0,0,4.29,2.87,1.87,1.87,0,0,0,1.82-.81,2.35,2.35,0,0,0-.69-3.25,1.79,1.79,0,0,0-.91-.31.82.82,0,0,1-.71-.6,6.67,6.67,0,0,1-.26-1.07c-.09-.86-.14-1.72-.23-2.58-.07-.7-.11-1.39-.24-2.08a6.3,6.3,0,0,0-5.88-4.84,4.48,4.48,0,0,0-2.83.84c-.73.6-1.44,1.2-2.23,1.73a2.06,2.06,0,0,0-.56,2.86,1.9,1.9,0,0,0,.5.52A1.93,1.93,0,0,0,159.25,188.47Z"/><path d="M159.28,291.37a7.23,7.23,0,0,0,2.16-1.42c.6-.56,1-.66,1.81.06a1.77,1.77,0,0,1,.63,1.17c.06.45.1.9.13,1.35a16,16,0,0,0,.1,1.73,9.74,9.74,0,0,0,1,3.66,4.82,4.82,0,0,0,4.15,2.71,1.9,1.9,0,0,0,2.19-1.5,2.26,2.26,0,0,0-1.59-2.77h0l-.36-.07a.83.83,0,0,1-.69-.63,6.52,6.52,0,0,1-.25-1.08c-.1-.86-.15-1.72-.23-2.58-.07-.69-.14-1.39-.24-2.08a4.77,4.77,0,0,0-1.14-2.42,6.87,6.87,0,0,0-3.37-2.19,4.66,4.66,0,0,0-4.32.76,25.09,25.09,0,0,1-2,1.57,2,2,0,0,0-.72,2.74l.05.07A2.13,2.13,0,0,0,159.28,291.37Z"/><path d="M54.49,184.61a1.91,1.91,0,0,0-1.05,1.45,2.13,2.13,0,0,0,.88,2.16,2,2,0,0,0,2.2.21A9.57,9.57,0,0,0,58.65,187a1.08,1.08,0,0,1,1.52-.12l.12.12a2.2,2.2,0,0,1,.79,1.48c.05.37,0,.74.06,1.11.08.94.13,1.89.27,2.82a8.08,8.08,0,0,0,1.08,3,4.94,4.94,0,0,0,4.12,2.34,1.84,1.84,0,0,0,2-1.61A2.19,2.19,0,0,0,67,193.47l-.14,0a1.23,1.23,0,0,1-1.1-1.12q-.15-.91-.24-1.83c-.1-1-.13-2-.26-3.07a6.32,6.32,0,0,0-6-5.21,4.44,4.44,0,0,0-3,1.07A7.35,7.35,0,0,1,54.49,184.61Z"/><path d="M137.58,337.38a2,2,0,0,0,1.76-2.16,2.2,2.2,0,0,0-2-2.13h-.88a3.28,3.28,0,0,1-.94-1.41c-.37-.82-.7-1.66-1.08-2.48a9,9,0,0,0-6.19-5,6.36,6.36,0,0,0-2.57-.13,4.62,4.62,0,0,0-2.62,1.26,2,2,0,0,0-.66,1.77A2.31,2.31,0,0,0,125,329l.19,0a3.1,3.1,0,0,0,.86-.46,1,1,0,0,1,.94-.13,5.59,5.59,0,0,1,3.59,2.95c.38.87.72,1.75,1.18,2.58a11.72,11.72,0,0,0,1.44,2.13A4.26,4.26,0,0,0,137.58,337.38Z"/><path d="M125.83,122.88a1.53,1.53,0,0,1,1.72-.12,5.64,5.64,0,0,1,3.3,3.29A20.23,20.23,0,0,0,132,128.5a7.41,7.41,0,0,0,1.54,2.06,4.41,4.41,0,0,0,4.25,1,1.91,1.91,0,0,0,1.54-1.59,2.32,2.32,0,0,0-1.9-2.67h0a9.55,9.55,0,0,0-1.07,0,2.88,2.88,0,0,1-.26-.35c-.2-.36-.4-.72-.57-1.09-.43-.94-.8-1.9-1.26-2.81a8.88,8.88,0,0,0-6-4.65,6.42,6.42,0,0,0-2.69-.08,4.64,4.64,0,0,0-2.48,1.28,2,2,0,0,0-.13,2.79A2.14,2.14,0,0,0,125.83,122.88Z"/><path d="M34.9,131.56a1.88,1.88,0,0,0,1.48-1.49,2.3,2.3,0,0,0-1.75-2.74,1.64,1.64,0,0,0-.32,0h-.82a3.38,3.38,0,0,1-.94-1.47c-.43-.93-.8-1.89-1.26-2.8a8.86,8.86,0,0,0-6.07-4.63,6.36,6.36,0,0,0-2.57-.08,4.56,4.56,0,0,0-2.59,1.32,2,2,0,0,0-.16,2.69,2.11,2.11,0,0,0,2.93.61h0a1.72,1.72,0,0,1,1.94-.1A5.37,5.37,0,0,1,27.89,126a7.52,7.52,0,0,0,.48,1.13,19.41,19.41,0,0,0,1.11,2.06,8.48,8.48,0,0,0,1.36,1.57A4.32,4.32,0,0,0,34.9,131.56Z"/><path d="M137.33,230.17h-.9a3.61,3.61,0,0,1-1-1.52c-.4-.89-.77-1.81-1.21-2.69a8.85,8.85,0,0,0-6-4.7,6.52,6.52,0,0,0-2.2-.18,4.76,4.76,0,0,0-3.07,1.4,2,2,0,0,0-.22,2.59,2.15,2.15,0,0,0,3,.73l0,0a1.75,1.75,0,0,1,2-.08,5.51,5.51,0,0,1,3.11,3.15A23.93,23.93,0,0,0,132,231.4a6.89,6.89,0,0,0,1.66,2.13,4.32,4.32,0,0,0,4.27.84,1.91,1.91,0,0,0,1.36-1.46,2.29,2.29,0,0,0-1.77-2.71Z"/><path d="M124.31,278.86c.29.68.53,1.38.78,2.07a3.09,3.09,0,0,0,1.54,1.7,1.88,1.88,0,0,0,2.09-.16,1.62,1.62,0,0,0,.48-1.79,5.63,5.63,0,0,0-.35-1.05c-.14-.34-.32-.67-.47-1a33.76,33.76,0,0,1-2.3-6.23,2.38,2.38,0,0,0-1.55-1.77c-.46-.17-.94-.29-1.42-.42s-.72-.17-1.07-.29a1.65,1.65,0,0,1-1.24-1.64v-.49h0a4.06,4.06,0,0,0-.06-.85,1.51,1.51,0,0,0-1.28-1.33,3.46,3.46,0,0,0-3.28,1,2.92,2.92,0,0,0-.57,3.1,3.86,3.86,0,0,0,1.82,2.24,21.94,21.94,0,0,0,2,1,8.2,8.2,0,0,1,2.36,1.74A12.62,12.62,0,0,1,124.31,278.86Z"/><path d="M128.47,176a34.5,34.5,0,0,1-2.4-6.45,2.36,2.36,0,0,0-1.59-1.74c-.65-.23-1.34-.38-2-.56-1.31-.37-1.69-.86-1.65-2.2v-.61a1.63,1.63,0,0,0-1.58-1.68h0a3.8,3.8,0,0,0-2.15.38,2.71,2.71,0,0,0-1.58,2.58,3.78,3.78,0,0,0,1.86,3.29,15.54,15.54,0,0,0,1.84,1,8.48,8.48,0,0,1,4.29,4.24c.58,1.21,1.09,2.47,1.57,3.74a3.34,3.34,0,0,0,1.5,1.73,1.82,1.82,0,0,0,2.19-.09,1.59,1.59,0,0,0,.45-1.9A13.61,13.61,0,0,0,128.47,176Z"/><path d="M114.94,301.41c-.25.43-.5.86-.74,1.29a3.37,3.37,0,0,0-.49,1.51,1.72,1.72,0,0,0,.87,1.65,2.46,2.46,0,0,0,3.42-.64l0-.07a6.18,6.18,0,0,0,.89-2.67,7.9,7.9,0,0,1,.42-1.79,6.8,6.8,0,0,0,.51-2.89,6.17,6.17,0,0,0,0-.86,53.77,53.77,0,0,0-1.06-6.32,5.82,5.82,0,0,0-1.55-2.91,3.2,3.2,0,0,0-3-1,1.81,1.81,0,0,0-1.49,1.73,3.16,3.16,0,0,0,.54,1.86q.64,1.05,1.35,2.07a6.28,6.28,0,0,1,1.11,3.48c0,1,0,2-.06,3A6.24,6.24,0,0,1,114.94,301.41Z"/><path d="M112.74,185.63a3.22,3.22,0,0,0,.58,1.85c.41.67.84,1.32,1.28,2a6.31,6.31,0,0,1,1.15,3.59v1.72a8.13,8.13,0,0,1-1.39,4.78,4.28,4.28,0,0,0-.56,1.23,1.87,1.87,0,0,0,1.16,2.38h0a2.45,2.45,0,0,0,3-.9,6,6,0,0,0,.91-2.66,7.38,7.38,0,0,1,.41-1.79,7.4,7.4,0,0,0,.53-3.19,1.71,1.71,0,0,0,0-.32,46,46,0,0,0-1.14-6.8,5.64,5.64,0,0,0-1.45-2.68,3.28,3.28,0,0,0-2.78-1.06A1.86,1.86,0,0,0,112.74,185.63Z"/><path d="M12,87.09a4.9,4.9,0,0,1,.68,1.77c.38,2.73.37,5.41-1.25,7.83a4.54,4.54,0,0,0-.55,1.23A1.84,1.84,0,0,0,12,100.25a2.43,2.43,0,0,0,3.22-.92A5.85,5.85,0,0,0,16,97a9.17,9.17,0,0,1,.44-2A7.51,7.51,0,0,0,17,91.86a17.27,17.27,0,0,0-.22-2.27A40.15,40.15,0,0,1,12,87.09Z"/><path d="M195.8,105.65a6.59,6.59,0,0,0-.37,2.53,6.33,6.33,0,0,0,2.33,5.35c.44.37.86.78,1.32,1.12a6.34,6.34,0,0,0,1.39.78,3.28,3.28,0,0,0,1.32.19,2.25,2.25,0,0,0,1.84-1.76,2.09,2.09,0,0,0-1.18-2.23c-.26-.12-.55-.17-.82-.29a4.51,4.51,0,0,1-2.42-2.34,3.28,3.28,0,0,1,.18-3.3,6.22,6.22,0,0,0,.87-4.49A12.7,12.7,0,0,0,198.68,97a1.82,1.82,0,0,0-2.25-1.06,1.7,1.7,0,0,0-1.19,2,10.4,10.4,0,0,0,.53,2.27A7.72,7.72,0,0,1,195.8,105.65Z"/><path d="M92.4,200.24a9.32,9.32,0,0,0,.2,1.83,13.52,13.52,0,0,0,.47,1.53,6.82,6.82,0,0,1,.05,4.35c-.09.27-.16.55-.25.83a7.79,7.79,0,0,0-.31,2.92,6.11,6.11,0,0,0,1.33,3.64,12.14,12.14,0,0,0,3,2.58,5.24,5.24,0,0,0,1.48.58,2.11,2.11,0,0,0,2.23-1.2,1.88,1.88,0,0,0-.19-2.19,2.23,2.23,0,0,0-1.21-.78,4.51,4.51,0,0,1-2.62-2.11,3.34,3.34,0,0,1,0-3.73,5.27,5.27,0,0,0,.89-3.2c0-2.37-.77-3.77-1.8-5.73a1.05,1.05,0,0,0-.22-.3,1.75,1.75,0,0,0-1.92-.46A1.46,1.46,0,0,0,92.4,200.24Z"/><path d="M97.46,308c.1-2-.85-3.76-1.81-5.54a.9.9,0,0,0-.15-.19,1.72,1.72,0,0,0-1.89-.56,1.56,1.56,0,0,0-1.22,1.52,3,3,0,0,0,0,.85c.17.76.34,1.52.58,2.26a7.11,7.11,0,0,1,.06,4.71c-.07.19-.11.4-.17.59a7.37,7.37,0,0,0-.35,2.8,6.26,6.26,0,0,0,1.37,3.87,14,14,0,0,0,2.85,2.52,3.66,3.66,0,0,0,1.72.63,2.23,2.23,0,0,0,2.15-1.37,2,2,0,0,0-.37-2.17,2.5,2.5,0,0,0-1.16-.66,4.46,4.46,0,0,1-2.53-2,3.36,3.36,0,0,1,0-3.83A5.37,5.37,0,0,0,97.46,308Z"/><path d="M97.29,115.32a2.69,2.69,0,0,0,1.67.31,2.14,2.14,0,0,0,1.79-2.46,2.18,2.18,0,0,0-.26-.74,2.38,2.38,0,0,0-1.37-1,4.4,4.4,0,0,1-2.72-2.36,3.21,3.21,0,0,1,.15-3.4,5.82,5.82,0,0,0,.62-1.31l-3.83-.14a7,7,0,0,1-.25,1,7.12,7.12,0,0,0-.29,1,7.28,7.28,0,0,0,.75,5.83A10.51,10.51,0,0,0,97.29,115.32Z"/><path d="M48.66,261.11a2.91,2.91,0,0,0,1.21.07,4.39,4.39,0,0,0,3.1-2,3.21,3.21,0,0,1,2.48-1.61,12.16,12.16,0,0,1,4.54.06,7.41,7.41,0,0,0,3.18,0,4.15,4.15,0,0,0,3.28-4.85,4,4,0,0,0-.28-.89,1.81,1.81,0,0,0-1.84-1.17,1.51,1.51,0,0,0-1.53,1.19c-.18.5-.34,1-.52,1.57a6.12,6.12,0,0,1-.69.43,5.61,5.61,0,0,1-2.66.39c-1.23-.07-2.46-.18-3.68-.31a5,5,0,0,0-4.73,1.82c-.25.32-.55.6-.82.92a8.45,8.45,0,0,0-1.72,3.1,1,1,0,0,0,.63,1.27Z"/><path d="M57.62,151.32c-1-.07-2-.19-2.94-.26a4.42,4.42,0,0,0-3.62,1.24,18.58,18.58,0,0,0-2.13,2.55,9.27,9.27,0,0,0-1,2.11,1,1,0,0,0,.6,1.28l.15,0a2.24,2.24,0,0,0,.73.07A4.28,4.28,0,0,0,53,156.26a3.44,3.44,0,0,1,2.75-1.63c.53,0,1.06-.06,1.6-.08v-.1c.94.11,1.88.2,2.81.33a7.85,7.85,0,0,0,3.54-.2,4.25,4.25,0,0,0,1.2-.61,4.4,4.4,0,0,0,1.22-5,2.85,2.85,0,0,0-.33-.52,1.75,1.75,0,0,0-2.46-.24,1.7,1.7,0,0,0-.48.62,6,6,0,0,0-.36,1,1.37,1.37,0,0,1-1.08,1.2,6.38,6.38,0,0,1-1.56.33A18.44,18.44,0,0,1,57.62,151.32Z"/><path d="M160.42,151.31c-1-.07-2-.2-2.95-.25a4.18,4.18,0,0,0-3.41,1.15,22.46,22.46,0,0,0-2.15,2.53,10.28,10.28,0,0,0-1,2.09,1,1,0,0,0,.5,1.4,1.07,1.07,0,0,0,.5.1,3.21,3.21,0,0,0,1.93-.28,4.77,4.77,0,0,0,2.12-1.83,3,3,0,0,1,2.51-1.56,14,14,0,0,1,4.66.12,9.54,9.54,0,0,0,1.51.15,19.53,19.53,0,0,0,2-.37,3.41,3.41,0,0,0,2.15-1.74,4.59,4.59,0,0,0,.42-3.23,3.53,3.53,0,0,0-.5-1.12,1.74,1.74,0,0,0-2.44-.34,1.81,1.81,0,0,0-.51.62,5,5,0,0,0-.37,1,1.53,1.53,0,0,1-1.27,1.33,7,7,0,0,1-1.57.27A16.83,16.83,0,0,1,160.42,151.31Z"/><path d="M168.76,251.45a1.76,1.76,0,0,0-1.81-.78,1.44,1.44,0,0,0-1.27,1,5.39,5.39,0,0,0-.37,1.18,1.15,1.15,0,0,1-.75.91,5.31,5.31,0,0,1-1.29.38,11.12,11.12,0,0,1-2,.06c-1.35-.07-2.7-.2-4.29-.32a4.32,4.32,0,0,0-3.37,1.58l-1,1.1a8.85,8.85,0,0,0-1.78,3.09,1,1,0,0,0,.39,1.36,1.11,1.11,0,0,0,.43.12,3.08,3.08,0,0,0,1.21,0,4.38,4.38,0,0,0,3-2.06,3.12,3.12,0,0,1,2.39-1.55,12,12,0,0,1,4.54,0,7.74,7.74,0,0,0,3.18,0,3.71,3.71,0,0,0,2.82-2,4.56,4.56,0,0,0,.39-3.12A3.24,3.24,0,0,0,168.76,251.45Z"/><path d="M168.76,354.36a1.77,1.77,0,0,0-1.82-.76,1.44,1.44,0,0,0-1.27,1,6.91,6.91,0,0,0-.37,1.17,1.2,1.2,0,0,1-.75.91,3.94,3.94,0,0,1-1.9.45c-1.31-.05-2.62-.13-3.94-.2-.57,0-1.15-.1-1.72-.1a4.2,4.2,0,0,0-3.27,1.46c-.42.45-.83.91-1.23,1.39a8.48,8.48,0,0,0-1.61,2.89,1,1,0,0,0,.94,1.5,3.93,3.93,0,0,0,4-1.95,3.39,3.39,0,0,1,2.83-1.71,13.49,13.49,0,0,1,4.3.12,8.43,8.43,0,0,0,1.32.13,6.27,6.27,0,0,0,1.5-.1,3.87,3.87,0,0,0,3-2.05,4.56,4.56,0,0,0,.39-3.12A3.43,3.43,0,0,0,168.76,354.36Z"/><path d="M65.71,354.13a1.73,1.73,0,0,0-2.44-.13,1.84,1.84,0,0,0-.41.55c-.25.56-.41,1.16-.61,1.74a3.37,3.37,0,0,1-2.38.84c-1.36,0-2.71-.12-4.06-.19-.62,0-1.23-.1-1.85-.1a4.12,4.12,0,0,0-2.89,1.21,12.46,12.46,0,0,0-2.27,2.74,11.86,11.86,0,0,0-.8,1.91,1,1,0,0,0,.58,1.29,1,1,0,0,0,.25.06,3.57,3.57,0,0,0,1.22,0,4.31,4.31,0,0,0,3-2,3.18,3.18,0,0,1,2.48-1.62,13.12,13.12,0,0,1,4.42.05,8.28,8.28,0,0,0,3.06,0,3.78,3.78,0,0,0,3.26-2.65,4.76,4.76,0,0,0,.08-2.67A2.63,2.63,0,0,0,65.71,354.13Z"/><path d="M115.75,359.58a10,10,0,0,1,1.86-4.55h.21l.35.08a6.5,6.5,0,0,0,6.16-1.14,1.5,1.5,0,0,0,.64-.86,2.67,2.67,0,0,0-.23-1.92,2.06,2.06,0,0,0-2.76-.93l-.18.1c-.18.1-.34.23-.52.34a2,2,0,0,1-2.31,0l-.5-.35a2.15,2.15,0,0,0-3.31.55c-.81,1.14-1.55,2.32-2.26,3.52a11.27,11.27,0,0,0-1.28,3.32,6.05,6.05,0,0,0-.13,2.32,2.07,2.07,0,0,0,1.82,1.75,2.24,2.24,0,0,0,2.24-1.21A3.92,3.92,0,0,0,115.75,359.58Z"/><path d="M113.57,258.83a2.19,2.19,0,0,0,2.16-1.81,7.51,7.51,0,0,1,.21-1.33,9.53,9.53,0,0,1,1.68-3.57h.21c.2,0,.4.08.6.14a6.47,6.47,0,0,0,6-1.31,1.74,1.74,0,0,0,.53-.8,2.43,2.43,0,0,0-.89-2.63,2,2,0,0,0-2.51.07,2.18,2.18,0,0,1-2.92-.06l-.2-.15a2.2,2.2,0,0,0-3.09.26,3.62,3.62,0,0,0-.22.32c-.74,1-1.43,2.1-2.08,3.19a12.55,12.55,0,0,0-1.45,3.65,6.05,6.05,0,0,0-.12,2.32A2.05,2.05,0,0,0,113.57,258.83Z"/><path d="M118.46,144.5a2.24,2.24,0,0,0-3.15.31,1.44,1.44,0,0,0-.18.25c-.67,1.07-1.41,2.11-2.07,3.2a11.17,11.17,0,0,0-1.43,3.65,8.47,8.47,0,0,0-.16,2.07,2,2,0,0,0,2,2,2.12,2.12,0,0,0,2.29-1.92c.06-.4.11-.81.21-1.21a9.32,9.32,0,0,1,1.75-3.64c.19,0,.35.07.5.12a6.48,6.48,0,0,0,6.15-1.15,1.45,1.45,0,0,0,.63-.88,2.48,2.48,0,0,0-.88-2.64,2,2,0,0,0-2.51.05,2.11,2.11,0,0,1-2.92,0A1.51,1.51,0,0,1,118.46,144.5Z"/><path d="M70.07,329.33A2.31,2.31,0,0,0,67.33,331a3,3,0,0,1-1,1.62c-.34.3-.7.58-1,.87-.73.6-1.47,1.19-2.18,1.82a7,7,0,0,0-2.1,3.48,17.68,17.68,0,0,0-.51,4.16A2,2,0,0,0,62.44,345h.13a2.13,2.13,0,0,0,2.27-2,.49.49,0,0,0,0-.12c.05-.62.11-1.23.13-1.85a3.9,3.9,0,0,1,1.62-3c.73-.59,1.48-1.18,2.17-1.83a18.49,18.49,0,0,0,1.76-1.89,5.52,5.52,0,0,0,1.12-2.83,1.87,1.87,0,0,0-1.51-2.17Z"/><path d="M173.52,128.35a4.87,4.87,0,0,0,1-2.76,1.87,1.87,0,0,0-1.66-2.06h-.28a2.3,2.3,0,0,0-2.33,1.64,3.38,3.38,0,0,1-1.37,2c-.29.22-.58.45-.86.69-.61.49-1.22,1-1.81,1.49a7.44,7.44,0,0,0-2.53,4.54c-.15.89-.22,1.8-.31,2.51v.93a1.88,1.88,0,0,0,1.37,1.85,2.2,2.2,0,0,0,2.83-1.27,2.12,2.12,0,0,0,.1-.36,9.46,9.46,0,0,0,.15-1.84,4.17,4.17,0,0,1,1.66-3.42c.84-.66,1.67-1.34,2.45-2.08A14,14,0,0,0,173.52,128.35Z"/><path d="M66.15,278.15a2.76,2.76,0,0,1-2.11-1.7,6.42,6.42,0,0,1-.62-2.62,14.7,14.7,0,0,0-.1-2.09,11,11,0,0,0-.67-3,2.38,2.38,0,0,0-2.14-1.58,1.84,1.84,0,0,0-2.09,1.16,6.88,6.88,0,0,0-.43,2.29c.09.57.14,1.27.31,1.94a32.27,32.27,0,0,0,.89,3.2,17.06,17.06,0,0,0,1.15,2.84,7,7,0,0,0,4.51,3.56,5.4,5.4,0,0,0,1.7.12,1.89,1.89,0,0,0,1.66-1.45,1.82,1.82,0,0,0-.74-2.06A2.91,2.91,0,0,0,66.15,278.15Z"/><path d="M69.94,123.54a2.3,2.3,0,0,0-2.61,1.73,2.85,2.85,0,0,1-1,1.62c-.34.29-.7.57-1,.86-.69.57-1.4,1.13-2.08,1.73a7,7,0,0,0-2.29,4.12c-.19,1.13-.3,2.27-.4,3,0,1.72.77,2.63,2.05,2.66a2.18,2.18,0,0,0,2.33-2c0-.66.12-1.31.13-2a3.78,3.78,0,0,1,1.56-2.94c.7-.57,1.41-1.13,2.07-1.74a23.54,23.54,0,0,0,1.87-2,5.59,5.59,0,0,0,1.17-2.93,1.88,1.88,0,0,0-1.63-2.1Z"/><path d="M172,329.33a2.11,2.11,0,0,0-1.82,1.62,3.44,3.44,0,0,1-1.38,2l-.77.62c-.64.52-1.28,1-1.9,1.57a7.36,7.36,0,0,0-2.52,4.55c-.15.89-.23,1.79-.3,2.44a5.64,5.64,0,0,0,0,1.12,1.79,1.79,0,0,0,1.14,1.62,2.23,2.23,0,0,0,3-1,2.55,2.55,0,0,0,.18-.53,6.13,6.13,0,0,0,.12-1.48,4.55,4.55,0,0,1,2-4,20.89,20.89,0,0,0,2.16-1.83,15.09,15.09,0,0,0,1.63-1.85,5,5,0,0,0,.94-2.64,1.95,1.95,0,0,0-2.46-2.18Z"/><path d="M170.21,278.7a3.92,3.92,0,0,0-1.22-.54,2.78,2.78,0,0,1-2-1.61,6.06,6.06,0,0,1-.65-2.6,26.29,26.29,0,0,0-.25-3.07,13.53,13.53,0,0,0-.62-2.24,2.13,2.13,0,0,0-1.83-1.44,1.93,1.93,0,0,0-2.39,1.29s0,.05,0,.08a6.46,6.46,0,0,0-.29,1.44,8.24,8.24,0,0,0,.33,2.92c.18.63.34,1.26.54,1.89.36,1.09.68,2.2,1.14,3.24a7.26,7.26,0,0,0,3.3,3.53,5.86,5.86,0,0,0,2.65.74h.42a2,2,0,0,0,1.77-1.49A1.81,1.81,0,0,0,170.21,278.7Z"/><path d="M173,226.44a2.26,2.26,0,0,0-2.75,1.61v.06A3.42,3.42,0,0,1,169,229.9l-1.06.85-1.8,1.49a7.35,7.35,0,0,0-2.45,4.45c-.16.89-.23,1.79-.31,2.44a6.18,6.18,0,0,0,0,1.24,1.74,1.74,0,0,0,1.31,1.62,2.22,2.22,0,0,0,3-1.82,8.74,8.74,0,0,0,.08-1.35,4.45,4.45,0,0,1,1.92-3.92c.76-.56,1.46-1.2,2.18-1.82a8.08,8.08,0,0,0,1.77-2.05,5.22,5.22,0,0,0,.84-2.79A1.76,1.76,0,0,0,173,226.44Z"/><path d="M70.45,231.53a5.83,5.83,0,0,0,1.19-2.93,1.81,1.81,0,0,0-1.18-2.07,2.3,2.3,0,0,0-3,1.25,2,2,0,0,0-.08.22,4.06,4.06,0,0,1-1.45,2.07c-.87.69-1.74,1.39-2.58,2.11a7.13,7.13,0,0,0-2.51,4.41c-.17,1.09-.28,2.2-.37,3,0,1.5.56,2.3,1.59,2.51a2.2,2.2,0,0,0,2.63-1.3,4.87,4.87,0,0,0,.17-1.08c.08-.74.13-1.48.21-2.21a2.7,2.7,0,0,1,.72-1.54,12.79,12.79,0,0,1,1.08-1c.71-.62,1.46-1.2,2.15-1.84A12.77,12.77,0,0,0,70.45,231.53Z"/><path d="M162.9,175.21a7.26,7.26,0,0,0,2.19,2.78,6.77,6.77,0,0,0,3.81,1.44,4.2,4.2,0,0,0,.79-.13,1.83,1.83,0,0,0,1.38-1.42,1.78,1.78,0,0,0-.74-1.95,3,3,0,0,0-1.32-.62,2.76,2.76,0,0,1-2.11-1.7,6,6,0,0,1-.6-2.5,27.53,27.53,0,0,0-.23-3,16.16,16.16,0,0,0-.58-2.25,2.34,2.34,0,0,0-2.13-1.62,1.78,1.78,0,0,0-2,1,4.06,4.06,0,0,0-.5,1.77,8.3,8.3,0,0,0,.27,2.81c.3,1.11.6,2.22.94,3.31A17.67,17.67,0,0,0,162.9,175.21Z"/><path d="M60,175.13a7.25,7.25,0,0,0,2.16,2.8,6.81,6.81,0,0,0,3.91,1.5,1.7,1.7,0,0,0,.67-.1,1.92,1.92,0,0,0,1.5-1.48,1.79,1.79,0,0,0-.78-1.94,3.11,3.11,0,0,0-1.32-.6,2.75,2.75,0,0,1-2-1.61,6.51,6.51,0,0,1-.67-2.74,15.18,15.18,0,0,0-.09-2,11.48,11.48,0,0,0-.69-3.11,2.42,2.42,0,0,0-2-1.57,1.81,1.81,0,0,0-2.08,1,4.8,4.8,0,0,0-.39,1.16,7,7,0,0,0,.16,3.29c.26,1,.54,2.07.86,3.09A24,24,0,0,0,60,175.13Z"/><path d="M86,281.21c-.11-.78-.21-1.55-.35-2.32A6.64,6.64,0,0,0,83.27,275a2,2,0,0,0-2.7.06c-.6.51-.63,1.31-.1,2.24.1.18.23.34.34.51.24.39.47.78.71,1.16a2.82,2.82,0,0,1,.4,2,4.13,4.13,0,0,1-1.51,3.39l-1.16,1.11A11.78,11.78,0,0,0,77,288.19a5.45,5.45,0,0,0-.71,1.95,2.82,2.82,0,0,0,.06,1,1.42,1.42,0,0,0,1.71,1.05,1.34,1.34,0,0,0,.44-.19,2.8,2.8,0,0,0,.76-.61,36.68,36.68,0,0,0,3-3.58,12.64,12.64,0,0,1,2.65-3,2.56,2.56,0,0,0,.88-1.45A5.22,5.22,0,0,0,86,281.21Z"/><path d="M72.78,215.55a2.3,2.3,0,0,0,.19-2.24,4.31,4.31,0,0,0-1.19-1.7c-.82-.68-1.66-1.34-2.51-2a3.59,3.59,0,0,0-.87-.45,7.66,7.66,0,0,0-4.23-.51,3.68,3.68,0,0,1-2.5-.38c-.62-.32-1.24-.64-1.88-.93a8.89,8.89,0,0,0-1.49-.55,2.11,2.11,0,0,0-2.53,1.05,6.36,6.36,0,0,0-.31.71,3.68,3.68,0,0,0,.54.5c1,.62,2,1.24,3.06,1.83A18.06,18.06,0,0,0,61.25,212a3.86,3.86,0,0,0,2.65.25,4.7,4.7,0,0,1,2.55.1,1.73,1.73,0,0,1,1.42,1.5,12.45,12.45,0,0,0,.5,2,4.85,4.85,0,0,0,.61,1.2.92.92,0,0,0,1.07.41A4.36,4.36,0,0,0,72.78,215.55Z"/><path d="M85.64,176.26a6.75,6.75,0,0,0-2.38-4.18,1.9,1.9,0,0,0-2-.34,1.54,1.54,0,0,0-1.15,1.85,1.32,1.32,0,0,0,.15.39,8.92,8.92,0,0,0,.49.85c.3.5.61,1,.89,1.48a2.32,2.32,0,0,1,.28.8A4.62,4.62,0,0,1,80.78,181l-1.32,1.3a12.43,12.43,0,0,0-2.4,3,5.29,5.29,0,0,0-.72,1.95,2.8,2.8,0,0,0,0,1,1.46,1.46,0,0,0,1.76,1.08,1.68,1.68,0,0,0,.39-.16,2.83,2.83,0,0,0,.76-.62,36.44,36.44,0,0,0,3-3.56,11,11,0,0,1,2.38-2.81A3.74,3.74,0,0,0,86,179C85.91,178.13,85.78,177.19,85.64,176.26Z"/><path d="M167.09,311.58a4,4,0,0,1-2.5-.35c-.73-.37-1.46-.75-2.22-1.07a6.69,6.69,0,0,0-1.64-.47,2,2,0,0,0-2.24,1.35.63.63,0,0,0,.18.86l.13.06c1.13.67,2.25,1.36,3.38,2a14.07,14.07,0,0,0,1.63.86,4.55,4.55,0,0,0,3.12.31,4.58,4.58,0,0,1,2.54.19,1.63,1.63,0,0,1,1.25,1.37,13.5,13.5,0,0,0,.33,1.56,9.24,9.24,0,0,0,.67,1.59,1,1,0,0,0,1.24.54,4.14,4.14,0,0,0,2.76-2.1,6.6,6.6,0,0,0,.34-1.15c-.1-.36-.16-.68-.27-1a4.07,4.07,0,0,0-1.29-1.77c-.57-.48-1.15-.93-1.73-1.39A7.15,7.15,0,0,0,167.09,311.58Z"/><path d="M56,312l3.28,2a12.62,12.62,0,0,0,1.62.87,4.71,4.71,0,0,0,3.24.35,4.41,4.41,0,0,1,2.66.24,1.47,1.47,0,0,1,1.06,1.24,10,10,0,0,0,.22,1.09A6.49,6.49,0,0,0,68.9,320a1.08,1.08,0,0,0,1.28.5,4.22,4.22,0,0,0,2.68-2,2.3,2.3,0,0,0,.15-2.13,4.55,4.55,0,0,0-1.27-1.79q-.9-.77-1.83-1.47a7,7,0,0,0-5.56-1.42,4.43,4.43,0,0,1-2.73-.4c-.74-.37-1.46-.76-2.22-1.08a15.34,15.34,0,0,0-1.63-.5,2.26,2.26,0,0,0-2.1,1.33C55.41,311.45,55.49,311.69,56,312Z"/><path d="M105.2,348.09a2.69,2.69,0,0,0-3.78.43,2.65,2.65,0,0,0-.52,1.08,12,12,0,0,0-.26,1.33,10.51,10.51,0,0,0-.17,1.47,8.41,8.41,0,0,1-1,3.77,4.2,4.2,0,0,0-.49,2.08,5,5,0,0,0,0,.55,7.18,7.18,0,0,0,5,5.74,2,2,0,0,0,.49.1,1.09,1.09,0,0,0,1.16-.72,1.38,1.38,0,0,0,0-1.09,7.92,7.92,0,0,0-.62-1.19c-.36-.5-.8-.94-1.17-1.43s-.6-.88-.87-1.34a2.71,2.71,0,0,1,.25-3.22l3.15-4.41a1.52,1.52,0,0,0,0-2.16.86.86,0,0,0-.14-.13A8.29,8.29,0,0,0,105.2,348.09Z"/><path d="M186.13,172.1a1.91,1.91,0,0,0-2.18-.27,1.45,1.45,0,0,0-1,1.81,1.3,1.3,0,0,0,.13.3,6.53,6.53,0,0,0,.48.86c.31.52.65,1,.94,1.58a2,2,0,0,1,.28.81,4.58,4.58,0,0,1-1.07,3.67c-.39.42-.81.82-1.21,1.23s-.95.91-1.38,1.41a7.92,7.92,0,0,0-1.79,3.05,3.75,3.75,0,0,0-.17,1.45,1.45,1.45,0,0,0,1.63,1.26,1.52,1.52,0,0,0,.51-.16,3.19,3.19,0,0,0,.86-.69,39.48,39.48,0,0,0,3-3.58,12.16,12.16,0,0,1,2.67-3.05,2,2,0,0,0,.73-1.11c.12-.51.2-1,.29-1.52-.12-.87-.26-1.68-.34-2.49A6.78,6.78,0,0,0,186.13,172.1Z"/><path d="M174.59,211.57c-.6-.51-1.23-1-1.82-1.48a6.69,6.69,0,0,0-3.24-1.4,6.54,6.54,0,0,0-2.57,0,3.52,3.52,0,0,1-2.38-.36c-.66-.34-1.31-.69-2-1a7.23,7.23,0,0,0-1.62-.56,2.15,2.15,0,0,0-2.49,1.35.66.66,0,0,0,.25.89l.07,0c1.13.67,2.24,1.36,3.38,2A14.21,14.21,0,0,0,164,212a4.3,4.3,0,0,0,2.89.23,4.25,4.25,0,0,1,2.18.09,1.88,1.88,0,0,1,1.65,1.72,12.51,12.51,0,0,0,.52,2,3.58,3.58,0,0,0,.58,1.07,1,1,0,0,0,1.1.36,4.55,4.55,0,0,0,2.57-1.79A2.66,2.66,0,0,0,176,214a4.43,4.43,0,0,0-.2-.73A3.89,3.89,0,0,0,174.59,211.57Z"/><path d="M99.3,150.68a4.7,4.7,0,0,0-.37,1.38,6.57,6.57,0,0,0,.59,2.79,7.32,7.32,0,0,0,4.4,3.9,1.24,1.24,0,0,0,1.39-.15,1.38,1.38,0,0,0,.33-1.59,5.45,5.45,0,0,0-.49-1,12.52,12.52,0,0,0-.76-1,10.84,10.84,0,0,1-.79-1,9.25,9.25,0,0,1-.92-1.73,2.59,2.59,0,0,1,.54-2.43c1.06-1.51,2.14-3,3.22-4.51a1.5,1.5,0,0,0,0-2.12l-.09-.08a7,7,0,0,0-1.36-1.06,2.63,2.63,0,0,0-4,1.6,10.2,10.2,0,0,0-.32,1.82A12.16,12.16,0,0,1,99.3,150.68Z"/><path d="M106.46,248.25a1.48,1.48,0,0,0-.07-2.08l0,0a8.49,8.49,0,0,0-1.13-.95,2.69,2.69,0,0,0-3.78.41,2.55,2.55,0,0,0-.53,1.08,9.65,9.65,0,0,0-.27,1.32,12.26,12.26,0,0,0-.17,1.47,8.41,8.41,0,0,1-1,3.77,4,4,0,0,0-.47,2,2.29,2.29,0,0,0,0,.37,7.14,7.14,0,0,0,5.26,6.06,1.18,1.18,0,0,0,1.49-.78,1.15,1.15,0,0,0,0-.61,3.12,3.12,0,0,0-.41-1.14,9.65,9.65,0,0,0-.8-1.1,11.38,11.38,0,0,1-.94-1.14,8,8,0,0,1-.9-1.74,2.67,2.67,0,0,1,.63-2.52Z"/><path d="M56,106.23c1,.58,2,1.19,3,1.76a22.5,22.5,0,0,0,2.17,1.15,4.21,4.21,0,0,0,2.9.24,4.74,4.74,0,0,1,2.53.18,1.54,1.54,0,0,1,1.26,1.35,6.79,6.79,0,0,0,.22,1.09,17.65,17.65,0,0,0,.72,2,1.1,1.1,0,0,0,1.41.68l.13-.05a4.32,4.32,0,0,0,2.42-1.81,2.41,2.41,0,0,0,.22-2.35,4.4,4.4,0,0,0-1.2-1.69c-.57-.47-1.16-.92-1.73-1.39a7,7,0,0,0-5.77-1.53,4.42,4.42,0,0,1-2.72-.43c-.7-.35-1.39-.73-2.1-1a13,13,0,0,0-1.38-.44,2.22,2.22,0,0,0-2.36,1.23C55.4,105.67,55.48,105.91,56,106.23Z"/><path d="M158.8,106.2c1.16.69,2.31,1.4,3.48,2.08a19.13,19.13,0,0,0,1.88.91,4,4,0,0,0,2.65.21,4.75,4.75,0,0,1,2.31.07,1.82,1.82,0,0,1,1.65,1.71,7.11,7.11,0,0,0,.31,1.44,6.75,6.75,0,0,0,.57,1.36,1.08,1.08,0,0,0,1.39.64l.05,0a4.17,4.17,0,0,0,2.64-2.07,2.37,2.37,0,0,0,.11-2,4.2,4.2,0,0,0-1.25-1.8c-.57-.48-1.16-.92-1.73-1.39a7,7,0,0,0-5.77-1.51,4.28,4.28,0,0,1-2.61-.39c-.7-.34-1.38-.72-2.1-1a14.9,14.9,0,0,0-1.47-.49,2.27,2.27,0,0,0-2.43,1.37.65.65,0,0,0,.3.87Z"/><path d="M90.52,231.6v.52a6,6,0,0,0,2.49,4,13.32,13.32,0,0,1,2,1.67,3.47,3.47,0,0,0,.73.65,2.54,2.54,0,0,0,1,.38,3,3,0,0,0,2.69-1.66,1.86,1.86,0,0,0-.83-2.5,2.09,2.09,0,0,0-.35-.13c-.39-.12-.8-.22-1.18-.38a12.61,12.61,0,0,1-1.42-.72,1.55,1.55,0,0,1,.15-2.72c.23-.1.45-.21.68-.29.82-.28,1.63-.56,2.45-.81a1.51,1.51,0,0,0,1.08-.75,2.1,2.1,0,0,0-.93-2.83,1.89,1.89,0,0,0-.45-.17,4.21,4.21,0,0,0-1-.12A3.63,3.63,0,0,0,96,226a21.49,21.49,0,0,0-4.15,2.65A3.64,3.64,0,0,0,90.52,231.6Z"/><path d="M93.1,133.28a10.63,10.63,0,0,1,1.9,1.58,5.72,5.72,0,0,0,.73.66,2.27,2.27,0,0,0,.9.36,2.84,2.84,0,0,0,2.83-1.57,1.87,1.87,0,0,0-.77-2.52,2.13,2.13,0,0,0-.35-.14c-.47-.15-1-.28-1.4-.47a7.08,7.08,0,0,1-1.3-.7,1.53,1.53,0,0,1-.43-2.11,1.49,1.49,0,0,1,.61-.53,5.79,5.79,0,0,1,.67-.31c.81-.28,1.62-.59,2.46-.8a1.53,1.53,0,0,0,1.28-1.44,1.91,1.91,0,0,0-1.17-2.2,2.94,2.94,0,0,0-2-.22,6.22,6.22,0,0,0-1.17.4A21.94,21.94,0,0,0,92,125.8a3.83,3.83,0,0,0-1.39,3.07,7.62,7.62,0,0,0,.2,1.06A6.11,6.11,0,0,0,93.1,133.28Z"/><path d="M98.3,337.41a11.37,11.37,0,0,1-1.17-.37,9.57,9.57,0,0,1-1.52-.8,1.54,1.54,0,0,1-.4-2.13,1.56,1.56,0,0,1,.6-.51l.56-.25a12.61,12.61,0,0,1,2.68-.9,1.3,1.3,0,0,0,1-.69,2.07,2.07,0,0,0-1.22-3,6.86,6.86,0,0,0-1-.22,5.49,5.49,0,0,0-2.7.84c-1,.62-2,1.25-3,2a3.89,3.89,0,0,0-1.25,4.94,6.5,6.5,0,0,0,2.39,2.92,14.46,14.46,0,0,1,1.42,1.17,11.79,11.79,0,0,0,.9.84,2.33,2.33,0,0,0,1,.45,2.92,2.92,0,0,0,2.92-1.83,1.86,1.86,0,0,0-1.06-2.41Z"/><path d="M195.62,133a26.56,26.56,0,0,1,2.61,2.24,2.14,2.14,0,0,0,2.27.56,2.86,2.86,0,0,0,1.76-1.45,1.87,1.87,0,0,0-.7-2.54,1.83,1.83,0,0,0-.46-.18,13.64,13.64,0,0,1-1.4-.49,7,7,0,0,1-1.29-.71,1.54,1.54,0,0,1,.2-2.58c.22-.1.44-.22.67-.31a12.91,12.91,0,0,1,2.57-.85,1.42,1.42,0,0,0,1.2-1.23,2,2,0,0,0-1.22-2.4,10.32,10.32,0,0,0-1.35-.36,13.18,13.18,0,0,0-1.62.5,19.54,19.54,0,0,0-4.15,2.63,3.49,3.49,0,0,0-1.3,2.82A5.39,5.39,0,0,0,195.62,133Z"/><path d="M51,341.57a2.23,2.23,0,0,0-.29-2,3.24,3.24,0,0,0-4-1.15,10.3,10.3,0,0,0-5.57,7.13,14.67,14.67,0,0,0-.22,1.87,21.77,21.77,0,0,0,.43,2.39,13.22,13.22,0,0,0,.91,2.28,1,1,0,0,0,1.31.53l0,0a2.19,2.19,0,0,0,1.62-2.2,8.42,8.42,0,0,0,0-1.23,9.67,9.67,0,0,1,.73-3.72,4.15,4.15,0,0,1,1.09-1.62,6.94,6.94,0,0,1,3-1.51A1.06,1.06,0,0,0,51,341.57Z"/><path d="M41.11,221.91a12.72,12.72,0,0,0,1.48.6,3.2,3.2,0,0,1,1.38,1c.42.5.86,1,1.32,1.47A4.81,4.81,0,0,0,48,226.4a14.71,14.71,0,0,0,1.48.1v.08a11.32,11.32,0,0,0,1.92-.32c1.13-.37,2.22-.83,3.32-1.3a3.81,3.81,0,0,0,1.71-1.36,1.33,1.33,0,0,0,.07-1.5A2.11,2.11,0,0,0,53.74,221a2.19,2.19,0,0,0-.8.61,3.6,3.6,0,0,1-5.08-.1l-.23-.27c-.13-.17-.21-.36-.33-.52a7,7,0,0,0-2.91-2.4,3.46,3.46,0,0,0-3.51.35,1.88,1.88,0,0,0-.51,2.61A1.91,1.91,0,0,0,41.11,221.91Z"/><path d="M153.71,342a2.68,2.68,0,0,0,.29-1,2.22,2.22,0,0,0-.47-1.61,3.21,3.21,0,0,0-4-1,10.25,10.25,0,0,0-5.5,7,12.92,12.92,0,0,0-.22,1.5A11.17,11.17,0,0,0,145,351.7a3.62,3.62,0,0,0,.24.43,1.05,1.05,0,0,0,1.27.49,2.16,2.16,0,0,0,1.67-2.14,16.33,16.33,0,0,1,.63-4.61c.66-2.05,2.23-2.95,4.09-3.54C153.16,342.23,153.54,342.28,153.71,342Z"/><path d="M149.5,132.71a10.27,10.27,0,0,0-5.4,7,10,10,0,0,0-.23,1.63,11.28,11.28,0,0,0,1.08,4.6c.07.15.15.29.23.43a1,1,0,0,0,1.38.48,2.14,2.14,0,0,0,1.58-2.2,15.92,15.92,0,0,1,.62-4.5A5.42,5.42,0,0,1,153,136.6c.65-.18.94-.4,1.05-1a2.44,2.44,0,0,0-.85-2.32A3.15,3.15,0,0,0,149.5,132.71Z"/><path d="M144,324.81a3.25,3.25,0,0,0,.79.34,4.53,4.53,0,0,1,2.56,1.81c.1.13.21.25.32.37a5.21,5.21,0,0,0,4.15,2.06l.84.06a4,4,0,0,0,1.71-.29c1-.39,2-.78,3-1.2a4,4,0,0,0,1.92-1.48,1.33,1.33,0,0,0,.13-1.28,2.17,2.17,0,0,0-2.78-1.3,2.05,2.05,0,0,0-.84.55,3.13,3.13,0,0,1-2.26,1.08,3.48,3.48,0,0,1-3.22-1.69,7.83,7.83,0,0,0-1.86-1.95,4.18,4.18,0,0,0-2.23-.95,3.35,3.35,0,0,0-2.55.7,1.87,1.87,0,0,0-.35,2.62A2,2,0,0,0,144,324.81Z"/><path d="M47.07,132.5a8.53,8.53,0,0,0-2.42,1.5,11.39,11.39,0,0,0-3.07,4.4,9.48,9.48,0,0,0-.62,3.2c.06.51.09,1.08.19,1.65a9.4,9.4,0,0,0,1,3,1.09,1.09,0,0,0,1.4.65,1.19,1.19,0,0,0,.25-.13,2,2,0,0,0,1.42-2.08,10.1,10.1,0,0,0,0-1.23,9.5,9.5,0,0,1,.69-3.61,3.94,3.94,0,0,1,1.49-2,6,6,0,0,1,2.66-1.2,1,1,0,0,0,.87-.74,2.68,2.68,0,0,0,.08-1.09,3.14,3.14,0,0,0-3.81-2.3Z"/><path d="M155.77,221.57a3.52,3.52,0,0,1-5,0,3.9,3.9,0,0,1-.33-.38c-.12-.17-.2-.36-.33-.52a7.07,7.07,0,0,0-2.8-2.34,3.54,3.54,0,0,0-3.53.26,1.89,1.89,0,0,0-.62,2.59,1.86,1.86,0,0,0,.84.73,7.23,7.23,0,0,0,1.26.51,3.76,3.76,0,0,1,1.77,1.27,14.6,14.6,0,0,0,1.24,1.37,4.62,4.62,0,0,0,3.19,1.38h.87a5.55,5.55,0,0,0,1.35,0A5.76,5.76,0,0,0,155,226c.68-.29,1.37-.54,2.06-.82a5.42,5.42,0,0,0,1.78-1.08c.91-.87,1-1.74-.11-2.73a2,2,0,0,0-2.83,0Z"/><path d="M42.17,249a1.13,1.13,0,0,0,1.47.66.66.66,0,0,0,.19-.09,2.06,2.06,0,0,0,1.43-2.08,12.16,12.16,0,0,0,0-1.35,9.35,9.35,0,0,1,.55-3.14c.59-2.11,2.23-3,4.14-3.63.79-.25,1.07-.43,1.14-1.19a2.43,2.43,0,0,0-.67-1.92,4,4,0,0,0-2.66-1.16c-.19.06-.51.14-.81.26A9,9,0,0,0,44.39,237a11.4,11.4,0,0,0-2.15,2.82,8.88,8.88,0,0,0-1,6.53A9.61,9.61,0,0,0,42.17,249Z"/><path d="M146,249.74c.73.09,2.16-.85,2.13-1.85,0-.57.07-1.15.06-1.72a9.67,9.67,0,0,1,.72-3.6,4,4,0,0,1,1.25-1.79A6.1,6.1,0,0,1,153,239.4a1.08,1.08,0,0,0,1-1,2.39,2.39,0,0,0-.31-1.77,3.45,3.45,0,0,0-4-1.22,10.56,10.56,0,0,0-5.57,7.13,13.93,13.93,0,0,0-.25,1.7,11.42,11.42,0,0,0,1.13,4.52,5.74,5.74,0,0,0,.32.53A1,1,0,0,0,146,249.74Z"/><path d="M45.56,116.15a4.4,4.4,0,0,0-2-.94,3.33,3.33,0,0,0-2.79.63,1.89,1.89,0,0,0-.37,2.65A2,2,0,0,0,41,119a8,8,0,0,0,1.25.52,4,4,0,0,1,1.87,1.33,16.56,16.56,0,0,0,1.33,1.45,4.29,4.29,0,0,0,2.27,1.17c.68.11,1.39.12,2.16.19A5.75,5.75,0,0,0,52,123.2c.72-.29,1.45-.57,2.16-.88a9.14,9.14,0,0,0,1.21-.61,3.14,3.14,0,0,0,1.11-1.12,1.2,1.2,0,0,0,.1-1.06,2.19,2.19,0,0,0-2.76-1.41,2.13,2.13,0,0,0-.92.58,3.36,3.36,0,0,1-1.31.89,3.53,3.53,0,0,1-4.11-1.38A9.17,9.17,0,0,0,45.56,116.15Z"/><path d="M42.21,325.28a3.77,3.77,0,0,1,2,1.39c.22.29.48.56.73.84a5.08,5.08,0,0,0,3.86,1.87l1,.07a5.16,5.16,0,0,0,2.41-.54c.65-.27,1.3-.5,1.94-.78a8.23,8.23,0,0,0,1.41-.74,4.69,4.69,0,0,0,.94-1,1.14,1.14,0,0,0,.1-1.27,2.17,2.17,0,0,0-3.63-.68,3.23,3.23,0,0,1-2.77,1,3.51,3.51,0,0,1-2.74-1.66,6.88,6.88,0,0,0-2.79-2.53,3.55,3.55,0,0,0-3.64.15,1.91,1.91,0,0,0-.65,2.62,1.94,1.94,0,0,0,.88.77A4.41,4.41,0,0,0,42.21,325.28Z"/><path d="M144,119.05a8,8,0,0,0,1.25.51,3.89,3.89,0,0,1,1.78,1.26,15.89,15.89,0,0,0,1.42,1.54,4.28,4.28,0,0,0,2.4,1.16c.57.08,1.14.1,1.71.14a4.17,4.17,0,0,0,2-.36c.84-.35,1.69-.65,2.51-1a8.24,8.24,0,0,0,1.39-.78,3.79,3.79,0,0,0,.75-.8,1.21,1.21,0,0,0,.12-1.28,2.18,2.18,0,0,0-2.83-1.26,2,2,0,0,0-.8.53,3.45,3.45,0,0,1-1.18.86,3.49,3.49,0,0,1-4.21-1.39,9,9,0,0,0-1.84-2,4.56,4.56,0,0,0-2-1,3.39,3.39,0,0,0-2.81.58,1.87,1.87,0,0,0-.52,2.59A1.84,1.84,0,0,0,144,119.05Z"/><path d="M88.5,345a5.69,5.69,0,0,0-5.28-2.89l-4.36.37a3,3,0,0,0-.59.15c-.89.32-1.79.62-2.65,1a9.84,9.84,0,0,0-1.56,1,1.86,1.86,0,0,0-.7,1.13,1.39,1.39,0,0,0,.93,1.73l.07,0a4.52,4.52,0,0,0,4-.33,7,7,0,0,1,2.49-1,3.49,3.49,0,0,1,3.8,1.4,2.65,2.65,0,0,0,1.14.9,2.21,2.21,0,0,0,2.52-.42,2,2,0,0,0,.51-2.36A2.61,2.61,0,0,0,88.5,345Z"/><path d="M74.32,141.72a4.58,4.58,0,0,0,4-.33,9,9,0,0,1,1.9-.86,3.71,3.71,0,0,1,4.47,1.34,2.28,2.28,0,0,0,1.53.95A2.18,2.18,0,0,0,88.83,140a3.41,3.41,0,0,0-.41-.89c-1.23-1.72-2.76-2.94-5-2.77l-4.18.31H79a1.05,1.05,0,0,0-.24.06c-1.23.46-2.46.91-3.67,1.42a5,5,0,0,0-1.1.78,1.86,1.86,0,0,0-.6,1.05,1.39,1.39,0,0,0,.9,1.75Z"/><path d="M95.38,281.44a2.41,2.41,0,0,0,1.19,3.19,2.43,2.43,0,0,0,.52.17c.81.22,1.11.11,1.41-.7a4.1,4.1,0,0,1,1.42-1.82,5,5,0,0,1,2.62-1,11.59,11.59,0,0,0,1.94-.34,27.37,27.37,0,0,0,4.75-2.3,3.74,3.74,0,0,0,.91-.82,3,3,0,0,0,.44-.73,1,1,0,0,0-.08-1.06,1.78,1.78,0,0,0-2-1,5.63,5.63,0,0,0-2.75,1.28,4,4,0,0,1-3,1c-.65,0-1.31-.09-2-.15a7.4,7.4,0,0,1-.84-.11,3,3,0,0,0-2.38,1.12c-.54.67-1.09,1.34-1.6,2A5.49,5.49,0,0,0,95.38,281.44Z"/><path d="M177.22,141.74a4.62,4.62,0,0,0,4-.38,10.21,10.21,0,0,1,2-.88,4,4,0,0,1,1.09-.18,3.31,3.31,0,0,1,3.09,1.42,2.51,2.51,0,0,0,1.35,1,2.29,2.29,0,0,0,2.4-.52,2.1,2.1,0,0,0,.48-2.28,2.88,2.88,0,0,0-.43-.88c-1.25-1.71-2.79-2.91-5.07-2.74l-1.59.15c-.61,0-1.23.15-1.84.15a6.15,6.15,0,0,0-2.16.42c-.69.27-1.39.5-2.06.8a7.34,7.34,0,0,0-1.38.81,2.91,2.91,0,0,0-.79.92,1.47,1.47,0,0,0,.5,2A1.36,1.36,0,0,0,177.22,141.74Z"/><path d="M88.71,242.5a6,6,0,0,0-3.49-3.11,5.68,5.68,0,0,0-2.32-.19c-1.06.12-2.13.26-3.19.3a6.84,6.84,0,0,0-2,.4c-.69.25-1.39.5-2.06.82a9.13,9.13,0,0,0-1.47.89,1.9,1.9,0,0,0-.75,1.09,1.39,1.39,0,0,0,.77,1.81l.16.05a4.61,4.61,0,0,0,4-.32,7.8,7.8,0,0,1,1.78-.83,3.74,3.74,0,0,1,4.6,1.32,2.18,2.18,0,0,0,1.53,1A2.25,2.25,0,0,0,89,243.39,3.86,3.86,0,0,0,88.71,242.5Z"/><path d="M108.53,172.21a5.15,5.15,0,0,0-2.55,1.14,4.75,4.75,0,0,1-4.11,1.15c-.61-.08-1.23-.13-1.68-.18a2.86,2.86,0,0,0-2.52,1.09l-1.61,2a9.19,9.19,0,0,0-.6.93,2.47,2.47,0,0,0,1,3.35,2.43,2.43,0,0,0,1,.28.87.87,0,0,0,.91-.5c.07-.15.1-.31.17-.46a4.1,4.1,0,0,1,3.29-2.46,13.93,13.93,0,0,0,1.7-.25,17.92,17.92,0,0,0,2.45-.79,19.44,19.44,0,0,0,2.4-1.24,10,10,0,0,0,1.59-1.14,2.4,2.4,0,0,0,.58-.92,1.31,1.31,0,0,0,0-.83A1.83,1.83,0,0,0,108.53,172.21Z"/><path d="M42.33,208.57a3.22,3.22,0,0,0,2.18-2.41A6.53,6.53,0,0,1,44.7,205a5.89,5.89,0,0,1,3.18-3.72c1.1-.54,2.19-1.12,3.25-1.74a1.31,1.31,0,0,0,.64-1.73,1.37,1.37,0,0,0-.33-.43,2.74,2.74,0,0,0-1-.68,4.54,4.54,0,0,0-3.81.26c-.46.26-.9.57-1.37.82a9,9,0,0,0-4.12,4.88c-.34.87-.63,1.77-.91,2.67a9.58,9.58,0,0,0-.22,1.19,6.46,6.46,0,0,0,.11.75A2,2,0,0,0,42.33,208.57Z"/><path d="M42.68,311.35a2.94,2.94,0,0,0,1.85-2.42,5.7,5.7,0,0,1,3.5-4.86c1.07-.52,2.11-1.09,3.14-1.69a1.27,1.27,0,0,0,.59-1.71,1.12,1.12,0,0,0-.19-.29,2.2,2.2,0,0,0-1.19-.84,4.6,4.6,0,0,0-3.6.22c-.5.26-1,.59-1.49.86a9,9,0,0,0-4.18,5c-.32.84-.61,1.7-.87,2.57a6.81,6.81,0,0,0-.2,1,2,2,0,0,0,1.71,2.25A2,2,0,0,0,42.68,311.35Z"/><path d="M145.45,105.63a2.78,2.78,0,0,0,2-2.31,6,6,0,0,1,.14-.85c-1.5.17-3,.33-4.53.48a2.36,2.36,0,0,1-.08.43,2,2,0,0,0,2.47,2.25Z"/><path d="M145.34,208.52a2.76,2.76,0,0,0,2.06-2.36,5.93,5.93,0,0,1,3.39-4.93c1.11-.54,2.2-1.12,3.26-1.74a1.28,1.28,0,0,0,.56-1.72l-.05-.09a1.94,1.94,0,0,0-1.17-1,4.53,4.53,0,0,0-3.71.2c-.5.27-1,.6-1.48.87a8.86,8.86,0,0,0-4.09,4.76c-.38,1-.68,1.93-1,2.91-.1.31-.14.64-.23,1.07a5,5,0,0,0,.23,1A1.84,1.84,0,0,0,145.34,208.52Z"/><path d="M42.59,105.62a3,3,0,0,0,1.94-2.47A5.52,5.52,0,0,1,47,98.92c-1.67-.34-3.31-.69-4.9-1a10.9,10.9,0,0,0-.92,1.8c-.36.91-.66,1.85-1,2.79a5.67,5.67,0,0,0-.18,1,2,2,0,0,0,1.79,2.19A2,2,0,0,0,42.59,105.62Z"/><path d="M145.6,311.35a2.75,2.75,0,0,0,1.8-2.3,5.12,5.12,0,0,1,.57-2.13,6.14,6.14,0,0,1,2.84-2.79c1.11-.54,2.18-1.15,3.26-1.73a1.14,1.14,0,0,0,.61-.76,1,1,0,0,0,0-.35h0a1.72,1.72,0,0,0-.1-.55,1.84,1.84,0,0,0-.69-.89,2,2,0,0,0-.56-.28,4.53,4.53,0,0,0-3.71.21c-.54.29-1,.63-1.59.93a8.48,8.48,0,0,0-3.4,3.47A22.26,22.26,0,0,0,143,308.8a2.24,2.24,0,0,0,.12,1.57A1.89,1.89,0,0,0,145.6,311.35Z"/><path d="M43.56,285.53c.36.54.61,1.15.94,1.72a4.17,4.17,0,0,0,.67,1,1.38,1.38,0,0,0,1.95.11,1.47,1.47,0,0,0,.38-.57,2.91,2.91,0,0,0-.15-2.83c-.37-.63-.75-1.27-1.06-1.94a4.25,4.25,0,0,0-2.41-2.17,7.06,7.06,0,0,1-.89-.39,1.43,1.43,0,0,1-.88-1.82l.08-.18a12.05,12.05,0,0,0,.35-1.31,2.11,2.11,0,0,0-1.6-2.53,1.92,1.92,0,0,0-.63-.05c-1.86.06-2.78.95-3,2.49a5.17,5.17,0,0,1-.06.6,5,5,0,0,0,1.94,4.09,14.23,14.23,0,0,0,2,1.43A7,7,0,0,1,43.56,285.53Z"/><path d="M140.18,277.41v.17a5.09,5.09,0,0,0,2,4.27,13.34,13.34,0,0,0,2,1.41,6.5,6.5,0,0,1,2.14,2c.41.61.72,1.28,1.08,1.92a4.81,4.81,0,0,0,.66,1,1.4,1.4,0,0,0,2,.19,1.42,1.42,0,0,0,.44-.64,2.86,2.86,0,0,0-.14-2.72c-.37-.64-.75-1.28-1.06-1.94a4.28,4.28,0,0,0-2.49-2.25,4.6,4.6,0,0,1-1-.48,1.33,1.33,0,0,1-.67-1.77h0c.14-.47.26-.95.36-1.43a2.07,2.07,0,0,0-2.15-2.52A2.78,2.78,0,0,0,140.2,277C140.19,277.13,140.18,277.27,140.18,277.41Z"/><path d="M37.32,174.24a4.64,4.64,0,0,0,1.51,4.35,19.3,19.3,0,0,0,2.49,1.81,7.51,7.51,0,0,1,1.82,1.6,9.05,9.05,0,0,1,1.32,2.22,3.29,3.29,0,0,0,.64,1,1.41,1.41,0,0,0,2,.16,1.37,1.37,0,0,0,.42-.61,2.91,2.91,0,0,0-.13-2.72,21.6,21.6,0,0,1-1.07-1.94A4,4,0,0,0,43.91,178a5.08,5.08,0,0,1-1-.47,1.38,1.38,0,0,1-.74-1.82l0-.05c.11-.43.28-.86.35-1.3a2.2,2.2,0,0,0-2.2-2.64C38.68,171.9,37.58,172.48,37.32,174.24Z"/><path d="M140.3,173.92a6.53,6.53,0,0,0-.13.87,4.64,4.64,0,0,0,1.61,3.82,17.56,17.56,0,0,0,2.39,1.74,6.45,6.45,0,0,1,2,1.82c.43.64.79,1.34,1.18,2a6.43,6.43,0,0,0,.54,1,1.46,1.46,0,0,0,2.63-.44,2.87,2.87,0,0,0-.22-2.61,18,18,0,0,1-1-1.83,4,4,0,0,0-2.49-2.24,4.92,4.92,0,0,1-1.1-.55,1.3,1.3,0,0,1-.61-1.69c.12-.48.29-.95.37-1.43a2.16,2.16,0,0,0-1.66-2.55l-.34,0A2.87,2.87,0,0,0,140.3,173.92Z"/><path d="M139.51,260.94a17.06,17.06,0,0,0-.85,1.78c-.35.74-.66,1.51-1,2.23a5.64,5.64,0,0,1-2.78,2.69,3.39,3.39,0,0,0-1.71,1.86,1.24,1.24,0,0,0,.5,1.67l0,0a2.79,2.79,0,0,0,2.12.42,11,11,0,0,0,2.54-.91,3.09,3.09,0,0,0,1.34-1.24c.34-.61.64-1.24,1-1.85a10.44,10.44,0,0,1,1.21-2A13.13,13.13,0,0,0,143.8,262a2.25,2.25,0,0,0,.12-1.09,1.9,1.9,0,0,0-2.08-1.61A3.06,3.06,0,0,0,139.51,260.94Z"/><path d="M37.68,164.87a11.75,11.75,0,0,1,1.64-2.6,10.87,10.87,0,0,0,1.6-3.43,1.09,1.09,0,0,0,0-.36,1.81,1.81,0,0,0-1.68-1.95h-.32a2.93,2.93,0,0,0-2.3,1.47,12.94,12.94,0,0,0-.76,1.54c-.38.82-.72,1.66-1.13,2.46a5.71,5.71,0,0,1-2.84,2.79,3.31,3.31,0,0,0-1.7,1.86,1.22,1.22,0,0,0,.44,1.62,3.81,3.81,0,0,0,1.82.59c.64-.2,1.47-.41,2.27-.7A3.91,3.91,0,0,0,37,166.08C37.27,165.67,37.48,165.27,37.68,164.87Z"/><path d="M107.34,196.36a1.39,1.39,0,0,0-1.16-2.21,10.27,10.27,0,0,0-1.11,0,3.67,3.67,0,0,1-2.8-1,10.65,10.65,0,0,1-1.13-1.29c-.45-.59-.86-1.21-1.27-1.83a11.09,11.09,0,0,0-2.67-2.71,3.93,3.93,0,0,0-.84-.49,2.09,2.09,0,0,0-2.58.86,2,2,0,0,0,.7,2.59,6,6,0,0,0,1.2.64,4.61,4.61,0,0,1,2.38,2.36,29.23,29.23,0,0,0,1.58,2.64,4.1,4.1,0,0,0,3.67,1.89c.53-.06,1.07-.11,1.59-.2a8,8,0,0,0,1.2-.28A2,2,0,0,0,107.34,196.36Z"/><path d="M38.87,265.71a12.93,12.93,0,0,0,1.92-3.54,2.88,2.88,0,0,0,.19-.82,1.91,1.91,0,0,0-1.82-2,1.85,1.85,0,0,0-.57.06,3.22,3.22,0,0,0-2.07,1.64c-.29.54-.52,1.11-.78,1.67s-.62,1.44-1,2.13a5.71,5.71,0,0,1-2.84,2.79,3.38,3.38,0,0,0-1.66,1.75,1.28,1.28,0,0,0,.41,1.76l.19.1a2.64,2.64,0,0,0,2.14.33c.81-.27,1.62-.57,2.42-.89a2.7,2.7,0,0,0,1.33-1.23c.34-.61.65-1.24,1-1.85A8.71,8.71,0,0,1,38.87,265.71Z"/><path d="M137.42,162.42a5.13,5.13,0,0,1-2.47,2.31,3.46,3.46,0,0,0-1.77,1.8,1.26,1.26,0,0,0,.39,1.75l.1.06a2.77,2.77,0,0,0,2,.42,9.39,9.39,0,0,0,2.67-.92,3,3,0,0,0,1.33-1.24c.35-.64.68-1.31,1-1.95a8.86,8.86,0,0,1,1.15-1.88,13.16,13.16,0,0,0,1.89-3.57,2,2,0,0,0,.13-.84,1.85,1.85,0,0,0-1.87-1.85h-.22a3,3,0,0,0-2.29,1.57c-.33.56-.56,1.19-.84,1.78C138.25,160.72,137.88,161.59,137.42,162.42Z"/><path d="M141.09,362.47A3.24,3.24,0,0,0,139.4,364c-.28.55-.51,1.12-.77,1.68-.36.78-.7,1.57-1.11,2.33a5.41,5.41,0,0,1-2.64,2.49,3.42,3.42,0,0,0-1.73,1.84,1.25,1.25,0,0,0,.47,1.7h0l.21.12a4.3,4.3,0,0,0,1.39.42,9.78,9.78,0,0,0,3.17-1c.09,0,.17-.12.26-.18a2.82,2.82,0,0,0,1-1,21.94,21.94,0,0,0,1-2,9.05,9.05,0,0,1,1.37-2.19,10.21,10.21,0,0,0,1.74-3.49,1.78,1.78,0,0,0-.61-2.11A1.94,1.94,0,0,0,141.09,362.47Z"/><path d="M106.5,297.12a7.61,7.61,0,0,0-1.35,0,3.77,3.77,0,0,1-2.91-1.1,14.08,14.08,0,0,1-1.28-1.5c-.42-.56-.79-1.15-1.18-1.73a11.07,11.07,0,0,0-2.61-2.59,6.23,6.23,0,0,0-1.09-.56,2,2,0,0,0-2.25.87,1.91,1.91,0,0,0,.3,2.37,3.76,3.76,0,0,0,.8.57,5.62,5.62,0,0,0,.89.43A4.45,4.45,0,0,1,98,296.1c.46.87,1,1.72,1.49,2.55a3.9,3.9,0,0,0,3.75,2,8.5,8.5,0,0,0,3-.48,1.82,1.82,0,0,0,1.31-1.88A1.15,1.15,0,0,0,106.5,297.12Z"/><path d="M85.22,308.89a9,9,0,0,0-1-1.38c-.38-.43-.82-.8-1.24-1.19a3.46,3.46,0,0,1-1.14-1.85A6.81,6.81,0,0,0,79,300.62a.9.9,0,0,0-1.24.05,2,2,0,0,0-.47.57,2.74,2.74,0,0,0-.31,2.36c.59,1.57,1.16,3.16,1.79,4.71a6.16,6.16,0,0,0,1,1.57,9.35,9.35,0,0,0,1.47,1.48,3.77,3.77,0,0,0,2.28.81c1.3.05,1.78-.34,2.07-1.61A2.29,2.29,0,0,0,85.22,308.89Z"/><path d="M181.51,102.45a7.57,7.57,0,0,0,1.63,2.44,4.65,4.65,0,0,0,3,1.51c1.35.1,2-.3,2.18-1.87v-.42a1.71,1.71,0,0,0-.09-.55,6.1,6.1,0,0,0-.81-1.37,17.78,17.78,0,0,0-1.56-1.57,3.58,3.58,0,0,1-1.22-1.94A5.31,5.31,0,0,0,183,95.94a14.85,14.85,0,0,0-1.28-1.1.88.88,0,0,0-1.23.08,2.54,2.54,0,0,0-.47.56,3.09,3.09,0,0,0-.42,1.36,2.6,2.6,0,0,0,.13,1C180.33,99.39,180.89,100.93,181.51,102.45Z"/><path d="M81.12,105.6a4.51,4.51,0,0,0,2.32.81c1.17,0,1.58-.28,1.93-1.27a2.34,2.34,0,0,0,.11-1.31c-2.13-.14-4.25-.29-6.34-.46l.44.66A5.75,5.75,0,0,0,81.12,105.6Z"/><path d="M85.15,205.85a8.65,8.65,0,0,0-1-1.26c-.39-.43-.82-.81-1.25-1.2a3.58,3.58,0,0,1-1.13-1.84,4.73,4.73,0,0,0-1.16-2.28c-.53-.52-1.07-1-1.64-1.49a1,1,0,0,0-1.41,0,.69.69,0,0,0-.11.13,2.83,2.83,0,0,0-.34.51,2.72,2.72,0,0,0-.23,2.26c.59,1.57,1.16,3.15,1.79,4.7a6.44,6.44,0,0,0,1,1.57,8.25,8.25,0,0,0,1.37,1.4,4,4,0,0,0,2.77.85h.11a1.34,1.34,0,0,0,1.33-.9A2.55,2.55,0,0,0,85.15,205.85Z"/><path d="M187.13,204.68a13.42,13.42,0,0,0-1.15-1.11,4.08,4.08,0,0,1-1.36-2.13,5.16,5.16,0,0,0-1.91-2.94c-.23-.17-.43-.38-.65-.57a1.14,1.14,0,0,0-1.59-.17,1.21,1.21,0,0,0-.34.47,2.81,2.81,0,0,0-.32,2.59c.52,1.42,1,2.86,1.6,4.25a9.15,9.15,0,0,0,1.18,2,7.88,7.88,0,0,0,1.5,1.44,3.54,3.54,0,0,0,2.19.73c1.35,0,1.84-.4,2-1.61a2.52,2.52,0,0,0-.3-1.78A9.69,9.69,0,0,0,187.13,204.68Z"/><path d="M113.33,339.07c.78.25,1.6.36,2.38.53a10.73,10.73,0,0,0,1.49-.23,19.45,19.45,0,0,0,2-.65,1.2,1.2,0,0,0,.33-2.21,3.81,3.81,0,0,0-1.3-.66c-.87-.25-1.76-.41-2.64-.59a3.38,3.38,0,0,1-3-2.57,2.78,2.78,0,0,0-1.09-1.59,1.3,1.3,0,0,0-1.85,0,1.22,1.22,0,0,0-.3.47,3.33,3.33,0,0,0-.24,2.28,10.28,10.28,0,0,0,1,2.51A5.23,5.23,0,0,0,113.33,339.07Z"/><path d="M113.81,236.31a17.08,17.08,0,0,0,2,.35,9.18,9.18,0,0,0,1.38-.2c.68-.18,1.33-.43,2-.66a1.23,1.23,0,0,0,.32-.17,1.13,1.13,0,0,0,.44-1.54l-.11-.16a2.51,2.51,0,0,0-1.42-.94c-.86-.24-1.74-.43-2.63-.6-1.55-.29-2.79-.92-3.2-2.62a2.72,2.72,0,0,0-1.1-1.59,1.33,1.33,0,0,0-2.15.51,3,3,0,0,0-.21,2.28,16.94,16.94,0,0,0,.94,2.39A5.32,5.32,0,0,0,113.81,236.31Z"/><path d="M112.6,126.92a2.86,2.86,0,0,0-1.1-1.6,1.33,1.33,0,0,0-1.87.06,1.29,1.29,0,0,0-.27.45,3.33,3.33,0,0,0-.24,2.28,10.07,10.07,0,0,0,1.19,2.83,5,5,0,0,0,2,1.93,7.62,7.62,0,0,0,3.56.88,8.26,8.26,0,0,0,3.63-1,1.09,1.09,0,0,0,.51-1.44,1.1,1.1,0,0,0-.17-.25,2.42,2.42,0,0,0-1.41-.93c-.91-.25-1.82-.48-2.75-.65A3.41,3.41,0,0,1,112.6,126.92Z"/><path d="M80.65,124.27a1.29,1.29,0,0,0,1.06.2,2,2,0,0,0,1.6-2.34s0,0,0-.07a9.6,9.6,0,0,0-.48-1.26,1.23,1.23,0,0,1,.34-1.71l0,0c.34-.3.73-.54,1.06-.84a2.77,2.77,0,0,0,.64-3.17c-.35-.75-1-.93-1.57-.37a5.1,5.1,0,0,1-1.92,1.09c-.34.13-.69.25-1,.39a2.91,2.91,0,0,0-2,3,8.23,8.23,0,0,0,1.36,4.27A4.67,4.67,0,0,0,80.65,124.27Z"/><path d="M186.3,217.45a6.93,6.93,0,0,1-2.37,1.29l-.68.28a2.89,2.89,0,0,0-2,3.09,7.82,7.82,0,0,0,1.28,4.06,3.4,3.4,0,0,0,.74.82,1.49,1.49,0,0,0,1.83.1,1.84,1.84,0,0,0,1-2.29,8.54,8.54,0,0,0-.53-1.38,1.07,1.07,0,0,1,.24-1.25c.2-.2.42-.39.64-.57s.54-.39.77-.62a2.68,2.68,0,0,0,.42-3.29C187.28,217.13,186.78,217,186.3,217.45Z"/><path d="M83.69,324.45a9.06,9.06,0,0,0,.75-.64,2.8,2.8,0,0,0,.34-3.21c-.37-.56-.85-.68-1.34-.23a6.45,6.45,0,0,1-2.25,1.24c-.27.09-.54.21-.8.32a3,3,0,0,0-2,3.09,8.26,8.26,0,0,0,1.36,4.17,3,3,0,0,0,.67.71,1.53,1.53,0,0,0,1.84.1,1.88,1.88,0,0,0,.94-2.4,11.45,11.45,0,0,0-.51-1.26,1.08,1.08,0,0,1,.23-1.25A7.92,7.92,0,0,1,83.69,324.45Z"/><path d="M83.69,221.53a9.06,9.06,0,0,0,.75-.64,2.81,2.81,0,0,0,.34-3.21.82.82,0,0,0-1.06-.44.86.86,0,0,0-.29.21,6.66,6.66,0,0,1-2.36,1.3c-.23.08-.46.18-.68.27a2.85,2.85,0,0,0-2,2.89,7.74,7.74,0,0,0,.82,3.4,5.62,5.62,0,0,0,.86,1.35,1.66,1.66,0,0,0,2.32.39,2.16,2.16,0,0,0,.27-.25,1.8,1.8,0,0,0,.58-2c-.15-.47-.36-.92-.55-1.37a1.08,1.08,0,0,1,.23-1.25C83.17,221.94,83.44,221.74,83.69,221.53Z"/><path d="M186.43,118.77c.25-.22.53-.4.76-.63a2.67,2.67,0,0,0,.57-3.07c-.35-.77-.93-.95-1.55-.4a6.38,6.38,0,0,1-2,1.13l-.92.35a2.92,2.92,0,0,0-2,3.1,8,8,0,0,0,1.27,4.06,3.74,3.74,0,0,0,.84.89,1.42,1.42,0,0,0,1.62.1,1.88,1.88,0,0,0,1.06-2.45h0a8.47,8.47,0,0,0-.5-1.26,1.08,1.08,0,0,1,.21-1.25A6.75,6.75,0,0,1,186.43,118.77Z"/><path d="M108.49,212a3.93,3.93,0,0,0-1.12.73,1.12,1.12,0,0,0-.34.63,2.3,2.3,0,0,0,.54,2.07,1,1,0,0,0,1.22.29c.19-.08.37-.2.56-.27a1.63,1.63,0,0,1,2.14.83l.06.17c.18.46.29,1,.43,1.42.2.62.37,1.26.6,1.87a1.15,1.15,0,0,0,.46.54,1,1,0,0,0,1.41-.14,1.05,1.05,0,0,0,.22-.56,21.91,21.91,0,0,0,.37-2.43h0v-.61a4.66,4.66,0,0,0-6.51-4.54Z"/><path d="M111.6,319.49c.17.46.26.95.41,1.42s.4,1.25.62,1.86a.81.81,0,0,0,.63.53,1,1,0,0,0,1.33-.48.9.9,0,0,0,.09-.32c.18-.8.25-1.62.36-2.43h0V319a4.71,4.71,0,0,0-6.81-3.86,2,2,0,0,0-1.07,2.62,2.06,2.06,0,0,0,.67.84.85.85,0,0,0,.92.16c.22-.1.44-.22.67-.3a1.65,1.65,0,0,1,2.15.87A1.18,1.18,0,0,1,111.6,319.49Z"/><path d="M107.41,112.41a1.08,1.08,0,0,0,1.45.47l0,0c.19-.07.36-.19.56-.25a1.59,1.59,0,0,1,2.05.92l0,.08c.2.49.31,1,.47,1.52s.36,1.18.56,1.76a1.13,1.13,0,0,0,2,.17.9.9,0,0,0,.09-.32c.16-.8.29-1.61.37-2.42h0v-.86a4.69,4.69,0,0,0-4.74-4.64,4.57,4.57,0,0,0-2,.45,2,2,0,0,0-1.22,2.55A2.13,2.13,0,0,0,107.41,112.41Z"/><path d="M96.51,369.52a1.36,1.36,0,0,0-1.89.18c-.15.13-.33.24-.49.37a2.87,2.87,0,0,1-1.44.65c-.45.07-.9.13-1.34.23a4.92,4.92,0,0,0-1.06.3,1.84,1.84,0,0,0-1.13,2.33,2.18,2.18,0,0,0,.22.43,2.72,2.72,0,0,0,.77.78,2.58,2.58,0,0,0,.74.33,3.74,3.74,0,0,0,1,.1h0A7.93,7.93,0,0,0,96,373.94a3.42,3.42,0,0,0,1.61-2.38A2,2,0,0,0,96.51,369.52Z"/><path d="M90.14,271.88a3.71,3.71,0,0,0,1.87.47A8.87,8.87,0,0,0,96,271a3.53,3.53,0,0,0,1.51-1.87,1.91,1.91,0,0,0-.91-2.52,1.27,1.27,0,0,0-1.77,0c-.14.14-.35.22-.49.36a3.3,3.3,0,0,1-1.88.84c-.32.06-.65.06-1,.15a7.06,7.06,0,0,0-1.48.53A1.57,1.57,0,0,0,89.1,270,2.18,2.18,0,0,0,90.14,271.88Z"/><path d="M90.11,169a3,3,0,0,0,1.7.45A8.64,8.64,0,0,0,96,168.2a3.78,3.78,0,0,0,1.43-1.66,2,2,0,0,0-.76-2.72l-.19-.1a1.25,1.25,0,0,0-1.59,0c-.21.19-.47.33-.68.52a3.17,3.17,0,0,1-1.68.72,14.36,14.36,0,0,0-1.46.25,3.61,3.61,0,0,0-1,.4,1.72,1.72,0,0,0-.78,2.23A2.1,2.1,0,0,0,90.11,169Z"/><path d="M135.6,253.17a1.16,1.16,0,0,0,1.32-1,.88.88,0,0,0,0-.28,6.36,6.36,0,0,1,.4-2.16,10,10,0,0,0,.29-1.07,3.13,3.13,0,0,0-.24-2.17c-.87-1.53-1.59-1.57-2.81-.4A5.42,5.42,0,0,0,133,250a3.11,3.11,0,0,0,.58,2A2.49,2.49,0,0,0,135.6,253.17Z"/><path d="M135.12,356a1.32,1.32,0,0,0,1.83-1.35,4.41,4.41,0,0,1,.34-1.93c.16-.59.31-1.19.47-1.82a5.84,5.84,0,0,0-.3-1.3c-.76-1.71-1.7-1.89-3.06-.44a5.64,5.64,0,0,0-1.34,2.75,3.86,3.86,0,0,0,.19,2.42A2.86,2.86,0,0,0,135.12,356Z"/><path d="M32.32,150.3a1.26,1.26,0,0,0,1.61-.77,1.3,1.3,0,0,0,.07-.48,6.5,6.5,0,0,1,.36-2.05c.17-.59.3-1.19.46-1.86a6.37,6.37,0,0,0-.33-1.37c-.7-1.49-1.58-1.82-2.94-.43A5.77,5.77,0,0,0,30,146.79a3.65,3.65,0,0,0,.24,1.7A2.86,2.86,0,0,0,32.32,150.3Z"/><path d="M135.09,150.26a1.31,1.31,0,0,0,1.84-1.31,6.63,6.63,0,0,1,.34-1.92c.18-.64.33-1.27.49-1.91a3.32,3.32,0,0,0-1-2.34,1,1,0,0,0-1-.25,4.32,4.32,0,0,0-.45.19,3.28,3.28,0,0,0-1.42,1.5,5.54,5.54,0,0,0-.86,3.41A3,3,0,0,0,135.09,150.26Z"/><path d="M32.73,253.17a1.14,1.14,0,0,0,1.26-1,1,1,0,0,0,0-.17,7.07,7.07,0,0,1,.41-2.28c.16-.55.27-1.12.33-1.41a3.08,3.08,0,0,0-.65-2.34,1.15,1.15,0,0,0-1.81-.32,2.46,2.46,0,0,0-.76.6,6.49,6.49,0,0,0-1.47,3.34,3.37,3.37,0,0,0,.47,2.26A2.52,2.52,0,0,0,32.73,253.17Z"/></svg>