<svg id="Vrstva_2" data-name="Vrstva 2" xmlns="http://www.w3.org/2000/svg" viewBox="0 0 240 300"><title>ý</title><path d="M229.69,61.59l-.11-1.21L193.14,47.83h-3.2L95.71,17.77l-1.33-2.09L62.79,7l-2.53.55S33.83,23.39,38.35,50.47c0,0,2.86,5.94,9.8,1.21S67.3,38.47,67.3,38.47l2.2,1.21,1.21,1.1v2.09S50.57,63.68,48.15,66.54s-5.95,6.61-5.51,14,5.51,56.92,6,60,3.08,5,6.49,2.87,9.58-5.62,9.58-5.62l1.1.11L9.94,193.37l1.33,32.7,30.82,13-1.21,4,.55.77,65.95,28.4a.89.89,0,0,0,1.1,0c.55-.44,3.3-3.74,3.3-3.74l54.49,23.45h1.11l54.82-74.2,3.74-30.06v-1.87l-3.85-.77,4.18-68.14,1.55-.78,1.21-2.53,1.65-20.81ZM109,35.83s74.2,23.78,75,24.11,1.21.77,1.21,1.43-.33,1.65-1,1.54S110.35,38.8,109,38.36s-2.21-.11-2.09-1.76S109,35.83,109,35.83ZM168.86,256,39.39,203.5l6-8.09,9.58-14.54,7.35-10.57,6.93-8.09,10.32-12,4-4.54L86.21,143l2.15-1.48,3.13-.33,2.65-.25,1.07-1,1.57.41.74,1.74,2.64,1.32,4,2.8.83-.41.82-.25,2,.75.25.82,2.23,1.08,2,2.72,1.74,3.47.66,4.37.33,3.06,2-2.89,1.4-1.9.75-1.24,1.48-.58,1.74-1.07,1.07-.08,3.22.25,1.15.08.75-.74,1.65.41.08,1.48,1.9.91,3.22,2,2.31,1.24.75-.49.74-.25,1.24.83.25,1.4,1.56.83,2,1.32,1.73,2.06,1.57,2.15,1,3.3.49,3.3,1.16-1.81,1.57-2.32,3-2.64,2-.25,3-.08.33-1.81,1.32-.25,1.15,1,.17,1.9,1.4.41,2.81,1.4,2.89,1.41.83-.66,1.48-.58,1.57.49.17,2.15,2.14,1.24,3.14,3.05,2.64,4.55,1,2.39.42,3.55.82-.66,1.82-2.72,2.64-2.65,2.31-1.07,4.54-.08.17-1.49.91-.16,1.32.33v2.06l1.65.66,4.29,1.65,2.07.83,1.4-1.32,1.73.49v2.15l2.56,1.32,4.46,5,1.24,1.74Z"/></svg>