<?xml version="1.0" encoding="utf-8"?>
<!-- Generator: Adobe Illustrator 23.0.3, SVG Export Plug-In . SVG Version: 6.00 Build 0)  -->
<svg version="1.1" id="Vrstva_1" xmlns="http://www.w3.org/2000/svg" xmlns:xlink="http://www.w3.org/1999/xlink" x="0px" y="0px"
	 viewBox="0 0 168 300" style="enable-background:new 0 0 168 300;" xml:space="preserve">
<title>2</title>
<g>
	<path d="M152.8,14.3c-22.7-2.4-49.6-3.6-78.1-3.6c-24.5,0-48,0.2-67.7,2.8V14l0.1,0.2l3.8,46.6l2.4,29l7.7,94.9l7.2,98.4
		c0,0.1,0,0.2,0,0.2c0.1,0.4,0.6,0.7,1,0.9c0.5,0.2,3.7,1.9,9.4,2.5c5.6,0.7,9.4,1.4,23.6,2.1c14.3,0.8,25.8,0.5,31.9,0.5
		s17.5-0.5,27.2-1.6s11.3-2.6,11.7-3c0.4-0.5,0.3-0.4,0.4-0.7l15-156.5l7.7-68.6l4.9-43.6C158.5,15,155.8,14.6,152.8,14.3z
		 M96.2,257.7L96.2,257.7l0.2,0.1L96.2,257.7z"/>
</g>
</svg>
