<?xml version="1.0" encoding="utf-8"?>
<!-- Generator: Adobe Illustrator 23.0.3, SVG Export Plug-In . SVG Version: 6.00 Build 0)  -->
<svg version="1.1" id="Vrstva_1" xmlns="http://www.w3.org/2000/svg" xmlns:xlink="http://www.w3.org/1999/xlink" x="0px" y="0px"
	 viewBox="0 0 168 300" style="enable-background:new 0 0 168 300;" xml:space="preserve">
<title>1</title>
<g>
	<g id="Vrstva_3">
		<path d="M79.6,136.6v0.1c0.1,0.1,0.3,0.2,0.4,0.3c0.1-0.2,0.2-0.3,0.3-0.5c0-0.1-0.1-0.2-0.1-0.3c-0.1-0.7,0-0.9,0.8-0.9
			c0.7,0,1.4,0,2.2,0c0.9,0,1.9-0.1,2,1.2c0,0,0,0.1,0.1,0.1c0.2,0.3,0.4,0.5,0.7,0.2c0.3-0.2,0.5-0.5,0.1-0.9
			c-0.1-0.1-0.3-0.3-0.4-0.4l0.1-0.2H87c1.3,0,1.3,0,1.7,1.3c0.1,0.2,0.3,0.3,0.4,0.4c0.1-0.2,0.3-0.4,0.3-0.5
			c0-0.9,0.1-1.1,0.9-1.1c0.5,0,1,0,1.6,0c-0.2,0.7-0.5,1.3,0.3,1.6c0.8-0.3,0.5-1.1,0.8-1.6c0.3,0,0.7,0,1.1-0.1
			c0.6,0,0.9,0.2,0.9,0.9c0,0.3,0.1,0.5,0.2,0.8c0.2-0.2,0.4-0.4,0.5-0.7s0.2-0.6,0.2-1c0.5,0,1,0,1.5,0s0.8,0.2,0.8,0.8
			c0,0.3,0.2,0.6,0.3,1c0.8-0.8,0.4-1.7,0.6-2.4c0.2-0.8,0-1.6,0-2.5c0.6-0.2,1-0.4,1-1.2c0-2.8,0.1-5.6,0.2-8.4
			c0-1.2-0.1-1.3-1.3-1.3c-4.4-0.1-8.8-0.1-13.3-0.2c-4.2,0-8.3-0.1-12.5-0.1c-3.2,0-6.4,0-9.5,0c-0.9,0-1.1,0.2-1.1,0.9
			c0.1,2.7,0.1,5.4,0.2,8.2c0,0.5,0.1,0.9,0.2,1.6l13,0.3c0.3,0.9,0.3,0.9-0.2,2.3c-1.4,0.3-1.4,0.3-2-0.8c-0.1-0.2-0.4-0.3-0.7-0.6
			l-0.4,1.5c-1.5,0-3,0.3-4.5,0.1c-0.3-0.6-0.1-1.2-0.7-1.5c-0.1,0.1-0.2,0.1-0.3,0.1c-0.1,0.2-0.2,0.3-0.2,0.5c-0.3,1-0.3,1-1.3,1
			c-0.3,0-0.6-0.1-0.9-0.1c-0.1-0.5-0.2-0.9-0.4-1.3c-0.9,0-0.9,0-0.9,0.6c0,1,0,1.9,0.1,3h1c0.1-0.4,0.2-0.8,0.3-1.3h1.7
			c0.1,0.2,0.2,0.5,0.2,0.7c0.1,0.2,0.1,0.4,0.2,0.6c0.9,0.1,0.9,0.1,1.3-1.3c1.5-0.2,2.9-0.1,4.3,0c0.4,0.5,0.1,1.2,0.6,1.5
			c0.6-0.3,0.1-1.3,0.9-1.5c0.6-0.1,1.2,0,1.8,0c0.1,0.4,0.2,0.7,0.3,1c0.1,0.2,0.4,0.4,0.6,0.6c0.2-0.2,0.4-0.4,0.5-0.7
			c0.1-0.2,0.2-0.6,0.3-0.8C79.1,135.2,79.2,135.2,79.6,136.6z M65,130.4c0-0.3-0.1-0.7-0.1-1c-0.1-1.6-0.1-3.2-0.1-4.9
			c0-0.7,0.1-0.8,0.9-0.9c2-0.2,4.1-0.3,6.1-0.4c4.9-0.2,9.8-0.4,14.6-0.5c3.5-0.1,7-0.2,10.4,0.4c1.3,0.2,1.4,0.3,1.6,1.6
			c0.1,0.8,0.1,1.6,0.1,2.3c-0.1-0.9-0.2-1.7-0.3-2.6c-0.1-0.7-0.4-1-1-1.1c-1.7-0.1-3.4-0.4-5.1-0.4c-4.2-0.1-8.5,0.1-12.7,0.4
			c-2.4,0.2-4.8,0.2-7.2,0.3c-1.9,0.1-3.7,0.2-5.5,0.3c-1.2,0.1-1.3,0.2-1.3,1.5c0,1.2,0,2.4,0,3.6c0,0.9,0.2,1.1,1.1,1.1
			c4.2,0.1,8.4,0.3,12.6,0.1c3.1-0.1,6.2,0.2,9.3,0.2c2.1,0.1,4.2-0.1,6.3-0.1c0.6,0,0.8-0.3,0.9-0.8c0-0.3,0-0.7,0-1l0.1-0.1v2
			C94.4,130.8,66.4,130.7,65,130.4L65,130.4z M88.6,126.8c-0.3,0-0.7,0-1,0L80,127c0-0.1,0-0.1-0.1-0.1c1.5-0.1,2.9-0.2,4.4-0.3
			c1.4-0.1,2.9-0.1,4.3-0.1c0.5,0,0.9,0,1,0.6s-0.2,0.9-0.9,1c-0.6,0.1-1.2,0.1-1.8,0.1c-2,0-4-0.1-6-0.1s-3.9,0.1-5.9,0.1
			c-2.2,0-4.4-0.1-6.6-0.2c-0.2,0-0.3-0.1-0.5-0.2c3.1,0.2,6.1,0.1,9.2,0.1c2.8,0,5.6,0.1,8.4,0.1c1,0,2-0.1,3.1-0.2
			c0.4,0,0.7-0.2,0.7-0.6C89.3,126.9,88.9,126.9,88.6,126.8L88.6,126.8z M83.2,125c-3,0.2-6,0.4-8.9,0.6c-1.8,0.1-3.6,0.3-5.4,0.5
			c-0.4,0-0.7,0.3-1,0.4c0-0.5,0-0.5,0.5-0.6c0.9-0.1,1.7-0.2,2.6-0.3c2.8-0.2,5.5-0.5,8.2-0.7c1.3-0.1,2.6-0.1,4-0.2
			c3-0.2,6-0.3,9.1-0.5c0.3,0,0.6,0,0.9,0c1.7,0,1.8,0.1,1.8,1.9c-0.4-1.6-0.5-1.7-2.1-1.6C89.7,124.6,86.5,124.8,83.2,125L83.2,125
			z M77.5,134.4c-0.3-0.7-0.8-1.4-0.4-2.2c1.2-0.3,19-0.1,20.9,0.2c0.4,0.7,0,1.4-0.1,2.2h-2c-0.1-0.3,0-0.6-0.1-0.8
			s-0.3-0.4-0.5-0.4s-0.3,0.2-0.4,0.4s0,0.4-0.1,0.7h-2.2c0.1-0.2,0.2-0.4,0.1-0.5c-0.1-0.3-0.3-0.5-0.4-0.7
			c-0.2,0.1-0.5,0.2-0.6,0.4c-0.2,0.2-0.2,0.5-0.4,0.8c-0.3,0-0.5,0.1-0.8,0.1c-0.4,0-0.8-0.1-1.3-0.1c0.1-0.3,0.1-0.6,0.1-0.8
			s-0.2-0.4-0.2-0.4c-0.2,0-0.5,0.1-0.5,0.2c-0.2,0.3-0.2,0.6-0.4,1h-2.1l0.1-0.4c0.1-0.4,0-0.8-0.4-0.8c-0.2,0-0.6,0.2-0.7,0.5
			c-0.2,0.6-0.6,0.7-1.2,0.7c-0.9,0-1.7,0-2.6-0.1c-1,0-1,0-1.3-1c0-0.1-0.1-0.1-0.3-0.2c-0.2,0.4-0.3,0.7-0.5,1.1L77.5,134.4z"/>
		<path d="M109.6,184.7c-0.2,0.1-0.3,0.2-0.5,0.3l-0.8-0.5l-0.4,0.9c-0.2-0.3-0.3-0.6-0.4-0.8h-0.3c-0.1,0.4-0.2,0.8-0.3,1.3
			c-0.6,0.3-1.4,0.9-2.1,0.9c-0.9,0-1.1,0.3-1.3,1c-0.3,1-1.1,1.3-2.1,0.8c-0.9-0.5-1.1-1.4-1.2-2.3c-0.1-0.5-0.2-0.9-0.5-1.2
			s-0.5-0.7-0.6-1.1c-0.3-0.8-0.7-1.4-1.6-1.6c-0.4-0.1-0.9-0.3-1.2-0.8c0.5-0.4,0.9-1,1.7-0.8c0.2,0.1,0.5-0.2,0.7-0.3
			c0.3-0.3,0.6-0.7,0.9-1c0.4-0.4,0.6-0.9,0.4-1.5c-0.1-0.3,0-0.7,0.2-1c0.3-0.7,0.7-1.4,0.9-2.1c0.5-1.8-0.7-4.7-2.3-5.7
			c-0.2-0.1-0.5-0.2-0.7-0.3c-0.6-0.2-1.2-0.3-1.8-0.4c-0.5-0.1-1,0-1.4,0.1c-1.1,0.4-2.1,1.1-2.8,2.1c-0.6,0.9-1.2,1.1-2.2,0.7
			c-1-0.4-1.5-0.1-1.4,1c0.1,0.5,0.1,1.1,0.7,1.4c0.6,0.3,0.6,0.8,0.5,1.4c-0.1,0.6-0.1,1.1,0.3,1.7c0.2,0.3,0.3,0.8,0.3,1.3
			c0,0.9,0.2,1.6,0.7,2.3c0.2,0.3,0.3,0.6,0.5,1c-2.1,0.8-4.1,0.8-6.2,0.4c-0.3-0.1-0.5-0.3-0.6-0.6c-0.4-1.6-0.9-3.1-1.1-4.7
			c-0.1-1,0.1-2.1-0.2-3.1c-0.1-0.4,0-0.9,0-1.4s-0.1-1-0.7-1.1s-0.9,0.4-1.1,0.8c-0.2,0.4-0.3,0.7-0.5,1.1h-0.3
			c-0.1-0.3-0.3-0.6-0.4-0.9c-0.2-0.4-0.4-0.8-0.9-0.7s-0.6,0.6-0.6,1c0,0.1,0,0.2,0,0.3c0.2,1.3,0.5,2.5,0.7,3.8
			c0.1,0.3,0.3,0.6,0.5,0.9c0.3,0.6,0.8,1.2,1,1.9c0.6,1.6,1,3.2,1.5,4.7c0.1,0.3,0.2,0.5,0.3,0.7c0.3,0.5,0.7,0.7,1.2,0.5
			c1-0.5,2.1-0.3,3.1-0.1c1.4,0.3,1.5,0.5,1.5,1.9c0,0.2,0,0.4,0,0.6c0,0.6-0.3,0.9-0.8,1.2c-0.7,0.3-1.4,0.7-1.9,1.1
			c-2,1.8-2.9,5.3-1.6,8.1c0.2,0.5,0.6,1,0.7,1.5c0.2,0.7,0.5,1,1.2,1.3c1.3,0.4,1.5,0.9,1.2,2.2c-0.3,1.6-0.5,3.3-0.4,5
			c0.1,0.5-0.1,1-0.1,1.5c-0.2,1.3-0.5,2.5-0.5,3.8c-0.1,2-0.5,2.6-2.3,3.2c-0.6,0.2-1,0.5-1.3,1.1c-0.4,0.9,0,1.4,1,1.4s2,0,3-0.1
			c0.4,0,0.8,0,1.3-0.1s0.8-0.4,0.8-0.9c0-0.6,0-1.2,0-1.8c-0.1-1.9-0.1-3.8,0.6-5.7c0.3-0.7,0.3-1.5,0.4-2.2c0.1-1,0.1-2,0.3-3
			c0.2-1.4,0.6-2.7,1.3-4c0.4-0.6,0.9-0.8,1.5-0.8c0.7,0.1,1.1,0.5,1.3,1.1c0.1,0.4,0.2,0.7,0.2,1.1c0.1,1.9,0.2,3.8,0.3,5.7
			c0,0.8,0.1,1.7,0.2,2.5c0.4,2.3,0.5,4.7,0.2,7.1c-0.1,0.9,0.1,1.1,0.9,1.2c0.3,0,0.7,0,1,0c1.2,0,2.3,0.1,3.5,0.1
			c0.4,0,0.8,0.2,1.1-0.3c0.2-0.5,0.1-0.9-0.2-1.3c-0.3-0.5-0.8-0.6-1.4-0.7c-2.3-0.5-3-1.4-3-3.7c0-1,0-2,0-3.1c0-0.7,0-1.4,0.4-2
			c0.2-0.3,0.2-0.7,0.2-1.1c0-1.3-0.3-2.6,0.4-3.9c0.1-0.1,0.1-0.3,0.1-0.4c0.2-1.3,0.4-2.7,0.6-4c1.2-0.7,1.4-1.4,0.5-2.7
			c-0.2-0.2-0.4-0.5-0.5-0.7c-0.2-0.2-0.3-0.4-0.4-0.7c-0.3-0.8-0.2-1.1,0.5-1.4c0.8-0.4,1.7-0.7,2.5-1.1c1.1-0.5,2-1.1,3.3-1.1
			c0.3,0,0.7-0.3,1-0.4c0.2-0.1,0.4-0.3,0.6-0.2c0.9,0.2,1.4-0.4,2-0.9l0.6,0.7c0.2-0.1,0.5-0.3,0.5-0.3c-0.1-0.4-0.2-0.7-0.3-1
			c0.4-0.3,0.4,0.1,0.6,0.3c0.2,0.1,0.4,0.2,0.6,0.1c0.1,0,0.3-0.4,0.3-0.4c-0.5-0.7,0.1-1.2,0.4-1.7c0.1-0.3,0.2-0.6,0.2-0.9
			C111.4,184.7,110.6,184.2,109.6,184.7z"/>
		<path d="M71.4,213.2c-0.2-0.1-0.4-0.4-0.6-0.7c-0.8-1.2-1.6-2.5-2.5-3.6c-0.7-1-0.8-1,0.1-2c2.2-2.7,3.5-5.6,3.7-9.1
			c0.1-2-0.2-3.9-1.3-5.5c-0.7-1.1-1.5-2.1-2.3-3.1c-2-2.3-4.6-3.8-7.5-4.6c-0.3-0.1-0.7-0.1-1-0.1c-0.9,0-1,0.2-0.9,1.1
			c0.1,0.4,0.3,0.8-0.2,1.1c-0.7-0.2-1.2-0.5-1.7-1c-0.4-0.4-0.8-0.3-1.1,0.2c-0.2,0.3-0.3,0.6-0.5,0.9c-0.6,1.1-1.3,2.3-1.8,3.5
			c-0.2,0.5-0.3,1-0.3,1.5c-0.1,1.2,0.3,2.4,0.8,3.5c0.2,0.3,0.5,0.6,0.3,1c-0.1,0-0.2,0-0.3,0c-3.1-1.1-6.1-2.2-9.2-3.3
			c-0.2-0.1-0.4-0.2-0.6-0.4c-1-0.8-1.2-0.8-2,0.2c-0.4,0.4-0.7,0.8-1.5,0.5c0.1-0.4,0.1-0.9,0.2-1.3c0.3-1.1,0.3-2.1-0.2-3.2
			c-0.5-1.1-0.7-2.2-1.1-3.3c-0.1-0.4-0.1-0.8,0.3-1.1c1.3-0.9,1.8-2.3,2-3.8c0.1-1,0.1-2,0.2-3c0.1-0.7,0-1.4-0.4-2
			c-0.9-1.5-2.1-2.9-2.8-4.6c-0.4-0.8-1.2-1-2.2-0.9c-1.6,0.1-2.8,0.6-3.7,1.9l-0.1,0.1c-0.7,0.8-1.4,1.6-2.1,2.5
			c-0.2,0.2-0.3,0.5-0.3,0.8c-0.5,2.3,0.1,4.3,1.6,6.1c0.1,0.2,0.4,0.2,0.6,0.4l0.1-2.4c0.7,1,1.3,1.8,1.9,2.7
			c0.6,0.8,0.6,1.5,0.1,2.3c-0.5,0.6-0.6,1.4-0.6,2.1c0,3-0.1,6.1,0,9.1c0.1,3.6,0.2,7.2,0.3,10.8c0,0.5,0.1,0.9,0.1,1.4
			c0,0.6,0.3,1,1,1c0.3,0,0.7,0.1,1,0.2c0,0.2,0,0.4,0,0.6c-0.4,1.9-0.7,3.8-1.1,5.7c-0.2,1-0.1,1.9,0.8,2.5
			c0.3,0.2,0.5,0.5,0.8,0.8c0.4,0.3,0.8,0.6,1.3,0.8c0.3,0.1,0.6,0,0.9-0.1c-0.1-0.3,0-0.7-0.2-0.9c-0.2-0.4-0.6-0.7-0.8-1.1
			c-1.5-1.8-1.5-1.8-1.1-4.2c0.2-1,0.5-2.1,0.8-3.1c0.1-0.3,0.3-0.7,0.6-0.7c1.8-0.4,2.4-0.2,2.3,1.7c0,0.5-0.1,0.9-0.1,1.4
			s-0.1,1,0.1,1.5c0.3,1.4,0.7,2.8,0.5,4.2c-0.1,0.5,0.1,1.2,0.7,1.3c1.1,0.3,2.2,0.4,3.3,0.5c0.3,0,0.7-0.2,1-0.4
			c0.5-0.3,0.5-0.9-0.1-1c-1.1-0.3-1.9-1.1-2.8-1.6c-0.7-0.3-0.9-0.8-0.9-1.5c-0.1-2-0.1-3.9-0.2-5.9c0-0.3,0-0.7,0.2-0.9
			c0.5-0.6,0.4-1.3,0.2-1.9c-0.5-3.1-1-6.1-1.5-9.2c-0.1-0.7,0.1-1.2,0.8-1.4c0.8-0.3,1.6-0.6,2.4-0.9c0.2,0,0.4,0,0.6,0.1
			c2,0.7,4,1.4,6,2.1c0.2,0.1,0.3,0.2,0.6,0.4c-0.5,0.6-1.2,0.6-1.8,0.7c-0.5,0.1-1,0.2-1.6,0.3c-0.8,0.2-1.2,0.8-1.3,1.7
			c-0.1,0.7,0,1.3,0.7,1.7c0.3,0.2,0.5,0.6,0.6,0.9c0.9,1.9,2,3.7,3.7,5.1c0.2,0.2,0.4,0.4,0.6,0.6c0.6,0.5,0.7,1,0.5,1.7
			c-0.3,1.3-0.5,2.7-0.8,4c-0.1,0.3-0.2,0.6-0.4,0.9c-0.9,0.8-1,1.8-0.7,2.9c0.2,0.9,0.7,1.4,1.5,1.4s1.4-0.4,1.7-1.3
			s0.1-1.6-0.3-2.4c-0.5-1-0.3-1.3,0.7-1.4c4.3-0.4,8.6-0.7,12.9-1.1c0.3,0,0.5,0,0.8,0c0.8,0.1,1,0.4,0.7,1.1
			c-0.3,0.7-0.5,1.5-0.3,2.3c0.3,1.1,1.4,1.8,2.5,1.5c1.2-0.3,2-1.6,1.6-2.9c-0.1-0.3-0.2-0.5-0.3-0.7
			C72.5,214.1,72.2,213.4,71.4,213.2z"/>
		<path d="M30.2,116.9c0.4,1.3,0.7,2.6,1.1,3.9c0.1,0.6,0.2,1.3,0.2,1.9c-0.1,1.4,0.2,2.8,1,3.9c0.6,0.8,0.8,1.7,1,2.6
			c0.3,1.3,0.6,2.5,0.8,3.8c0.2,0.8,0.5,1.5,1.2,2c0.6,0.4,0.9,1.1,0.9,1.8c0,0.6,0.1,1.3,0.2,1.9c0.9,5.3,1.4,10.6,1.7,15.9
			c0.1,0.9-0.2,1.7-0.7,2.4c-0.6,0.7-1.1,1.4-1.6,2.2c-0.1,0.2-0.1,0.7,0,0.9c0.1,0.4,0.5,0.3,0.9,0.3c1.6-0.3,2.7-1.4,3.8-2.5
			c0.2-0.2,0.2-0.5,0.2-0.7c0-1.2-0.1-2.3-0.2-3.5c-0.2-3.7-0.4-7.5-0.6-11.2h0.2c0.1,0.9,0.3,1.9,0.3,2.8c0.1,1.4,0.1,2.8,0.2,4.2
			c0.2,2.2,0.3,4.4,0.5,6.6c0.1,1,0.3,2.1,0.7,2.9c0.7,1.3,1.9,2.2,3.3,2.6c0.3,0.1,0.5,0.2,0.8,0.2c0.7,0,1-0.4,0.7-1
			c-0.4-0.7-0.9-1.4-1.4-2c-0.7-0.8-1.5-1.5-1.5-2.6c-0.2-2.5-0.2-5-0.3-7.5c-0.1-2.2,0-4.3-0.1-6.5c-0.2-2.1-0.1-4.2,0.1-6.2
			c0-0.2,0.1-0.6,0.3-0.7c0.9-0.4,0.7-1.2,0.7-1.9c-0.1-1.8,0-3.5,0-5.4c0.6,0,1.2,0.1,1.7,0c0.7-0.1,0.9-0.4,0.9-1
			c-0.1-0.7-0.2-1.5-0.3-2.2c-0.7-3.1-1.7-6.1-1.8-9.2c-0.1-0.9-0.5-1.4-1.2-1.9s-1.3-1.1-1.9-1.7c-0.2-0.2-0.4-0.7-0.3-1
			c0.5-1.6,0.4-3.3,1.4-4.8c0.4-0.6,0.5-1.3,0.2-2c-0.2-0.6-0.4-1.2-0.6-1.8c-0.2-0.7-0.4-1.4-0.7-2c-0.3-0.5-0.7-0.9-1.1-1.2
			c-1.8-1-4.5-0.5-5.8,1.2c-1,1.3-1.7,2.7-1.1,4.4c0.1,0.3,0.1,0.6,0.1,0.9c0.1,0.9,0.2,1.8,0.5,2.7c0.4,1.4,0.9,2.8,1.4,4.3
			c-0.2,0.2-0.6,0.4-0.9,0.8c-0.2,0.4-0.3,0.8-0.4,1.3c-0.1,0.4,0,0.9-0.1,1.4c0,0.3-0.1,0.5-0.1,0.8c-0.2,0.8-0.1,1.6-0.4,2.3
			c-0.6-0.5-1.1-1-1.7-1.5c-0.6-0.5-1-1.1-1.9-1.2C30.2,116.6,30.2,116.8,30.2,116.9z"/>
		<path d="M140.8,165.4c-0.2,0.4-0.4,0.8-0.5,1.3c-0.3,0.7-0.5,1.5-0.9,2.2c-0.5,1-0.9,1.9-1,3c-0.2,1.7-0.5,3.4-0.6,5.2
			c-0.1,0.9,0.1,1.8,0.4,2.6c0.3,0.8,0.2,1.2-0.2,1.8c-0.6,0.7-1,1.5-1.3,2.3c-0.5,1.2-0.7,2.5-1.1,3.8c-0.6,2-1.4,4-2.5,5.8
			c-0.9,1.4-2.2,2.4-3.7,3.2c-0.2,0.5,0,0.9,0.4,1.3c0.3,0.2,0.5,0.5,0.7,0.7c0.3,0.4,0.2,1.1-0.1,1.6c-0.3,0.4-0.7,0.3-1,0.2
			c-1.7-0.5-3.3-0.9-5-1.4c-0.9-0.3-0.9-0.4-0.9-1.4c0-0.5-0.1-0.8-0.5-1.1s-0.8-0.6-1.2-0.8c-0.7-0.4-1.1-0.2-1.6,0.5
			c-0.6,0.9-0.7,1.5-0.1,2.1h0.1c0.4-0.3,0.1-1.2,0.9-1.3c1.1,0.7,1.1,0.9,0.8,1.9c-0.4,1.1-0.7,2.2-1,3.4c-0.1,0.4-0.3,0.8-0.5,1.3
			c-0.2-0.1-0.5-0.3-0.7-0.5c-0.8-0.7-1.7-0.8-2.7-0.6s-1.9,0.8-2.5,1.6c-1.1,1.5-1.9,3.3-2.1,5.2s0.1,3.8,1.1,5.5
			c1.4,2.6,3.5,3,5.9,1.2c1.4-1,2.1-2.5,2.3-4.3c0.2-2.1,0.6-4.2-0.4-6.3c-0.2-0.5,0-1,0.5-1.5c0.4,0.7,0.7,1.3,1,1.8
			c0.7,1.4,1.3,2.9,2,4.3c0.2,0.5,0.3,1,0.2,1.5c-0.1,0.6,0,1.3,0.2,1.9c0.3,0.8,0.4,1.5-0.2,2.2c-0.3,0.3-0.3,0.6,0,0.9
			c0.3,0.3,0.7,0.4,1,0.1c0.3-0.2,0.3-0.6,0.2-0.9c-0.1-0.3-0.2-0.6-0.4-0.9l2.8-0.5c0.6,1.4,1.2,2.7,1.8,4c0.2,0.5,0.5,0.7,1,0.5
			c1-0.3,2.1-0.6,2.5-1.9c0.3-1.1,0.7-2.1,1.1-3.2c0.1-0.1,0-0.4,0.2-0.3v1.5c-0.1,0.9-0.5,1.7-0.9,2.5c-0.2,0.3-0.3,0.7-0.4,1.1
			c-0.1,0.4,0.1,0.7,0.5,0.7c0.6,0,1.2-0.7,1.5-1.4l0.1-0.1v-0.1c0.1-0.2,0.1-0.4,0.1-0.6l0,0l0.1-0.9l0,0c0.1-1.4,0.2-2.9,0.2-4.3
			l0,0l0.1-1.9c0.2-1.1,0.4-2.3,0.6-3.4c0.1-0.3,0.2-0.6,0.3-0.9c0.2-0.5,0.4-1,0.5-1.6c0.2-1.8,0.4-3.5,0.6-5.3c0-0.1,0-0.4,0-0.4
			l0,0l0.5-1.7l0,0c0-0.2,0.1-0.4,0.1-0.5l0.9-3.3l0.1-2c0.1-0.8,0.1-1.5,0.2-2.3l0,0v-0.1l0.2-2.5c0-0.2,0.1-0.4,0.1-0.5
			c0.2-1.3,0.1-2.6-0.4-3.8c-0.3-0.8-0.3-1.7-0.1-2.6c0.2-0.8,0.3-1.7,0.8-2.3c1-1.4,0.9-3,1.1-4.5c0.1-1.4,0.4-2.8,0.5-4.2
			c0-0.9-0.3-1.8-0.6-2.6C141.7,164.8,141.2,164.8,140.8,165.4z M131.2,200.6c0.1-0.6,0.2-1.1,1-1.3c0.6-0.2,0.8-0.8,0.7-1.6
			c0-0.3-0.1-0.6,0-0.8c0.9-2,1.9-3.9,2.9-5.9h0.1c-0.2,1.3-0.5,2.7-0.7,4c-0.4,2-0.8,4-1.2,6c-0.1,0.6-0.3,1.1-0.4,1.6
			c-0.1,0.5-0.2,1,0,1.6c0,0.1,0.1,0.1,0.1,0.2v0.5v0.1l-0.2,0.3c-0.2,0.1-0.4,0.2-0.6,0.3c-0.3,0.1-0.6,0.2-0.9,0.3
			c-0.1,0-0.1,0-0.2,0C131.5,204.1,131.1,202.4,131.2,200.6z M122.5,201.2c0.2-0.5,0.5-0.7,1-0.6c0.2,0.1,0.4,0.1,0.5,0.2
			c1.6,0.6,3.2,1.2,4.8,1.8c0.2,0.1,0.3,0.2,0.5,0.3c-0.1,0.4-0.1,0.7-0.2,1.1c-0.5,1.5-1.1,3.1-1.6,4.6c-0.2,0.7-0.7,0.8-1.4,1
			c-0.2-0.3-0.3-0.5-0.4-0.7c-1-2.1-2-4.3-3.1-6.4C122.5,202,122.3,201.6,122.5,201.2L122.5,201.2z M137.6,204.3L137.6,204.3
			L137.6,204.3C137.7,204.2,137.7,204.2,137.6,204.3L137.6,204.3z"/>
		<path d="M148.5,68.3c0-0.5,0-0.8-0.1-1.2c0-0.4-0.1-0.7-0.2-1.1c-0.2-0.5-0.6-0.9-1.2-0.9c-0.7,0-0.7,0.6-0.8,1.1
			c-0.2,0.9-0.2,1.8-0.3,2.7c-0.1,0.4,0,0.8-0.3,1.1c-0.1-0.7-0.1-1.4-0.2-2c-0.1-0.5-0.4-0.8-0.9-0.8c-1.2,0-2.1-0.6-3-1.4
			c-0.8-0.8-1.6-1.6-2.4-2.4c-0.6-0.6-1.2-1.3-1.7-2c-0.3-0.4-0.7-0.8-1.3-0.9c-0.3-0.1-0.6-0.3-0.8-0.5c-1-1.3-2-2.5-3-3.9
			c-0.2-0.3-0.3-0.7-0.2-1c0.4-1.4,0.8-2.8,1.2-4.1c0.2-0.7,0.4-1.4-0.4-1.9c0.6-0.8,1-1.6,1.5-2.3c0.7-1.1,0.6-1.5-0.5-2.2
			s-2.2-1.3-3.4-1.9c-0.4-0.2-0.9-0.4-1.4-0.5c-0.6-0.1-1.2,0.1-1.6,0.6s-0.2,1.1,0.2,1.5c0.9,1.1,1.3,2.6,2.4,3.7
			c0,0,0,0.1-0.1,0.3c-0.4-0.1-0.9-0.1-1.3-0.2c-1-0.1-1.3,0.1-1.5,1.1c-0.1,0.5-0.1,1-0.2,1.5c-0.1,0.4-0.1,0.8-0.3,1.1
			c-0.4,0.6-0.5,1.2-0.5,1.8c0,0.5-0.1,1-0.2,1.5c-0.4,1.5-0.2,2.9,0.6,4.3c0.7,1.2,1.5,2.3,2.3,3.5c0.4,0.6,0.8,1.2,1.2,1.8
			c-0.8,0.6-1.5,1.2-2.2,1.7c-0.3,0.2-0.7,0.2-0.9-0.1l0,0l-0.1-0.1c-0.3-0.5-0.6-1-0.7-1.5c-0.4-2-1.3-3.7-2.3-5.4
			c-0.4-0.7-0.8-1.3-1.6-1.1c-0.4-0.9-0.8-1.8-1.2-2.6c-0.4-0.9-0.6-0.8-1.5-0.4c-1.2,0.6-2.5,1.1-3.7,1.6c-0.4,0.2-0.8,0.3-1.2,0.5
			c-0.6,0.3-0.9,0.8-0.8,1.4c0.1,0.6,0.5,1,1.2,1.1c1.3,0.2,2.6,0.3,4,0.5c-0.4,0.5-0.8,0.9-1.2,1.4c-0.9,1-0.9,1.7,0.2,2.5
			c1.7,1.3,2.4,3.4,4,4.7c0.1,0.1,0.2,0.3,0.2,0.4c0.6,1,1.2,2.1,1.9,3.1c0.8,1.1,1.4,1.3,2.7,0.9c0.4-0.1,0.8-0.3,1.2-0.4
			c0.7-0.2,1.5-0.4,2.2-0.3c1.1,0.2,2.1,0.5,3.2,0.9c1.2,0.4,2.4,1,3.6,1.5c0.3,0.1,0.5,0.3,0.8,0.4c-0.2,0.8-0.7,1.1-1.2,1.5
			c-0.2,0.2-0.3,0.6-0.5,0.9c0.3,0.2,0.6,0.3,1,0.4s0.7,0,1,0.1c0.2,0,0.5,0.1,0.8,0.2c-0.2,0.3-0.4,0.4-0.5,0.6
			c-0.3,0.3-0.7,0.6-1,0.9c-0.6,0.7-0.4,1,0.4,1.3c0.2,0.1,0.5,0.1,0.6,0.2c0.3,0.5,0.7,0.4,1.1,0.2c0.5-0.3,0.9-0.4,1.5-0.2
			c0.4,0.1,0.7,0,0.9-0.5c-0.9-1-0.7-2.2-0.6-3.5c0-0.2,0.1-0.5,0.1-0.7c-0.1-1.3,0.8-1.7,1.8-2.2c-0.1,0.5-0.1,0.9-0.1,1.2
			c0,0.8,0,1.6,0.1,2.4c0.2,0.9,0.8,1.3,1.6,1.5c1,0.2,1.8,0,2.8-0.6c1.7-1.1,2.6-2.5,2.7-4.4c0-0.6-0.1-1.3,0.1-1.9
			c0.2-1,0.2-1.8-0.4-2.7C149.7,69.2,149.4,68.4,148.5,68.3z M133.6,47c-0.1,0.1-0.1,0.3-0.2,0.4L133.6,47z"/>
		<path d="M144.7,111.6l1.1,0.6c0.5-0.6,1.1-1,1.2-1.8c0.4-2.1,0.8-4.2,0.8-6.4c0-0.9,0.1-1.7,0.2-2.6c0-0.8-0.2-1.6-0.7-2.2
			s-1.1-1.2-1.6-1.9c-0.3,0.1-0.7,0-1,0.2c-0.8,0.5-1.8,0.7-2.1,1.9c-0.1,0.4-0.5,0.7-0.9,1c-0.7,0.4-1.2,1.1-1.4,1.9
			c-0.2,0.9-0.6,1.8-0.8,2.7c-0.3,1.3-0.3,2.5,0.4,3.6c0.2,0.4,0.3,0.9,0.5,1.4c0.2,0.7,0.4,1.5,0.7,2.5c-1.2,1.4-1.6,3.4-2.5,5.3
			l-2.3-1.5c-0.2-0.8,0.5-1.7,0-2.5c-0.1-0.1-0.2-0.1-0.3-0.1c-1.1-0.3-2.1-0.5-2.5-1.8c-0.2-0.7-0.9-0.8-1.4-0.2
			c-0.5,0.6-1,0.6-1.7,0.5c-0.2,0.4-0.3,0.7-0.4,1.1c-0.2,0.9-0.5,1.6-1.4,2.1c-1.1,0.7-1,2.2,0.1,3c0.6,0.4,1.3,0.7,1.9,0.9
			c1.3,0.3,2.6,0.5,3.9,0.6c0.5,0.1,0.9,0.1,1.1,0.6c0.4,0.7,0.9,1,1.9,1.1c-0.2,0.7-0.3,1.3-0.5,1.9c-0.6,2.3-1.3,4.7-1.9,7
			c-0.1,0.5-0.3,1-0.3,1.6c0.1,0.8,0,1.6-0.3,2.3c-0.2,0.6-0.1,1.2,0.4,1.7c0.4,0.4,0.8,0.9,1.3,1.3c0.5,0.4,0.6,0.8,0.5,1.4
			c-0.1,0.7-0.3,1.5-0.3,2.2c-0.1,1.3-0.8,2.2-1.8,2.9c-0.3,0.2-0.6,0.4-0.8,0.7c-0.5,0.7-0.2,1.5,0.6,1.6c0.4,0.1,0.8,0.1,1.3,0
			c1.7-0.2,2.8-1.1,2.2-3c0-0.1-0.1-0.2-0.1-0.2c-0.1-1.3,0.2-2.6,0.6-4l1.2,0.7c-0.2,2-0.4,4-0.7,5.9c0,0.2-0.1,0.4-0.2,0.5
			c-1,1-0.5,2-0.3,3.1c0.1,0.4,0.5,0.8,0.9,0.7c0.5,0,0.6-0.4,0.7-0.8s0.1-0.9,0.3-1.2c0.6-0.7,0.7-1.6,0.6-2.5
			c-0.3-1.6,0.1-3,0.4-4.5c0.1-0.6,0.3-1,1-1.1c0.6-0.1,1.3-0.4,1.4-1.2c0.2-1.7,0.6-3.4,0.8-5.2c0.2-2.2,0.2-4.5,0.4-6.7
			c0.1-0.9,0.3-1.8,0.5-2.8c0.1-0.5,0.2-0.9,0.2-1.4c0-0.8-0.1-1.7-0.2-2.5c-0.3-2.4,0-4.9-1.2-7.1
			C144.2,112.4,144.2,111.9,144.7,111.6z"/>
		<path d="M121.5,93.7c-2.9-2.4-7.1-2.7-10.3-0.8c-3.1,1.8-4.9,6.5-3.9,10c1.1,3.9,3.8,6,7.6,6.7c1.7,0.3,3.4-0.1,4.7-1.1
			c2.7-2.2,4-5.1,4.1-8.1c0-1.8-0.3-3.7-0.9-4.9C122.5,94.9,122.1,94.2,121.5,93.7z"/>
		<path d="M58.6,83.1c0.3-0.1,0.6-0.1,0.9-0.2c0.4-0.1,0.7-0.1,1-0.1c0.1,1.8,1.1,2.4,2.6,1.8c0.2-0.1,0.4-0.2,0.6-0.3
			c0.8-0.4,1.6-0.4,2.5-0.4c1.5,0,3,0.2,4.5-0.2c0.9-0.3,1.9-0.2,2.8,0.1c1.7,0.5,3.4,0.6,5.2,0.6c1.1-0.1,2.2,0.3,3.2,0.7
			c0.9,0.4,1,0.5,0.8,1.5c-0.1,0.6-0.1,1,0.3,1.5c0.5,0.7,1.1,0.7,1.5-0.1c0.2-0.3,0.4-0.7,0.6-1.1c0.2-0.5,0.6-0.7,1.1-0.4
			c0.5,0.4,0.9,0.2,1.3-0.2c0.4-0.5,0.9-0.9,1.3-1.4c1-1,1-1.1,0.2-2.3c-0.5-0.8-0.4-0.9,0.5-1.5L90,82c0.2,0.5,0.6,0.7,1.1,0.5
			s0.8-0.6,0.7-1.1c0-0.2-0.1-0.4-0.2-0.6c-0.2-0.5-0.1-0.9,0.1-1.3c0.4-0.7,1-1,1.8-1c1.1,0,2.2,0,3.3,0.1c1.1,0,2.4-0.2,2.9,1.3
			c0.1,0.2,0.5,0.3,0.7,0.2c0.2,0,0.3-0.3,0.4-0.5c0.2-0.7-0.1-1.3-0.5-1.9c-0.3-0.4-0.5-0.7-0.8-1.1c0.2-0.2,0.3-0.3,0.4-0.4
			c1.3-0.5,1.5-1.6,1.6-2.7c0-0.6-0.2-1-0.8-1.2c-0.7-0.2-1.3-0.3-2-0.4c-1.7-0.3-3.4-0.5-5.1-0.7c-0.2,0-0.4-0.2-0.6-0.2
			c-0.5-0.1-1.1-0.3-1.6-0.2c-1.9,0.2-3.7-0.1-5.4-0.9c-0.5-0.2-1.1-0.4-1.6-0.3c-0.9,0-1.3,0.7-1,1.6c0.3,1,1.1,1.5,1.9,2
			c0.4,0.2,0.8,0.4,1.4,0.7c-0.4,0.2-0.7,0.4-1,0.5c-2.6,1-5.3,2.1-7.9,3.1c-0.6,0.2-1.4,0.4-2,0.2c-1.4-0.5-2.9-0.5-4.4-0.5
			c-1.9-0.1-3.5-0.8-4.9-2.1c-1.1-1.1-2-2.3-2.9-3.6c-0.3-0.5-0.6-1-1.2-1.1c-0.7,0.3-0.9,0.9-0.7,1.6c0.2,1.1,0.6,2.1,1.4,2.9
			c1.2,1.3,2.4,2.5,3.6,3.8c0.1,0.2,0.3,0.3,0.4,0.5c-0.3,0.4-0.6,0.8-0.9,1.1c-0.5,0.7-1.1,1-2,0.9c-0.3,0-0.7-0.1-1-0.1
			C61.8,81,60.4,81,59,81c-0.5,0-1,0.2-1.4,0.5c-0.5,0.3-0.7,1.1-0.5,1.5C57.6,83.2,58.1,83.1,58.6,83.1z"/>
		<path d="M131.6,165c-1.5,0.1-2.9-0.2-4.1-1c-1.4-0.8-2.3-2-2.2-3.7c0-0.7,0.1-1.4,0.1-2.1c0.1-0.8,0.2-1.6,0.2-2.4
			c0-0.5,0-1.1-0.6-1.4l-1.2,1.5l-1.3-1.8c-0.2,0.7-0.4,1.1-0.5,1.6c-0.2,0.6-0.4,1.1-1,1.3c-1.2,0.5-2.5,0.9-3.7,1.3
			c-1.2,0.4-1.3,0.4-1,1.6c0.1,0.4,0.2,0.7,0.3,1.1c0.3,0.7,0.8,1.1,1.6,1.1c0.5,0,1,0,1.5,0c1.3,0.1,1.5,0.2,1.5,1.5
			c0.1,1.2,0.2,2.3,0.2,3.5c-0.1,3.4-0.4,6.8-0.6,10.2c0,1-0.3,1.9-0.8,2.8c-0.2,0.4-0.2,0.8-0.4,1.4h1.6c0.2,1.1,0.6,1.4,1.5,1
			c0.3-0.2,0.5-0.4,0.6-0.8c0.2-0.8,0.3-1.6,0.4-2.3c0.4-2.2,0.9-4.5,1.4-6.8c1.4-0.1,2.7-0.2,4-0.2c0.5,0,0.7,0.2,0.7,0.7
			c0,1,0.1,2,0,3.1c-0.2,1.9-0.2,3.9-1,5.7c-0.1,0.2-0.1,0.5-0.1,0.9l1.4-0.1c0.2,0.3,0.4,0.8,0.9,0.6s0.7-0.5,0.8-1
			c0.3-2,0.7-4.1,1-6.2c0.2-1.6,0.4-3.1,0.6-4.7c0.4-2.9,0.6-5.8,1.4-8.7c0.4-1.3,0.3-2.8,0.3-4.2c0-0.4,0-0.8-0.6-1.1
			c-0.1,0.5-0.1,0.8-0.2,1.2c-0.3,1.7-0.7,3.4-1,5.1C133.3,164.6,132.6,165,131.6,165z"/>
		<path d="M73.4,166.2c-0.4-0.3-0.8-0.6-1.2-0.9c-2-1.4-4.3-2.3-6.6-3.3c-0.4-0.2-0.8-0.2-1.2-0.3c-1.4-0.4-2.7-0.7-4-1.1
			c-1.2-0.4-2.4-0.7-3.6-1.1c-0.9-0.3-1.5,0.1-2.1,0.7c-1.1,1.1-1.5,2.4-1.3,3.9c0.2,1.3,0.1,1.3-1,1.9c-0.7,0.4-1.5,0.7-2.2,1.1
			c-0.5,0.3-1,0.8-1.5,1.2c-0.5,0.6-0.5,1,0.1,1.6c0.8,0.7,1.4,1.6,2.5,2.1c1.4,0.6,2.5,1.6,4,2.1c0.9,0.3,1.9,0.7,2.7,1.4
			c0.7,0.6,1.3,0.6,2.1,0.4c0.8-0.2,1.5-0.3,2.3-0.5l0.1,0.2c0.4-0.1,0.9-0.1,1.3-0.3c1.1-0.3,2.3-0.6,3.4-1
			c1.6-0.5,3.2-1.1,4.8-1.7c0.6-0.2,1.1-0.6,1.5-1C75.1,170.1,75.2,167.7,73.4,166.2z"/>
		<path d="M23.8,117.8c-0.4-0.1-0.8,0-1.2,0.1c-1.2,0.4-1.7,1.4-2,2.6c-0.8,4-0.5,8,0.9,11.8c0.3,0.8,0.9,1.6,1.5,2.2
			c1.4,1.5,3.2,1.1,4.2-0.7c1.1-1.9,1.6-4.1,1.6-6.2c0-2.3-0.4-4.8-1.2-6.6C26.9,119.4,25.7,118.2,23.8,117.8z"/>
		<path d="M125.8,129.1c-0.7-0.3-1-0.8-1.1-1.5c0-0.3-0.2-0.6-0.2-0.9c-0.4-1.2-1.4-1.9-2.6-1.7c-0.3,0-0.6,0.1-0.9-0.1
			c-1.1-0.5-2.1-0.6-3,0.4c-0.1,0.1-0.2,0.1-0.3,0.1c-0.6,0.1-1.1,0.5-1.4,1c-0.2,0.3-0.4,0.5-0.6,0.7c-1,0.9-1.4,2.3-0.8,3.4
			c0.4,0.6,0.5,1.3,0.4,1.9c-0.1,2.8,0.7,5.8,2.2,8.1c0.2,0.3,0.6,0.6,0.9,0.6c1.8-0.1,3.5-0.1,5.2-0.9c0.6-0.3,1-0.7,1-1.5
			c0-0.6,0.2-1.2,0.7-1.7c1.7-1.7,2.2-4.8,1.2-7C126.4,129.7,126.1,129.3,125.8,129.1z"/>
		<path d="M37.9,68.3c-0.1,0.5-0.3,0.7-0.7,0.9c-0.4,0.2-0.9,0.5-1.1,0.9c-1.3,2-0.8,5.4,0.9,7c0.5,0.5,0.8,1,0.9,1.8
			c0,0.8,0.5,1.3,1.2,1.6c1.7,0.8,3.6,0.8,5.4,0.9c0.5,0,0.8-0.2,1.1-0.7c1.7-2.6,2.7-5.4,2.4-8.5c0-0.3,0.2-0.7,0.3-1
			c0.2-0.5,0.5-1.1,0.7-1.6c-0.2-0.6-0.2-1.2-0.6-1.6c-0.7-0.8-1.6-1.5-2.3-2.2c-0.1-0.1-0.2,0-0.3-0.1c-0.2-0.1-0.5-0.1-0.6-0.3
			c-0.8-0.8-1.8-0.7-2.8-0.4c-0.4,0.1-0.8,0.2-1.2,0.2c-1.5-0.1-2.5,0.5-3,2C38.1,67.6,37.9,68,37.9,68.3z"/>
		<path d="M85.1,54.4c1.1,0,2.2-0.2,3.2-0.7c3.9-1.9,4.4-6.7,1.1-9.3c-2.6-2.1-7.1-1.8-9.4,0.7c-1.9,2.1-2,5.1-0.1,7.2
			C81.4,53.7,83.2,54.3,85.1,54.4z M80.8,48.6c0-1.3,0.5-2.2,1.5-2.9c1.7-1.1,3.6-1.2,5.4-0.2c2.3,1.3,2.5,4.4,0.5,6
			c-1.7,1.4-4.6,1.3-6.2-0.2C81.1,50.6,80.7,49.7,80.8,48.6z"/>
		<path d="M31,157c-0.1-0.8-0.3-1.6-0.7-2.2c-0.5-0.7-0.8-1.5-0.8-2.4c0-0.3-0.1-0.6-0.2-0.9c-0.2-1-0.7-1.8-1.7-2.2
			c-0.3-0.1-0.5-0.4-0.8-0.6c-0.6-0.6-1.6-0.6-2.2,0c-0.8,1-1.2,2.1-1,3.3c0.2,1.3,0.3,2.5,0.4,3.8c-0.2,2.2,0.2,4.4,0.7,6.6
			c0.2,0.7,0.3,1.4,1.1,1.7c0.7,0.2,1.4,0.7,2.1,0.6c0.3-0.1,0.9-0.3,0.9-0.5c0.1-1.2,0.7-2,1.4-2.9c0.2-0.2,0.2-0.5,0.3-0.7
			C31.1,159.4,31.2,158.2,31,157z"/>
		<path d="M55.7,101.9c0.9,0,1.8-0.3,2.6-0.8c1.6-1,2.7-2.4,3.2-4.2c0.5-1.8,0.1-3.4-1-4.9c-0.4-0.6-1.1-0.9-1.9-0.8
			c-1.2,0.2-2.4,0.5-3.2,1.5c-0.4,0.5-1,0.8-1.6,1c-1.6,0.4-2.9,2-2.9,3.5C50.9,99.7,53.1,101.9,55.7,101.9z"/>
		<path d="M136.2,87.8c-0.2-0.9-0.5-1.8-0.8-2.7c-0.3-0.9-0.7-1.2-1.6-1c-1.1,0.2-2.3,0.5-3.3,1c-1.2,0.5-2,1.5-2.3,2.9
			c-0.4,1.5-0.3,3-0.3,4.5c0,0.3,0.2,0.7,0.4,0.9c0.6,0.3,0.6,0.7,0.7,1.2c0.2,0.9,0.2,1.8,0.5,2.7c0.5,1.9,1.3,2.1,3.1,2.3
			c1.2-0.2,2.6-0.5,3.2-2c0.5-1.2,0.7-2.5,0.7-3.8c-0.1-1.5-0.4-3.1,0-4.6C136.4,88.7,136.3,88.2,136.2,87.8z"/>
		<path d="M106.2,150.6c-1.7,1.5-2.5,3.5-2.4,5.8c0,0.3,0.1,0.6,0.1,0.9c0.1,1.6,0.9,2.7,2,3.7c1,0.8,1.8,0.8,2.8-0.1
			c0.8-0.7,1.4-1.6,1.7-2.6c0.1-0.5,0.4-0.9,0.7-1.3c0.8-0.7,1.2-1.6,1.5-2.6c0.5-1.8-0.3-3.5-1.9-4.4
			C109.3,149.2,107.6,149.4,106.2,150.6z"/>
		<path d="M27.5,84.8c-1.5-0.2-2.4,0.3-2.8,1.8c-0.4,1.3-0.5,2.7-0.7,4.1c-0.1,0.3,0,0.7,0.2,1c0.3,0.5,0.3,1,0.3,1.5
			c0,1.1,0.1,2.3,0.2,3.4c0.2,1.6,1.5,2.9,3.1,3.2c0.9,0.2,1.5-0.1,2.1-0.8c0.7-0.9,0.9-2,1-3.1c0.2-1.5,0-3.1,0.6-4.6
			c0.1-0.2,0.1-0.5,0.1-0.8c-0.2-1.3-0.4-2.6-0.6-3.9c-0.1-0.7-0.6-1.1-1.2-1.3C29,85,28.3,84.9,27.5,84.8z"/>
		<path d="M71.9,45.5c-0.3,2.2,0,4.1-0.1,5.9c1.3,0.3,3.1,0.3,4.1,0c1.5-0.4,2.4-1.5,2.4-2.9s-1-2.5-2.5-2.8
			C74.5,45.6,73.3,45.6,71.9,45.5z M75.7,49.3c-0.3,0.5-0.9,0.6-1.6,0.4v-2.1c0.6-0.2,1.2-0.1,1.6,0.4C75.9,48.3,76,48.8,75.7,49.3
			L75.7,49.3z"/>
		<path d="M94.3,51.8c0.1-0.6,0.2-1.1,0.4-1.8c0.6,0.7,1,1.4,1.5,1.7c0.6,0.3,1.4,0.3,2.2,0c-0.4-0.7-0.8-1.2-1.2-1.9
			c0.2-0.1,0.3-0.1,0.4-0.2c0.7-0.6,1-1.3,0.7-2.2s-1-1.4-2-1.5s-2.1-0.2-3.2-0.2c-0.8,0-0.9,0.1-0.9,0.8c-0.1,1-0.1,2-0.1,2.9
			c0,0.7,0,1.4,0.1,2.3L94.3,51.8z M95.8,47.6c0.4,0.1,0.5,0.6,0.2,0.8s-0.7,0.2-1.1,0.1c-0.2-0.1-0.2-0.5-0.4-1
			C95.2,47.6,95.5,47.5,95.8,47.6z"/>
		<path d="M99.7,49.8c-0.3,0.4-0.7,0.8-1,1.2c1.4,1,2.8,1.2,4.3,1c0.3-0.1,0.6-0.2,0.8-0.3c0.6-0.3,0.9-0.9,0.9-1.6
			c0-0.7-0.3-1.3-1-1.5c-0.6-0.2-1.1-0.4-1.7-0.6c-0.2-0.1-0.3-0.2-0.5-0.3c0-0.1,0.1-0.2,0.1-0.2l2.1,0.5l0.9-1.1
			c-1.2-1.1-3.4-1.3-4.6-0.6c-0.6,0.3-1,1-0.9,1.7c0,0.7,0.4,1.1,1,1.4c0.4,0.2,0.9,0.3,1.4,0.5c0.3,0.1,0.5,0.2,0.8,0.3
			C101.3,50.6,100.6,50,99.7,49.8z"/>
		<path d="M33.3,46.6c0,1.2,0.5,2.4-0.2,3.5c0,0.1-0.1,0.2,0,0.3c0,0.6,0.2,0.7,0.9,0.8c1.1,0.1,1.5-0.1,1.5-0.7
			c0-0.3-0.2-0.6-0.4-0.9c-0.4-0.5-0.2-0.7,0.2-1.1c0.4,0.4,0.7,0.8,0.6,1.5c-0.2,0.7,0.1,1,0.6,1c0.7,0,1.4-0.1,2.1-0.2
			c0.2-0.7,0.1-1-0.4-1.5c-0.7-0.5-1.2-1.3-1.8-2.1c0.6-0.6,1.1-1.1,1.6-1.6c0.4-0.3,0.5-0.6,0.4-1c-0.1-0.5-0.5-0.4-0.9-0.5
			c-0.3,0-0.5,0-0.8,0c-1,0.1-1.1,0.2-1,1.1c0.1,0.8,0,0.9-1,1.4l0.5-1.1c0.4-0.8,0-1.4-0.8-1.4c-0.3,0-0.5,0-0.8,0.1
			c-0.8,0.1-1,0.6-0.6,1.4C33,46.1,33.3,46.3,33.3,46.6z"/>
		<path d="M106,81.8c0.3,0,0.7,0,1,0c2.1,0,4-0.6,5.8-1.6c0.5-0.3,1-0.8,1.4-1.3c0.6-0.7,0.4-1.5-0.4-1.9c-0.4-0.2-0.9-0.4-1.4-0.4
			c-0.6-0.1-1.2-0.1-1.8,0c-1.7,0.1-3.4,0.5-4.9,1.4c-0.4,0.3-0.9,0.6-1.2,1C103.8,80.3,104.5,81.6,106,81.8z"/>
		<path d="M28.5,51.4c0.9-0.1,1.5-0.6,1.6-1.6c0.1-0.5,0-1,0-1.5h0.1c-0.1-0.8-0.2-1.7-0.4-2.5c-0.2-0.8-1-1.4-1.9-1.3
			c-0.8,0.1-1.5,0.8-1.5,1.6c0,1.3,0.1,2.6,0.2,3.8C26.9,51,27.6,51.5,28.5,51.4z M27.7,46.5c0-0.2,0.3-0.4,0.4-0.4
			c0.2,0,0.4,0.2,0.5,0.3s0.1,0.2,0.1,0.3c0.1,0.8,0.2,1.6,0.2,2.5c0,0.3-0.2,0.7-0.6,0.7c-0.2,0-0.5-0.3-0.6-0.6
			c-0.1-0.5-0.1-1-0.1-1.6l0,0C27.7,47.4,27.6,46.9,27.7,46.5L27.7,46.5z"/>
		<path d="M15.9,95.8c0.1,0.1-0.1,0.4,0.1,1c0.2,0.9,1.1,5.1,1.1,5.9c0,0.9-0.1,3.5,0.2,4.1s0.5,1,1.1,1h0.1c0.3,0,0.6-0.1,0.9-0.3
			c0.9-0.5,1.5-1.5,1.1-2.1c-0.1-0.2-0.5-0.4-0.7-0.3c-0.9,0.2-1.5-0.1-1.9-0.8v0.2c-0.1-0.1-0.1-0.3-0.1-0.4l0,0l0.1,0.1v-1.1h-0.1
			c0-0.7,0-1.4-0.1-1.9c0.1,0.6,0.3,1.1,0.4,1.7c0.3,0.9,0.8,1,1.5,0.4c0.5-0.4,0.9-0.9,1.3-1.4s0.9-0.9,0.5-1.6s-1-0.6-1.6-0.4
			c-0.8,0.1-1,0-1.3-0.7c-0.1-0.2-0.2-0.5-0.2-0.8c-0.5-2.3-0.9-4.6-1.3-6.9c-0.3-1.8-0.5-3.5-0.8-5.5c0-0.3,0-0.9-0.1-1.8l0.1,0.1
			v-1l-0.1,0.2c-0.1-2-0.1-4.6-0.2-6.2c0.1-1.8,0.1-1.8-0.5-2.6l-0.6,1.6l0,0l-0.6,1.4L14,80.3l0.3,5.9l-0.6-0.1c0,0-0.2-0.9-0.2-1
			s-1.3-6.3-1.2-6.8c0.1-0.4,0.2-0.9,0.3-1.3c0-0.2,0-4.3,0-4.4s0.3-3.1,0-3.4c-0.2-0.4-0.9-2.4-1-3.1S11,64.7,10.9,65
			c-0.1,0.2-0.2,0.5-0.2,0.7l2.6,32l0.5,1.8c0.2-0.3,0.3-0.7,0.4-1c0.2-0.6,0.9-2.2,1.3-2.6C15.8,95.8,15.8,95.8,15.9,95.8z"/>
		<path d="M24.4,48.5c0.6,0.7,0.6,1-0.1,1.6c-0.2-0.2-0.4-0.5-0.6-0.7s-0.5-0.1-0.7,0.1c0,0.2,0,0.2,0,0.3c-0.1,0.6,0.5,1.6,1.1,1.8
			c0.7,0.2,1.4-0.1,1.6-0.8c0.2-0.6,0.3-1.3,0.2-2c-0.2-1.4-0.6-1.7-2.2-1.8c0.2-0.3,0.3-0.5,0.4-0.6c0.3-0.1,0.6-0.1,0.9-0.2
			c0.5-0.1,0.6-0.4,0.5-0.8c0-0.4-0.3-0.6-0.7-0.6c-0.3,0-0.6,0-0.9,0.1c-1.1,0.1-1.1,0.2-1.1,1.3c0,0.5,0,0.9,0,1.4
			C22.9,49.1,23,49.1,24.4,48.5z"/>
		<path d="M41.7,50.9c0.9-0.2,1.2-0.8,1.2-1.9c-0.5-0.2-0.9-0.1-1.4,0.4c-0.4,0.4-0.9,0.3-1-0.3c-0.1-0.4-0.1-0.7-0.1-1.1
			c0-0.3,0.2-0.6,0.4-0.7c0.2-0.1,0.6,0.1,0.7,0.3c0.4,0.5,0.8,0.4,1.4,0.1c0-0.5-0.1-1.1-0.1-1.7c-0.4,0-0.8,0.1-1.1,0.1
			c-0.4,0-0.7-0.2-1.1-0.2c-0.7,0-1.2,0.4-1.4,1.1c-0.3,1-0.3,2,0.1,3C39.6,50.8,40.6,51.2,41.7,50.9z"/>
		<path d="M27.6,179.4c-0.8-0.2-1.5,0.4-2.3,0.2c-0.1,0-0.4,0.3-0.5,0.5c-0.2,0.3-0.2,0.7-0.3,1.1c0,0.5,0,1,0,1.5v0.1v1.4
			c0,0,0,0.5,0.1,0.7c0,0.2,0.6,2.1,1,2.5l0.1,0.1c0.8,1.1,1.9,1.1,2.6-0.2c1.2-2.2,1.3-4.5,0.5-6.8C28.6,180,28,179.5,27.6,179.4z"
			/>
		<path d="M18.8,47.6c-0.2,1.1,0.3,2.1-0.2,3.2c-0.1,0.3,0.1,0.9,0.2,1c0.4,0.1,1,0.1,1.4-0.1c0.4-0.2,0.2-0.7,0-1.1
			c-0.2-0.3-0.4-0.6-0.4-0.9c-0.1-0.9-0.1-1.8-0.2-2.8c0.3,0.3,0.5,0.7,1.1,0.2c-0.1-0.6-0.1-1.2-0.2-1.9c-1.1-0.1-2-0.1-2.9,0.3
			C17.4,47.3,17.5,47.4,18.8,47.6z"/>
		<path d="M14.7,49.8c0.4,0.2,0.5,0.6,0.2,1L14,50.1v2c0.2,0,0.4,0,0.5,0c0.9,0.1,1.2-0.1,1.3-1c0.1-1.2,0.1-2.3-1.2-3
			c-0.4-0.2-0.5-0.5-0.2-1l1,0.8v-2.2c-0.4,0-0.6,0-0.8,0c-0.6-0.1-0.9,0.2-0.9,0.7C13.7,47.7,13.5,49,14.7,49.8z"/>
		<path d="M16.3,48.5c0.1,0.9,0,1.9,0,2.8c-0.1,0.7,0.5,1.1,1.1,0.8c0.5-0.3,0.4-0.7,0.3-1.1c-0.1-0.5-0.3-1.1-0.4-1.6
			c-0.1-1-0.4-1.9,0.1-2.9c0.1-0.2-0.1-0.7-0.3-0.9c-0.2-0.1-0.6-0.1-0.8,0.1c-0.5,0.2-0.3,0.7-0.2,1.1C16,47.3,16.2,47.9,16.3,48.5
			z"/>
		<path d="M27.2,204.7c-0.2-0.6-0.6-1.2-1-1.6c-0.2-0.2-0.6,0.1-0.6,0.1s-0.6-0.1-0.6,2.3c-0.1,2.5,0.4,6,0.7,6.2
			c0.4,0.2,1.2,0.6,1.5-0.1c0-0.1,0-0.1,0.1-0.2l0.1-0.1c0.1-0.2,0.2-0.3,0.2-0.5c0.4-1.3,0.5-2.7,0.2-4
			C27.6,206.1,27.6,205.3,27.2,204.7z"/>
		<path d="M100.2,118.1c-0.9,0-1.6-0.1-2.3,0c-0.6,0.1-1,0.6-1.1,1.3c-0.1,0.6,0.3,1.3,0.8,1.5c0.7,0.3,1.5,0,1.9-0.6l-1.2-0.2
			l1.1-0.7l-1.2-0.5C99,118.7,99.8,119,100.2,118.1z"/>
		<path d="M12.3,51.5c0,0.4,0.3,0.7,0.5,1.1c0.8-0.4,0.9-0.9,0.9-1.4c0-1.3-0.1-2.5-0.3-3.7c-0.1-0.5-0.1-1.2-0.8-1.2
			S11.9,47,12,47.5C12,48.8,12.1,50.1,12.3,51.5z M12.6,47.4c0.6,0.8,0.7,2.5,0.3,3.9C12.2,50.4,12,48.3,12.6,47.4L12.6,47.4z"/>
		<path d="M70.3,44.2c0.7,0.4,1.5,0.2,1.9-0.4c-1.6,0.2-1.8,0.2-2-0.7l2.3-0.1c-0.1-1.1-0.5-1.7-1.3-1.8s-1.5,0.4-1.7,1.1
			C69.2,43.1,69.6,43.9,70.3,44.2z M71.1,41.6c0.4,0,0.7,0.3,0.7,0.8H70C70.2,41.8,70.6,41.6,71.1,41.6L71.1,41.6z"/>
		<path d="M60.6,44.1c0.3,0,0.6-0.1,1-0.2c0,0.6-0.2,0.9-0.7,1c-0.4,0.1-0.9,0-1.6,0c0.4,0.2,0.6,0.2,0.7,0.3
			c1.4,0.3,2.2-0.3,2.2-1.7c0-0.7,0-1.4,0-2c-0.6-0.1-1.1-0.2-1.6-0.2c-0.8-0.1-1.5,0.5-1.6,1.3v0.1C59,43.6,59.7,44.2,60.6,44.1z
			 M60.5,41.7c0.6,0,1.1,0.5,1.1,1.1c0,0.5-0.5,1-1.1,1s-1.1-0.4-1.1-1S59.9,41.7,60.5,41.7L60.5,41.7L60.5,41.7z"/>
		<path d="M17.8,104.3L17.8,104.3L17.8,104.3L17.8,104.3z"/>
		<path d="M66.6,44.3c0.7,0.2,1.3,0.1,1.6-0.5c-1.5,0.3-1.7,0.2-2-0.8h2.3c-0.1-1.2-0.5-1.8-1.4-1.8c-0.9-0.1-1.7,0.6-1.7,1.5
			C65.5,43.4,65.9,44.1,66.6,44.3L66.6,44.3z M67.2,41.6c0.4,0,0.7,0.3,0.7,0.8h-1.8C66.4,41.8,66.7,41.6,67.2,41.6z"/>
		<path d="M75.2,117.8c-0.6,1-1,1.8-1.5,2.6l0.2,0.2c0.2-0.1,0.4-0.1,0.6-0.2c0.3-0.2,0.6-0.6,0.8-0.6c0.3,0,0.5,0.4,0.8,0.6
			c0.1,0.1,0.1,0.1,0.2,0.2c0.1,0,0.4,0.1,0.4,0c0.1-0.1,0.2-0.4,0.2-0.5C76.4,119.4,76.1,118.5,75.2,117.8z"/>
		<path d="M88,118c-0.7-0.1-1.4-0.2-2,0.1c-0.4,1.9-0.4,2.1,0.3,2.6c0.1-0.8,0.6-1.3,1.5-1.5l-0.7-0.6C87.5,118.6,88,118.7,88,118z"
			/>
		<path d="M73.7,44.2c0.1-0.3,0.2-0.5,0.2-0.8s0-0.6,0.1-0.9c0.1-0.5,0.5-0.8,0.9-0.8c0.5,0,0.8,0.3,0.9,0.7s0.1,0.8,0.1,1.2
			c0,0.2,0.1,0.4,0.2,0.7c0.4-0.7,0.4-1.4,0.3-2c-0.1-0.8-0.7-1.2-1.6-1c-0.4,0.1-0.8,0.1-1.4,0.2C73.6,42.4,73.2,43.3,73.7,44.2z"
			/>
		<path d="M64.5,118.4c0.3,0,0.7,0,0.8-0.4c-1.1-0.4-1.9-0.2-2.3,0.4c-0.3,0.6-0.1,1.6,0.4,1.9c0.6,0.4,1.3,0.4,1.9-0.3
			c-0.3-0.1-0.5-0.2-0.7-0.2c-0.5,0-0.9-0.2-0.9-0.8C63.7,118.6,64,118.5,64.5,118.4z"/>
		<path d="M41.1,45.5c0.6-0.1,0.9-0.8,0.8-1.6h-2.3C39.9,45.3,40.3,45.7,41.1,45.5z"/>
		<path d="M155.7,52C155.7,52,155.7,51.9,155.7,52l-0.1-0.2c-0.1-0.2-0.1-0.3-0.2-0.5l0,0l0,0l0,0c-1,1.4-0.8,3.1-1,4.7
			c-0.1,0.5-0.1,1.1,0.6,1.5c0-0.2,0.1-0.5,0.2-0.7c0,0,0,0,0-0.1C155.4,56.2,155.6,52.9,155.7,52C155.7,52.1,155.7,52,155.7,52z"/>
		<path d="M79,74.8c1.2-0.5,2.3-1,3.5-1.5c0.1-0.1,0.2-0.2,0.4-0.3C81.4,72.9,79.4,73.8,79,74.8z"/>
		<path d="M65.2,41.6c-0.7-0.5-1.3,0.3-1.8-0.2c-0.2,1.8-0.1,2.2,0.4,2.9C63.7,43.1,63.6,42,65.2,41.6z"/>
		<path d="M136.1,160.8c0.1-1,0.5-2,0-3V160.8z"/>
		<path d="M17.9,104.3C17.9,104.3,17.8,104.3,17.9,104.3L17.9,104.3L17.9,104.3z"/>
		<path d="M134,157.2l-0.3-0.1l-0.3,2.1h0.2C133.8,158.6,133.9,157.9,134,157.2z"/>
		<path d="M80.2,72.2l-0.8,0.2l0.1,0.3l0.8-0.2C80.3,72.4,80.3,72.3,80.2,72.2z"/>
		<path d="M87.6,50.7c1.1-1,1.2-2.8,0.2-3.9l0,0c-0.1-0.1-0.2-0.2-0.4-0.3c-0.6-0.5-1.4-0.7-2.3-0.7c-0.8,0-1.6,0.3-2.2,0.8
			c-1.2,0.9-1.5,2.7-0.5,3.9c0.1,0.1,0.2,0.2,0.3,0.3C83.9,51.9,86.3,51.9,87.6,50.7z M85.2,47.5c0.7,0,1.2,0.5,1.2,1.2
			s-0.5,1.1-1.2,1.1S84,49.3,84,48.6C84,47.9,84.4,47.5,85.2,47.5z"/>
		<path d="M152,86.8L152,86.8c0-0.1-0.1-0.1-0.2-0.1s-0.5,0.9-0.5,1c0,0-0.1,1.1-0.2,2.1c-0.1,0.7-0.2,1.4-0.1,2.1
			c0,0.2,0.1,0.4,0.1,0.6c0.1,0.3,0.2,0.3,0.3,0.3s0.4-0.6,0.6-1.2c0.2-0.6,0.2-4,0.2-4.3C152.2,87.2,152.1,87,152,86.8z"/>
		<path d="M19.7,64.5c-0.1,0.2,0,1.9,0.1,2.1c0,0,0.7,2,1.4,2.9c0.3,0.4,0.5,0.7,0.6,0.9l0.3,0.6c-0.6,0.6-1.4,0.5-2.1,0.9
			c-0.3,0.1-0.6,0.2-0.6,0.3c-0.1,0.3-0.1,1.6,0,1.8c0.1,0.2,0,0.2,0.2,0.2c0.1-0.1,0.2-0.1,0.3-0.2c0.3-0.1,0.5-0.2,0.7-0.4
			c0.6-0.3,1.3-0.7,1.9-0.9c0.9-0.3,1.1-0.1,1.6,0.6c0.2,0.3,0.3,0.5,0.5,0.8c0.5,0.8,0.9,1.6,1.1,1.9c0.4,0.6,0.8,1.6,1.3,1.9
			c0.2,0.1,0.3,0.2,0.5,0.3c0.2,0.1,0.3,0.2,0.5,0.3c0.5,0.3,0.9,0,0.8-0.6c-0.1-0.5-0.3-1-0.6-1.5l0,0c0-0.1-1.2-2-1.7-2.4
			c-0.4-0.6-1.1-1-1.3-1.7c0.1,0,0.1-0.1,0.2-0.1c0.2,0,0.5,0,0.7,0c1.5,0,2.6-0.8,3.1-2.2c0.1-0.3,0.2-0.8,0-1s-0.7-0.2-1-0.2
			s-0.7,0.2-1,0.3c-0.8,0.3-1.5,0.6-2.3,0.9s-1.1,0.4-1.4,0.2L23,69.5l-0.1-0.1l0,0l0,0c0,0-0.6-0.8-0.8-1.8c-0.1-0.8-0.5-2.4-0.7-3
			c-0.1-0.3-0.3-0.4-0.9-0.3C20.2,64.4,19.7,64.4,19.7,64.5z"/>
		<path d="M148.3,123.8c-0.1,0.2-0.2,0.4-0.3,0.7c0,0,0,0.4-0.1,0.9c-0.3,0.9-0.4,2.2-0.4,3.7c0,0.2,0,0.4,0.1,0.6
			c0,0.2-0.1,0.8,0.2,0.8s0.3,0.3,0.4-0.2c0.1-0.5,0.5-3.3,0.5-3.9s0.1-2.2,0-2.4C148.6,123.9,148.4,123.8,148.3,123.8z"/>
		<path d="M21.2,174c0.8-0.1,1.2-0.6,1.1-1v-0.1c0-0.1,0-0.2-0.1-0.3c-0.1-0.3-0.1-0.5-0.3-0.7c0,0-1.1-0.6-1.2-1.3
			s-0.1-12.1-0.2-12.7s-0.9-2.7-0.8-3.1c0-0.4,0.3-0.9,0.2-1.5c-0.1-0.6-1.2-4.1-1.2-5.5s-0.3-3.6-0.3-3.6l0.4,0.9
			c0,0,0.3,0,0.3-1.6s0.2-2.6-0.1-2.7s-0.9-0.2-0.9-0.4s-0.3-1-0.1-1.2c0.2-0.2,0.5-0.9,0.7-0.5s0.4,0.7,0.5,0.5s0.3-3.3,0.3-3.6
			c0-0.2-1-1.4-1.1-1c0,0.4-0.3,1.9-0.4,1.4s-0.4-5-0.5-5.3s-0.2-0.2-0.2-0.7c0-0.6-0.2-3.3,0-3.7c0.2-0.3,0.5-1.2,0.5-2.7
			s-0.2-3.4,0-3.7c0.2-0.3,0.2-1.1,0-1.4c-0.3-0.3-1-2.1-1.1-2.8c-0.1-0.7-0.4-1.3-0.7-1.4s-0.4-0.3-0.5,0s-0.3,2.2-0.3,3.1
			c0,0.8,0.2,2.7,0.2,3.1c0,0,1.4,6.7,1.3,7.4s-0.4,3.8-0.4,3.8l2.2,26.8l0.2-0.9l-0.1-2.9l0.6,2.2l0.5,1.6c0,0,0.1,3.5,0.1,5.3
			s0.5,6.1,0.5,6.9c-0.1,0.7,0,2.4,0.2,2.7C20.5,173.7,20.4,174.1,21.2,174z"/>
		<path d="M24.2,214.1c-0.2-0.6-0.6-6-0.6-6.4s0-0.7,0.1-1.1c0.1-0.4-0.6-6.1-0.6-6.6c0-0.1,0.1-0.4,0.3-0.7c0,0.1-0.1,0.3-0.1,0.4
			c0.6-0.8,1.3-1.6,1.9-2.4c0.1-0.2,0.1-0.4,0.2-0.6c0.3-0.5,0-0.9,0.1-1.6c0.1-0.3,0-0.5-0.1-0.8c-0.1-0.4-0.2-0.8-0.8-0.9
			l-0.1,0.1c-0.3,0.1-0.5,1.3-0.5,1.7v0.1l-0.3,0.5l-0.6,0.2c-0.2-0.1-0.3-0.2-0.5-0.3c-0.2-0.2-0.3-2.6-0.3-3s-0.1-1.8,0.3-1.5
			s0.1-2,0.1-2.1s-0.3-0.8-0.5-1s-0.6-2.6-0.6-2.6c-0.2-0.2,0.1-2,0.1-2.3s-0.4,0.2-0.4,0.2l-0.1-1.4c0,0-0.3,1.1-0.4,1
			s-0.2-0.6-0.2-0.3c-0.1,0.3-0.1,1.2-0.1,1.2l2.5,33.2c0.1,0,0.2,0,0.4-0.1c0.2-0.1-0.1-0.9,0.1-1.8c0.1-0.8-0.2-1.7-0.4-2
			c-0.1-0.3,0.2-2.4,0.2-3.1c-0.1-0.7,0.6,3.7,0.6,4.2c0.1,0.5,0.1,1.9,0.1,2.3c0,0.3,0.4,0.4,0.7,0.3h0.1c0.1,0,0.2-0.1,0.3-0.2
			l0.1-0.1l0.1-0.1h-0.1C25.1,216,24.4,214.7,24.2,214.1z"/>
		<path d="M11.3,52.8c0-0.2,0.1-1.3,0-1.2c-0.1,0-0.3-0.6-0.2-0.7s0.4-0.2,0.5-1s0.1-2.6-0.1-3c-0.2-0.3-0.7-0.5-1-0.3
			c0,0,0,1.3,0.1,1.3s0.1,0.1,0.1,0.2s0.4,4.9,0.4,4.9S11.2,53,11.3,52.8z M10.9,48.3c0-0.3,0.1-0.8,0.2-0.7
			c0.4,0.5,0.3,1.5,0.3,1.7s-0.2,0.1-0.4,0.2C10.8,49.5,10.9,48.6,10.9,48.3z"/>
		<path d="M10.4,51.2c0,0.2,0,0.4-0.1,0.7s-0.2,0-0.2,0c-0.1,0-0.1-1.1,0-1.4c0-0.2,0.1,0,0.2,0s-0.1-1-0.1-1.2S10,49.2,10,49.2
			c-0.1,0-0.1,0.1-0.2,0.1c-0.1,0-0.1-0.8-0.1-1.1c0-0.4,0.1-0.2,0.2-0.2c0.1,0,0.3,0.6,0.3,0.7s0.1,0.1,0.1,0s-0.1-1.9-0.1-1.9
			c-0.3-0.3-0.8,0.4-0.8,0.4s0.4,5.7,0.5,5.9s0.2,0,0.3,0s0.3-0.1,0.3-0.2c0-0.1,0-1.4,0-1.5C10.5,51.2,10.4,51.2,10.4,51.2z"/>
	</g>
</g>
</svg>
