<?xml version="1.0" encoding="utf-8"?>
<!-- Generator: Adobe Illustrator 23.0.3, SVG Export Plug-In . SVG Version: 6.00 Build 0)  -->
<svg version="1.1" id="Vrstva_1" xmlns="http://www.w3.org/2000/svg" xmlns:xlink="http://www.w3.org/1999/xlink" x="0px" y="0px"
	 viewBox="0 0 168 300" style="enable-background:new 0 0 168 300;" xml:space="preserve">
<title>5</title>
<g>
	<path d="M79.8,107.4c0.3,0,0.6,0,0.8,0c0.4,0,0.8,0,1.2,0c0.4,0,0.9,0,1.3,0h0.4l-0.1-0.3c-0.2-0.4-0.3-0.8-0.5-1.2
		c-0.1-0.2-0.1-0.3-0.2-0.5c-0.1-0.3-0.2-0.5-0.3-0.8c-0.1-0.3-0.2-0.6-0.3-0.9c-0.9-2-0.9-4.3-0.1-6.4c0.6-1.5,1.8-2.7,3.4-3.2
		c2.8-0.9,5.8,0.6,6.7,3.3c0.8,2.4,0.7,5.1-0.3,7.4c-0.1,0.4-0.3,0.7-0.4,1.1c-0.1,0.2-0.2,0.5-0.3,0.8l-0.1,0.3H91l0,0h2.9
		c1.3,0,1.5-0.1,2-1.3c1.1-2.8,1.4-5.8,0.7-8.7c0,0,0,0,0,0c0,0,0-0.1,0-0.1c-0.5-2.7-2.1-5.1-4.4-6.7c-2.2-1.5-4.9-2-7.5-1.3
		c-3.6,0.8-6,3.1-7.1,6.8c-0.3,1.2-0.5,2.5-0.5,3.8c0,0.4,0,0.8,0.1,1.3c0.1,2,0.7,3.9,1.7,5.7C79.1,106.9,79.4,107.3,79.8,107.4z"
		/>
	<path d="M79.6,165.9L79.6,165.9l0.6-0.2c0.3-0.1,0.5-0.2,0.8-0.3l15.1-7.3c0.5-0.2,0.8-0.7,0.8-1.2c0-0.4,0-0.7,0-1.1
		c0-0.7,0-1.5,0-2.2c0.1-0.8-0.4-1.6-1.2-1.8c-4-1.6-8-3.3-11.8-5l-2.9-1.2c-0.2-0.1-0.4-0.2-0.6-0.3c0,0-0.1,0-0.1,0
		c0.2,0,0.3,0,0.5,0c0.2,0,0.5,0,0.7,0h6.4c2.6,0,5.3,0,8-0.1c0.5,0,0.8-0.1,1-0.3c0.2-0.2,0.2-0.5,0.2-1l0-2.6
		c0-0.3-0.1-0.6-0.1-0.8l0-0.2l-0.2,0c-1.5,0-3,0-4.5,0c-1.8,0-3.7,0-5.6-0.1c0.1-0.2,0.2-0.3,0.3-0.5c0.1-0.2,0.3-0.3,0.4-0.4
		c1.3-1.2,2.6-2.4,4-3.7c1.7-1.5,3.3-3.1,5-4.6c0.1-0.1,0.3-0.3,0.4-0.4c0.1-0.2,0.2-0.4,0.2-0.6c0.1-1.2,0-2.5-0.1-3.7l0-0.2
		l-0.2,0c-0.3,0-0.6,0-0.9,0c-1.3-0.1-2.4,0-3.7,0c-0.8,0-1.5,0-2.3,0h-9.4c-0.1,0-0.1,0-0.2,0c-0.2,0-0.4,0-0.5-0.1
		c0.2-0.2,0.3-0.3,0.5-0.5l3.6-3.1l3.9-3.3c0.2-0.2,0.4-0.3,0.5-0.4c0.2,0,0.3,0.1,0.7,0.3c2,1.4,4.1,2.8,6.1,4.2
		c0.3,0.2,0.5,0.3,0.8,0.5c0.2,0.1,0.5,0.3,0.8,0.5l0.4,0.3l0-0.1l0.2,0.1l0-4.3c0-0.7-0.3-1.4-0.9-1.7l-1.6-1.2
		c-1.6-1.1-3.2-2.2-4.7-3.4c-0.1-0.1-0.3-0.2-0.4-0.4l7.4-0.2l0,0l0.1,0l0-0.2c0.1-0.2,0.1-0.5,0.1-0.8c0-0.3,0-0.6,0-0.9
		c0-0.6,0-1.2,0-1.8c0-0.7-0.1-1-0.5-1.1c-0.2-0.1-0.5-0.1-0.9-0.1l-16.3,0.1c-0.4,0-0.8,0.1-1.2,0.2l-0.2,0v3.5
		c0,0.8,0.1,1.1,0.7,1.2c0.2,0,0.4,0.1,0.7,0.1h6.3c0.1,0,0.3,0,0.4,0c0,0,0.1,0,0.1,0c0,0.1-0.1,0.1-0.1,0.2
		c-0.7,0.6-1.3,1.2-2,1.8l-0.1,0.1c-0.4,0.3-0.7,0.6-1.1,1c-1,0.9-2,1.8-3.1,2.7c-1.1,0.8-1.7,2.1-1.5,3.4c0.2,1.6,0.2,3.2,0.2,4.7
		c0,0.7,0,1.4,0,2.1c0,0.3,0,0.6,0.1,1.1l0,0.2l0.1,0v0l0.2,0c1.2,0.2,2.3,0.2,3.4,0.1c0.7,0,1.5-0.1,2.2,0c0.8,0.1,1.5,0.1,2.3,0.1
		c0.9,0,1.8,0,2.8,0.1c-0.2,0.2-0.4,0.4-0.6,0.6c-3.2,2.9-6.3,5.8-9.5,8.7c-0.4,0.3-0.6,0.8-0.6,1.3c0.1,2.5,0.2,4.9,0.2,7.4
		c0,0.5,0.3,1,0.8,1.1c0.4,0.2,0.9,0.3,1.3,0.5c0.2,0.1,0.5,0.2,0.8,0.3l9.6,3.8c0.2,0.1,0.4,0.2,0.6,0.3c0,0-0.1,0-0.1,0.1
		c-0.3,0.2-0.5,0.3-0.7,0.4c-0.4,0.2-0.8,0.4-1.2,0.6c-0.2,0.1-0.5,0.2-0.7,0.3c-1.6,0.7-3.2,1.4-4.7,2.1c-1.4,0.7-2.9,1.3-4.3,2
		c-0.6,0.2-0.9,0.7-0.9,1.3l0,2.9c0,0.3,0.1,0.6,0.2,0.9l0.1,0.3L79.6,165.9z"/>
	<path d="M80,157.8L80,157.8C80.1,157.8,80.1,157.8,80,157.8l2.9,0c0.2,0,0.4-0.1,0.6-0.2l0.1-0.1V153h0h-4.3l-0.1,0.1
		c0,0,0,0.1-0.1,0.1c-0.1,0.1-0.1,0.2-0.1,0.4v3.5C79.1,157.6,79.4,157.8,80,157.8z"/>
	<path d="M96.4,192.6c-1.7-1.3-3.3-2.6-4.9-3.8l-1.1-0.9c-0.1-0.1-0.2-0.2-0.3-0.3c1.2-0.1,2.3-0.1,3.5-0.1c1.1,0,2.2,0,3.2-0.1
		l0.2,0v0l0,0v-4.5l-0.2-0.1c-0.8-0.2-15.8-0.2-16.7,0l-0.2,0l0,0l0,0l0,0.2c-0.1,1.4,0,2.8,0.2,4.2l0,0.2l0,0l0,0h0.1l0,0
		c0.4,0.1,0.7,0.1,0.9,0.1h5.7c0.1,0,0.1,0,0.2,0c0.2,0,0.3,0,0.4,0.1c-0.1,0.1-0.2,0.2-0.3,0.4c-0.8,0.8-1.5,1.5-2.3,2.2l-4,3.8
		c-0.4,0.3-0.6,0.7-0.6,1.2l0,0.5c0,0.5,0,1,0.1,1.4c0,0.8,0,1.7,0.1,2.7v0.1l0,0l0,0l0.1,0.1l0.3,0.2l0,0l0,0l0.8-0.7l6.8-6.5
		c0.2-0.2,0.4-0.4,0.5-0.4c0.2-0.1,0.4,0,0.8,0.3l0.2,0.1c2,1.5,3.9,3,5.8,4.4c0.3,0.2,0.5,0.4,0.8,0.5l0.4,0.2v0l0,0v-4.7
		C97,193.2,96.7,192.8,96.4,192.6z"/>
	<path d="M84.9,76.9c-2.4,2.1-4.8,4.1-7.1,6.1C77.2,83.4,77,84,77,84.6v2.2c0,0.5,0.1,0.8,0.4,1c0.2,0.2,0.5,0.3,0.9,0.3
		c3.4,0,6.8-0.1,10.2-0.1c0.8,0,1-0.2,1-1c0-0.5,0-1.1,0-1.6c0-0.5,0-0.9,0-1.4c0-0.5-0.1-0.8-0.4-0.9c-0.2-0.1-0.4-0.2-0.8-0.2
		c-0.9,0-1.8,0-2.6-0.1c0,0-0.1,0-0.1,0c0.1-0.1,0.1-0.2,0.2-0.2c1.6-1.4,3.2-2.8,4.8-4.2c1.8-1.5,3.6-3.1,5.4-4.7
		c0.3-0.2,0.5-0.5,0.6-1v-3.4v-0.6v0h-0.2l-0.1,0c-0.2,0-0.3,0-0.5,0c-0.1,0-0.1,0-0.2,0c-0.2,0-0.4,0-0.5,0H77.7
		c-0.4,0-0.8,0-1,0.2c-0.1,0.1-0.2,0.2-0.2,0.4c0,0.1,0,0.3,0,0.5c0,0,0,0,0,0.1l0,0.5c0,0.7,0,1.4,0.1,2.1c0,0,0,0.1,0,0.1
		c0,0,0,0,0,0c0,0,0,0,0,0c0,0.1,0,0.3,0,0.4c0,0.1,0,0.2,0,0.4l0,0.1v0.2H88c0.2,0,0.4,0,0.6,0c-0.1,0.1-0.2,0.2-0.3,0.3
		C87.2,75,86,76,84.9,76.9z"/>
	<path d="M81.3,181.2c0.2,0.3,0.5,0.4,0.8,0.4c0,0,0,0,0,0l2.8-0.1h0.4l-0.3-0.6c-0.1-0.1-0.1-0.3-0.2-0.4c-0.2-0.4-0.3-0.7-0.4-1
		c-0.7-1.5-1.1-3-1.1-4.7c-0.1-1.2,0.1-2.4,0.6-3.6c0-0.1,0.1-0.2,0.1-0.3c0.7-1.5,2.3-2.5,4-2.6c0.9,0,1.8,0.2,2.5,0.6
		c0.7,0.4,1.3,1.1,1.7,1.9c0.2,0.4,0.4,0.9,0.6,1.3c0.6,1.9,0.6,3.9,0,5.8c-0.2,0.6-0.4,1.1-0.5,1.7c-0.1,0.4-0.3,0.8-0.4,1.2
		l-0.1,0.1l0.1,0.2c0.1,0.2,0.2,0.2,0.4,0.2c0,0,0,0,0.1,0h1c2.5,0,2.7-0.1,3.3-2.5c0.6-2.5,0.7-5.2,0.2-7.7c-0.4-2-1.4-3.8-2.8-5.3
		c-0.4-0.4-0.8-0.7-1.2-1c-2.9-2.1-7-2.1-9.9,0.3c-1.5,1.3-2.6,2.9-3.1,4.8c-0.6,2.3-0.7,4.7-0.2,7.1c0.4,1.4,0.8,2.7,1.3,4
		C81.1,180.9,81.2,181,81.3,181.2z"/>
	<path d="M96.4,82.9h-0.2c-0.4,0-0.9,0-1.3,0c-0.8,0-1.6,0-2.4,0h0c-0.7,0-1,0.2-1,1l0,3.1c0,0.2,0.1,0.4,0.2,0.6l0.1,0.2h0h4.9
		l0-0.2c0.1-1.5,0-3-0.2-4.4L96.4,82.9z"/>
</g>
</svg>
