<?xml version="1.0" encoding="utf-8"?>
<!-- Generator: Adobe Illustrator 14.0.0, SVG Export Plug-In . SVG Version: 6.00 Build 43363)  -->
<!DOCTYPE svg PUBLIC "-//W3C//DTD SVG 1.0//EN" "http://www.w3.org/TR/2001/REC-SVG-20010904/DTD/svg10.dtd">
<svg version="1.0" id="Vrstva_1" xmlns="http://www.w3.org/2000/svg" xmlns:xlink="http://www.w3.org/1999/xlink" x="0px" y="0px"
	 width="286px" height="42px" viewBox="0 0 286 42" enable-background="new 0 0 286 42" xml:space="preserve">
<polyline points="280.464,0.798 267.332,19.733 285.134,41.12 272.553,41.12 256.594,22.215 256.594,41.12 246.545,41.12 
	246.545,0.798 256.594,0.798 256.594,18.955 269.401,0.798 280.464,0.798 "/>
<path d="M243.532,28.826v8.798c-5.034,2.679-10.315,4.019-15.841,4.019c-7.153,0-12.857-1.979-17.104-5.93
	c-4.236-3.961-6.364-8.828-6.364-14.62c0-5.793,2.236-10.709,6.709-14.748c4.483-4.039,10.324-6.068,17.536-6.068
	c5.753,0,10.62,1.192,14.61,3.556v8.975c-4.886-2.749-9.518-4.128-13.892-4.128c-4.284,0-7.793,1.152-10.512,3.448
	c-2.728,2.305-4.088,5.231-4.088,8.787c0,3.576,1.34,6.532,4.029,8.867c2.68,2.324,6.118,3.486,10.314,3.486
	c2.079,0,4.078-0.275,5.999-0.817C236.863,31.9,239.729,30.688,243.532,28.826"/>
<path d="M186.382,10.443c-5.879,15.589-6.609,17.49-11.565,30.678h-10.649l16.244-40.323h11.665l17.89,40.323h-10.797
	C192.114,24.183,194.29,29.508,186.382,10.443"/>
<polyline points="164.365,0.798 164.365,41.12 155.902,41.12 133.618,15.29 133.618,41.12 123.579,41.12 123.579,0.798 
	132.781,0.798 154.316,25.446 154.316,0.798 164.365,0.798 "/>
<polyline points="119.797,0.798 106.665,19.733 124.467,41.12 111.886,41.12 95.927,22.215 95.927,41.12 85.878,41.12 85.878,0.798 
	95.927,0.798 95.927,18.955 108.734,0.798 119.797,0.798 "/>
<path d="M82.865,28.826v8.798c-5.034,2.679-10.315,4.019-15.841,4.019c-7.153,0-12.857-1.979-17.103-5.93
	c-4.236-3.961-6.364-8.828-6.364-14.62c0-5.793,2.236-10.709,6.709-14.748c4.483-4.039,10.324-6.068,17.536-6.068
	c5.753,0,10.62,1.192,14.61,3.556v8.975c-4.886-2.749-9.517-4.128-13.891-4.128c-4.285,0-7.793,1.152-10.512,3.448
	c-2.728,2.305-4.088,5.231-4.088,8.787c0,3.576,1.34,6.532,4.03,8.867c2.679,2.324,6.117,3.486,10.314,3.486
	c2.079,0,4.078-0.275,6-0.817C76.196,31.9,79.062,30.688,82.865,28.826"/>
<rect x="30.879" y="0.799" fill="#E2007A" width="10.048" height="10.048"/>
<rect x="182.042" y="31.072" fill="#E2007A" width="10.048" height="10.048"/>
<polyline points="40.928,15.87 40.928,41.12 32.465,41.12 10.181,15.29 10.181,41.12 0.142,41.12 0.142,0.798 9.344,0.798 
	30.879,25.446 30.879,15.87 40.928,15.87 "/>
</svg>
